%TF.GenerationSoftware,KiCad,Pcbnew,7.0.7*%
%TF.CreationDate,2024-04-10T14:30:17-07:00*%
%TF.ProjectId,hv-pcb-v1,68762d70-6362-42d7-9631-2e6b69636164,rev?*%
%TF.SameCoordinates,Original*%
%TF.FileFunction,Legend,Top*%
%TF.FilePolarity,Positive*%
%FSLAX46Y46*%
G04 Gerber Fmt 4.6, Leading zero omitted, Abs format (unit mm)*
G04 Created by KiCad (PCBNEW 7.0.7) date 2024-04-10 14:30:17*
%MOMM*%
%LPD*%
G01*
G04 APERTURE LIST*
%ADD10C,0.150000*%
%ADD11C,0.120000*%
G04 APERTURE END LIST*
D10*
X149730819Y-141938220D02*
X148730819Y-141938220D01*
X148730819Y-141938220D02*
X149445104Y-141604887D01*
X149445104Y-141604887D02*
X148730819Y-141271554D01*
X148730819Y-141271554D02*
X149730819Y-141271554D01*
X149635580Y-140223935D02*
X149683200Y-140271554D01*
X149683200Y-140271554D02*
X149730819Y-140414411D01*
X149730819Y-140414411D02*
X149730819Y-140509649D01*
X149730819Y-140509649D02*
X149683200Y-140652506D01*
X149683200Y-140652506D02*
X149587961Y-140747744D01*
X149587961Y-140747744D02*
X149492723Y-140795363D01*
X149492723Y-140795363D02*
X149302247Y-140842982D01*
X149302247Y-140842982D02*
X149159390Y-140842982D01*
X149159390Y-140842982D02*
X148968914Y-140795363D01*
X148968914Y-140795363D02*
X148873676Y-140747744D01*
X148873676Y-140747744D02*
X148778438Y-140652506D01*
X148778438Y-140652506D02*
X148730819Y-140509649D01*
X148730819Y-140509649D02*
X148730819Y-140414411D01*
X148730819Y-140414411D02*
X148778438Y-140271554D01*
X148778438Y-140271554D02*
X148826057Y-140223935D01*
X149730819Y-139795363D02*
X148730819Y-139795363D01*
X148730819Y-139795363D02*
X148730819Y-139414411D01*
X148730819Y-139414411D02*
X148778438Y-139319173D01*
X148778438Y-139319173D02*
X148826057Y-139271554D01*
X148826057Y-139271554D02*
X148921295Y-139223935D01*
X148921295Y-139223935D02*
X149064152Y-139223935D01*
X149064152Y-139223935D02*
X149159390Y-139271554D01*
X149159390Y-139271554D02*
X149207009Y-139319173D01*
X149207009Y-139319173D02*
X149254628Y-139414411D01*
X149254628Y-139414411D02*
X149254628Y-139795363D01*
X149730819Y-138271554D02*
X149730819Y-138842982D01*
X149730819Y-138557268D02*
X148730819Y-138557268D01*
X148730819Y-138557268D02*
X148873676Y-138652506D01*
X148873676Y-138652506D02*
X148968914Y-138747744D01*
X148968914Y-138747744D02*
X149016533Y-138842982D01*
X149730819Y-136938220D02*
X149683200Y-137033458D01*
X149683200Y-137033458D02*
X149635580Y-137081077D01*
X149635580Y-137081077D02*
X149540342Y-137128696D01*
X149540342Y-137128696D02*
X149254628Y-137128696D01*
X149254628Y-137128696D02*
X149159390Y-137081077D01*
X149159390Y-137081077D02*
X149111771Y-137033458D01*
X149111771Y-137033458D02*
X149064152Y-136938220D01*
X149064152Y-136938220D02*
X149064152Y-136795363D01*
X149064152Y-136795363D02*
X149111771Y-136700125D01*
X149111771Y-136700125D02*
X149159390Y-136652506D01*
X149159390Y-136652506D02*
X149254628Y-136604887D01*
X149254628Y-136604887D02*
X149540342Y-136604887D01*
X149540342Y-136604887D02*
X149635580Y-136652506D01*
X149635580Y-136652506D02*
X149683200Y-136700125D01*
X149683200Y-136700125D02*
X149730819Y-136795363D01*
X149730819Y-136795363D02*
X149730819Y-136938220D01*
X149064152Y-135747744D02*
X149730819Y-135747744D01*
X149064152Y-136176315D02*
X149587961Y-136176315D01*
X149587961Y-136176315D02*
X149683200Y-136128696D01*
X149683200Y-136128696D02*
X149730819Y-136033458D01*
X149730819Y-136033458D02*
X149730819Y-135890601D01*
X149730819Y-135890601D02*
X149683200Y-135795363D01*
X149683200Y-135795363D02*
X149635580Y-135747744D01*
X149064152Y-135414410D02*
X149064152Y-135033458D01*
X148730819Y-135271553D02*
X149587961Y-135271553D01*
X149587961Y-135271553D02*
X149683200Y-135223934D01*
X149683200Y-135223934D02*
X149730819Y-135128696D01*
X149730819Y-135128696D02*
X149730819Y-135033458D01*
X149064152Y-134700124D02*
X150064152Y-134700124D01*
X149111771Y-134700124D02*
X149064152Y-134604886D01*
X149064152Y-134604886D02*
X149064152Y-134414410D01*
X149064152Y-134414410D02*
X149111771Y-134319172D01*
X149111771Y-134319172D02*
X149159390Y-134271553D01*
X149159390Y-134271553D02*
X149254628Y-134223934D01*
X149254628Y-134223934D02*
X149540342Y-134223934D01*
X149540342Y-134223934D02*
X149635580Y-134271553D01*
X149635580Y-134271553D02*
X149683200Y-134319172D01*
X149683200Y-134319172D02*
X149730819Y-134414410D01*
X149730819Y-134414410D02*
X149730819Y-134604886D01*
X149730819Y-134604886D02*
X149683200Y-134700124D01*
X149064152Y-133366791D02*
X149730819Y-133366791D01*
X149064152Y-133795362D02*
X149587961Y-133795362D01*
X149587961Y-133795362D02*
X149683200Y-133747743D01*
X149683200Y-133747743D02*
X149730819Y-133652505D01*
X149730819Y-133652505D02*
X149730819Y-133509648D01*
X149730819Y-133509648D02*
X149683200Y-133414410D01*
X149683200Y-133414410D02*
X149635580Y-133366791D01*
X149064152Y-133033457D02*
X149064152Y-132652505D01*
X148730819Y-132890600D02*
X149587961Y-132890600D01*
X149587961Y-132890600D02*
X149683200Y-132842981D01*
X149683200Y-132842981D02*
X149730819Y-132747743D01*
X149730819Y-132747743D02*
X149730819Y-132652505D01*
X51889160Y-103878819D02*
X51889160Y-104069295D01*
X52270112Y-103878819D02*
X52270112Y-104069295D01*
X53508208Y-104878819D02*
X53460589Y-104878819D01*
X53460589Y-104878819D02*
X53365350Y-104831200D01*
X53365350Y-104831200D02*
X53222493Y-104688342D01*
X53222493Y-104688342D02*
X52984398Y-104402628D01*
X52984398Y-104402628D02*
X52889160Y-104259771D01*
X52889160Y-104259771D02*
X52841541Y-104116914D01*
X52841541Y-104116914D02*
X52841541Y-104021676D01*
X52841541Y-104021676D02*
X52889160Y-103926438D01*
X52889160Y-103926438D02*
X52984398Y-103878819D01*
X52984398Y-103878819D02*
X53032017Y-103878819D01*
X53032017Y-103878819D02*
X53127255Y-103926438D01*
X53127255Y-103926438D02*
X53174874Y-104021676D01*
X53174874Y-104021676D02*
X53174874Y-104069295D01*
X53174874Y-104069295D02*
X53127255Y-104164533D01*
X53127255Y-104164533D02*
X53079636Y-104212152D01*
X53079636Y-104212152D02*
X52793922Y-104402628D01*
X52793922Y-104402628D02*
X52746303Y-104450247D01*
X52746303Y-104450247D02*
X52698684Y-104545485D01*
X52698684Y-104545485D02*
X52698684Y-104688342D01*
X52698684Y-104688342D02*
X52746303Y-104783580D01*
X52746303Y-104783580D02*
X52793922Y-104831200D01*
X52793922Y-104831200D02*
X52889160Y-104878819D01*
X52889160Y-104878819D02*
X53032017Y-104878819D01*
X53032017Y-104878819D02*
X53127255Y-104831200D01*
X53127255Y-104831200D02*
X53174874Y-104783580D01*
X53174874Y-104783580D02*
X53317731Y-104593104D01*
X53317731Y-104593104D02*
X53365350Y-104450247D01*
X53365350Y-104450247D02*
X53365350Y-104355009D01*
X54698684Y-104878819D02*
X54698684Y-104212152D01*
X54698684Y-104307390D02*
X54746303Y-104259771D01*
X54746303Y-104259771D02*
X54841541Y-104212152D01*
X54841541Y-104212152D02*
X54984398Y-104212152D01*
X54984398Y-104212152D02*
X55079636Y-104259771D01*
X55079636Y-104259771D02*
X55127255Y-104355009D01*
X55127255Y-104355009D02*
X55127255Y-104878819D01*
X55127255Y-104355009D02*
X55174874Y-104259771D01*
X55174874Y-104259771D02*
X55270112Y-104212152D01*
X55270112Y-104212152D02*
X55412969Y-104212152D01*
X55412969Y-104212152D02*
X55508208Y-104259771D01*
X55508208Y-104259771D02*
X55555827Y-104355009D01*
X55555827Y-104355009D02*
X55555827Y-104878819D01*
X56412969Y-104831200D02*
X56317731Y-104878819D01*
X56317731Y-104878819D02*
X56127255Y-104878819D01*
X56127255Y-104878819D02*
X56032017Y-104831200D01*
X56032017Y-104831200D02*
X55984398Y-104735961D01*
X55984398Y-104735961D02*
X55984398Y-104355009D01*
X55984398Y-104355009D02*
X56032017Y-104259771D01*
X56032017Y-104259771D02*
X56127255Y-104212152D01*
X56127255Y-104212152D02*
X56317731Y-104212152D01*
X56317731Y-104212152D02*
X56412969Y-104259771D01*
X56412969Y-104259771D02*
X56460588Y-104355009D01*
X56460588Y-104355009D02*
X56460588Y-104450247D01*
X56460588Y-104450247D02*
X55984398Y-104545485D01*
X57317731Y-104878819D02*
X57317731Y-104355009D01*
X57317731Y-104355009D02*
X57270112Y-104259771D01*
X57270112Y-104259771D02*
X57174874Y-104212152D01*
X57174874Y-104212152D02*
X56984398Y-104212152D01*
X56984398Y-104212152D02*
X56889160Y-104259771D01*
X57317731Y-104831200D02*
X57222493Y-104878819D01*
X57222493Y-104878819D02*
X56984398Y-104878819D01*
X56984398Y-104878819D02*
X56889160Y-104831200D01*
X56889160Y-104831200D02*
X56841541Y-104735961D01*
X56841541Y-104735961D02*
X56841541Y-104640723D01*
X56841541Y-104640723D02*
X56889160Y-104545485D01*
X56889160Y-104545485D02*
X56984398Y-104497866D01*
X56984398Y-104497866D02*
X57222493Y-104497866D01*
X57222493Y-104497866D02*
X57317731Y-104450247D01*
X57793922Y-104212152D02*
X57793922Y-104878819D01*
X57793922Y-104307390D02*
X57841541Y-104259771D01*
X57841541Y-104259771D02*
X57936779Y-104212152D01*
X57936779Y-104212152D02*
X58079636Y-104212152D01*
X58079636Y-104212152D02*
X58174874Y-104259771D01*
X58174874Y-104259771D02*
X58222493Y-104355009D01*
X58222493Y-104355009D02*
X58222493Y-104878819D01*
X58651065Y-104831200D02*
X58746303Y-104878819D01*
X58746303Y-104878819D02*
X58936779Y-104878819D01*
X58936779Y-104878819D02*
X59032017Y-104831200D01*
X59032017Y-104831200D02*
X59079636Y-104735961D01*
X59079636Y-104735961D02*
X59079636Y-104688342D01*
X59079636Y-104688342D02*
X59032017Y-104593104D01*
X59032017Y-104593104D02*
X58936779Y-104545485D01*
X58936779Y-104545485D02*
X58793922Y-104545485D01*
X58793922Y-104545485D02*
X58698684Y-104497866D01*
X58698684Y-104497866D02*
X58651065Y-104402628D01*
X58651065Y-104402628D02*
X58651065Y-104355009D01*
X58651065Y-104355009D02*
X58698684Y-104259771D01*
X58698684Y-104259771D02*
X58793922Y-104212152D01*
X58793922Y-104212152D02*
X58936779Y-104212152D01*
X58936779Y-104212152D02*
X59032017Y-104259771D01*
X59460589Y-103878819D02*
X59460589Y-104069295D01*
X59841541Y-103878819D02*
X59841541Y-104069295D01*
X60270113Y-104783580D02*
X60317732Y-104831200D01*
X60317732Y-104831200D02*
X60270113Y-104878819D01*
X60270113Y-104878819D02*
X60222494Y-104831200D01*
X60222494Y-104831200D02*
X60270113Y-104783580D01*
X60270113Y-104783580D02*
X60270113Y-104878819D01*
X60270113Y-104259771D02*
X60317732Y-104307390D01*
X60317732Y-104307390D02*
X60270113Y-104355009D01*
X60270113Y-104355009D02*
X60222494Y-104307390D01*
X60222494Y-104307390D02*
X60270113Y-104259771D01*
X60270113Y-104259771D02*
X60270113Y-104355009D01*
X62079636Y-104783580D02*
X62032017Y-104831200D01*
X62032017Y-104831200D02*
X61889160Y-104878819D01*
X61889160Y-104878819D02*
X61793922Y-104878819D01*
X61793922Y-104878819D02*
X61651065Y-104831200D01*
X61651065Y-104831200D02*
X61555827Y-104735961D01*
X61555827Y-104735961D02*
X61508208Y-104640723D01*
X61508208Y-104640723D02*
X61460589Y-104450247D01*
X61460589Y-104450247D02*
X61460589Y-104307390D01*
X61460589Y-104307390D02*
X61508208Y-104116914D01*
X61508208Y-104116914D02*
X61555827Y-104021676D01*
X61555827Y-104021676D02*
X61651065Y-103926438D01*
X61651065Y-103926438D02*
X61793922Y-103878819D01*
X61793922Y-103878819D02*
X61889160Y-103878819D01*
X61889160Y-103878819D02*
X62032017Y-103926438D01*
X62032017Y-103926438D02*
X62079636Y-103974057D01*
X62651065Y-104878819D02*
X62555827Y-104831200D01*
X62555827Y-104831200D02*
X62508208Y-104783580D01*
X62508208Y-104783580D02*
X62460589Y-104688342D01*
X62460589Y-104688342D02*
X62460589Y-104402628D01*
X62460589Y-104402628D02*
X62508208Y-104307390D01*
X62508208Y-104307390D02*
X62555827Y-104259771D01*
X62555827Y-104259771D02*
X62651065Y-104212152D01*
X62651065Y-104212152D02*
X62793922Y-104212152D01*
X62793922Y-104212152D02*
X62889160Y-104259771D01*
X62889160Y-104259771D02*
X62936779Y-104307390D01*
X62936779Y-104307390D02*
X62984398Y-104402628D01*
X62984398Y-104402628D02*
X62984398Y-104688342D01*
X62984398Y-104688342D02*
X62936779Y-104783580D01*
X62936779Y-104783580D02*
X62889160Y-104831200D01*
X62889160Y-104831200D02*
X62793922Y-104878819D01*
X62793922Y-104878819D02*
X62651065Y-104878819D01*
X63412970Y-104212152D02*
X63412970Y-104878819D01*
X63412970Y-104307390D02*
X63460589Y-104259771D01*
X63460589Y-104259771D02*
X63555827Y-104212152D01*
X63555827Y-104212152D02*
X63698684Y-104212152D01*
X63698684Y-104212152D02*
X63793922Y-104259771D01*
X63793922Y-104259771D02*
X63841541Y-104355009D01*
X63841541Y-104355009D02*
X63841541Y-104878819D01*
X64317732Y-104212152D02*
X64317732Y-104878819D01*
X64317732Y-104307390D02*
X64365351Y-104259771D01*
X64365351Y-104259771D02*
X64460589Y-104212152D01*
X64460589Y-104212152D02*
X64603446Y-104212152D01*
X64603446Y-104212152D02*
X64698684Y-104259771D01*
X64698684Y-104259771D02*
X64746303Y-104355009D01*
X64746303Y-104355009D02*
X64746303Y-104878819D01*
X65603446Y-104831200D02*
X65508208Y-104878819D01*
X65508208Y-104878819D02*
X65317732Y-104878819D01*
X65317732Y-104878819D02*
X65222494Y-104831200D01*
X65222494Y-104831200D02*
X65174875Y-104735961D01*
X65174875Y-104735961D02*
X65174875Y-104355009D01*
X65174875Y-104355009D02*
X65222494Y-104259771D01*
X65222494Y-104259771D02*
X65317732Y-104212152D01*
X65317732Y-104212152D02*
X65508208Y-104212152D01*
X65508208Y-104212152D02*
X65603446Y-104259771D01*
X65603446Y-104259771D02*
X65651065Y-104355009D01*
X65651065Y-104355009D02*
X65651065Y-104450247D01*
X65651065Y-104450247D02*
X65174875Y-104545485D01*
X66508208Y-104831200D02*
X66412970Y-104878819D01*
X66412970Y-104878819D02*
X66222494Y-104878819D01*
X66222494Y-104878819D02*
X66127256Y-104831200D01*
X66127256Y-104831200D02*
X66079637Y-104783580D01*
X66079637Y-104783580D02*
X66032018Y-104688342D01*
X66032018Y-104688342D02*
X66032018Y-104402628D01*
X66032018Y-104402628D02*
X66079637Y-104307390D01*
X66079637Y-104307390D02*
X66127256Y-104259771D01*
X66127256Y-104259771D02*
X66222494Y-104212152D01*
X66222494Y-104212152D02*
X66412970Y-104212152D01*
X66412970Y-104212152D02*
X66508208Y-104259771D01*
X66793923Y-104212152D02*
X67174875Y-104212152D01*
X66936780Y-103878819D02*
X66936780Y-104735961D01*
X66936780Y-104735961D02*
X66984399Y-104831200D01*
X66984399Y-104831200D02*
X67079637Y-104878819D01*
X67079637Y-104878819D02*
X67174875Y-104878819D01*
X68127257Y-104212152D02*
X68508209Y-104212152D01*
X68270114Y-103878819D02*
X68270114Y-104735961D01*
X68270114Y-104735961D02*
X68317733Y-104831200D01*
X68317733Y-104831200D02*
X68412971Y-104878819D01*
X68412971Y-104878819D02*
X68508209Y-104878819D01*
X68984400Y-104878819D02*
X68889162Y-104831200D01*
X68889162Y-104831200D02*
X68841543Y-104783580D01*
X68841543Y-104783580D02*
X68793924Y-104688342D01*
X68793924Y-104688342D02*
X68793924Y-104402628D01*
X68793924Y-104402628D02*
X68841543Y-104307390D01*
X68841543Y-104307390D02*
X68889162Y-104259771D01*
X68889162Y-104259771D02*
X68984400Y-104212152D01*
X68984400Y-104212152D02*
X69127257Y-104212152D01*
X69127257Y-104212152D02*
X69222495Y-104259771D01*
X69222495Y-104259771D02*
X69270114Y-104307390D01*
X69270114Y-104307390D02*
X69317733Y-104402628D01*
X69317733Y-104402628D02*
X69317733Y-104688342D01*
X69317733Y-104688342D02*
X69270114Y-104783580D01*
X69270114Y-104783580D02*
X69222495Y-104831200D01*
X69222495Y-104831200D02*
X69127257Y-104878819D01*
X69127257Y-104878819D02*
X68984400Y-104878819D01*
X70508210Y-104878819D02*
X70508210Y-104212152D01*
X70508210Y-103878819D02*
X70460591Y-103926438D01*
X70460591Y-103926438D02*
X70508210Y-103974057D01*
X70508210Y-103974057D02*
X70555829Y-103926438D01*
X70555829Y-103926438D02*
X70508210Y-103878819D01*
X70508210Y-103878819D02*
X70508210Y-103974057D01*
X70984400Y-104212152D02*
X70984400Y-104878819D01*
X70984400Y-104307390D02*
X71032019Y-104259771D01*
X71032019Y-104259771D02*
X71127257Y-104212152D01*
X71127257Y-104212152D02*
X71270114Y-104212152D01*
X71270114Y-104212152D02*
X71365352Y-104259771D01*
X71365352Y-104259771D02*
X71412971Y-104355009D01*
X71412971Y-104355009D02*
X71412971Y-104878819D01*
X71746305Y-104212152D02*
X72127257Y-104212152D01*
X71889162Y-103878819D02*
X71889162Y-104735961D01*
X71889162Y-104735961D02*
X71936781Y-104831200D01*
X71936781Y-104831200D02*
X72032019Y-104878819D01*
X72032019Y-104878819D02*
X72127257Y-104878819D01*
X72841543Y-104831200D02*
X72746305Y-104878819D01*
X72746305Y-104878819D02*
X72555829Y-104878819D01*
X72555829Y-104878819D02*
X72460591Y-104831200D01*
X72460591Y-104831200D02*
X72412972Y-104735961D01*
X72412972Y-104735961D02*
X72412972Y-104355009D01*
X72412972Y-104355009D02*
X72460591Y-104259771D01*
X72460591Y-104259771D02*
X72555829Y-104212152D01*
X72555829Y-104212152D02*
X72746305Y-104212152D01*
X72746305Y-104212152D02*
X72841543Y-104259771D01*
X72841543Y-104259771D02*
X72889162Y-104355009D01*
X72889162Y-104355009D02*
X72889162Y-104450247D01*
X72889162Y-104450247D02*
X72412972Y-104545485D01*
X73317734Y-104878819D02*
X73317734Y-104212152D01*
X73317734Y-104402628D02*
X73365353Y-104307390D01*
X73365353Y-104307390D02*
X73412972Y-104259771D01*
X73412972Y-104259771D02*
X73508210Y-104212152D01*
X73508210Y-104212152D02*
X73603448Y-104212152D01*
X73936782Y-104212152D02*
X73936782Y-104878819D01*
X73936782Y-104307390D02*
X73984401Y-104259771D01*
X73984401Y-104259771D02*
X74079639Y-104212152D01*
X74079639Y-104212152D02*
X74222496Y-104212152D01*
X74222496Y-104212152D02*
X74317734Y-104259771D01*
X74317734Y-104259771D02*
X74365353Y-104355009D01*
X74365353Y-104355009D02*
X74365353Y-104878819D01*
X75270115Y-104878819D02*
X75270115Y-104355009D01*
X75270115Y-104355009D02*
X75222496Y-104259771D01*
X75222496Y-104259771D02*
X75127258Y-104212152D01*
X75127258Y-104212152D02*
X74936782Y-104212152D01*
X74936782Y-104212152D02*
X74841544Y-104259771D01*
X75270115Y-104831200D02*
X75174877Y-104878819D01*
X75174877Y-104878819D02*
X74936782Y-104878819D01*
X74936782Y-104878819D02*
X74841544Y-104831200D01*
X74841544Y-104831200D02*
X74793925Y-104735961D01*
X74793925Y-104735961D02*
X74793925Y-104640723D01*
X74793925Y-104640723D02*
X74841544Y-104545485D01*
X74841544Y-104545485D02*
X74936782Y-104497866D01*
X74936782Y-104497866D02*
X75174877Y-104497866D01*
X75174877Y-104497866D02*
X75270115Y-104450247D01*
X75889163Y-104878819D02*
X75793925Y-104831200D01*
X75793925Y-104831200D02*
X75746306Y-104735961D01*
X75746306Y-104735961D02*
X75746306Y-103878819D01*
X77460592Y-104878819D02*
X77460592Y-104355009D01*
X77460592Y-104355009D02*
X77412973Y-104259771D01*
X77412973Y-104259771D02*
X77317735Y-104212152D01*
X77317735Y-104212152D02*
X77127259Y-104212152D01*
X77127259Y-104212152D02*
X77032021Y-104259771D01*
X77460592Y-104831200D02*
X77365354Y-104878819D01*
X77365354Y-104878819D02*
X77127259Y-104878819D01*
X77127259Y-104878819D02*
X77032021Y-104831200D01*
X77032021Y-104831200D02*
X76984402Y-104735961D01*
X76984402Y-104735961D02*
X76984402Y-104640723D01*
X76984402Y-104640723D02*
X77032021Y-104545485D01*
X77032021Y-104545485D02*
X77127259Y-104497866D01*
X77127259Y-104497866D02*
X77365354Y-104497866D01*
X77365354Y-104497866D02*
X77460592Y-104450247D01*
X77936783Y-104212152D02*
X77936783Y-104878819D01*
X77936783Y-104307390D02*
X77984402Y-104259771D01*
X77984402Y-104259771D02*
X78079640Y-104212152D01*
X78079640Y-104212152D02*
X78222497Y-104212152D01*
X78222497Y-104212152D02*
X78317735Y-104259771D01*
X78317735Y-104259771D02*
X78365354Y-104355009D01*
X78365354Y-104355009D02*
X78365354Y-104878819D01*
X78984402Y-104878819D02*
X78889164Y-104831200D01*
X78889164Y-104831200D02*
X78841545Y-104783580D01*
X78841545Y-104783580D02*
X78793926Y-104688342D01*
X78793926Y-104688342D02*
X78793926Y-104402628D01*
X78793926Y-104402628D02*
X78841545Y-104307390D01*
X78841545Y-104307390D02*
X78889164Y-104259771D01*
X78889164Y-104259771D02*
X78984402Y-104212152D01*
X78984402Y-104212152D02*
X79127259Y-104212152D01*
X79127259Y-104212152D02*
X79222497Y-104259771D01*
X79222497Y-104259771D02*
X79270116Y-104307390D01*
X79270116Y-104307390D02*
X79317735Y-104402628D01*
X79317735Y-104402628D02*
X79317735Y-104688342D01*
X79317735Y-104688342D02*
X79270116Y-104783580D01*
X79270116Y-104783580D02*
X79222497Y-104831200D01*
X79222497Y-104831200D02*
X79127259Y-104878819D01*
X79127259Y-104878819D02*
X78984402Y-104878819D01*
X80174878Y-104878819D02*
X80174878Y-103878819D01*
X80174878Y-104831200D02*
X80079640Y-104878819D01*
X80079640Y-104878819D02*
X79889164Y-104878819D01*
X79889164Y-104878819D02*
X79793926Y-104831200D01*
X79793926Y-104831200D02*
X79746307Y-104783580D01*
X79746307Y-104783580D02*
X79698688Y-104688342D01*
X79698688Y-104688342D02*
X79698688Y-104402628D01*
X79698688Y-104402628D02*
X79746307Y-104307390D01*
X79746307Y-104307390D02*
X79793926Y-104259771D01*
X79793926Y-104259771D02*
X79889164Y-104212152D01*
X79889164Y-104212152D02*
X80079640Y-104212152D01*
X80079640Y-104212152D02*
X80174878Y-104259771D01*
X81032021Y-104831200D02*
X80936783Y-104878819D01*
X80936783Y-104878819D02*
X80746307Y-104878819D01*
X80746307Y-104878819D02*
X80651069Y-104831200D01*
X80651069Y-104831200D02*
X80603450Y-104735961D01*
X80603450Y-104735961D02*
X80603450Y-104355009D01*
X80603450Y-104355009D02*
X80651069Y-104259771D01*
X80651069Y-104259771D02*
X80746307Y-104212152D01*
X80746307Y-104212152D02*
X80936783Y-104212152D01*
X80936783Y-104212152D02*
X81032021Y-104259771D01*
X81032021Y-104259771D02*
X81079640Y-104355009D01*
X81079640Y-104355009D02*
X81079640Y-104450247D01*
X81079640Y-104450247D02*
X80603450Y-104545485D01*
X82555831Y-105259771D02*
X82508212Y-105212152D01*
X82508212Y-105212152D02*
X82412974Y-105069295D01*
X82412974Y-105069295D02*
X82365355Y-104974057D01*
X82365355Y-104974057D02*
X82317736Y-104831200D01*
X82317736Y-104831200D02*
X82270117Y-104593104D01*
X82270117Y-104593104D02*
X82270117Y-104402628D01*
X82270117Y-104402628D02*
X82317736Y-104164533D01*
X82317736Y-104164533D02*
X82365355Y-104021676D01*
X82365355Y-104021676D02*
X82412974Y-103926438D01*
X82412974Y-103926438D02*
X82508212Y-103783580D01*
X82508212Y-103783580D02*
X82555831Y-103735961D01*
X82936784Y-104878819D02*
X82936784Y-103878819D01*
X82936784Y-104355009D02*
X83508212Y-104355009D01*
X83508212Y-104878819D02*
X83508212Y-103878819D01*
X83841546Y-103878819D02*
X84174879Y-104878819D01*
X84174879Y-104878819D02*
X84508212Y-103878819D01*
X86032022Y-104212152D02*
X86032022Y-105021676D01*
X86032022Y-105021676D02*
X85984403Y-105116914D01*
X85984403Y-105116914D02*
X85936784Y-105164533D01*
X85936784Y-105164533D02*
X85841546Y-105212152D01*
X85841546Y-105212152D02*
X85698689Y-105212152D01*
X85698689Y-105212152D02*
X85603451Y-105164533D01*
X86032022Y-104831200D02*
X85936784Y-104878819D01*
X85936784Y-104878819D02*
X85746308Y-104878819D01*
X85746308Y-104878819D02*
X85651070Y-104831200D01*
X85651070Y-104831200D02*
X85603451Y-104783580D01*
X85603451Y-104783580D02*
X85555832Y-104688342D01*
X85555832Y-104688342D02*
X85555832Y-104402628D01*
X85555832Y-104402628D02*
X85603451Y-104307390D01*
X85603451Y-104307390D02*
X85651070Y-104259771D01*
X85651070Y-104259771D02*
X85746308Y-104212152D01*
X85746308Y-104212152D02*
X85936784Y-104212152D01*
X85936784Y-104212152D02*
X86032022Y-104259771D01*
X86508213Y-104212152D02*
X86508213Y-104878819D01*
X86508213Y-104307390D02*
X86555832Y-104259771D01*
X86555832Y-104259771D02*
X86651070Y-104212152D01*
X86651070Y-104212152D02*
X86793927Y-104212152D01*
X86793927Y-104212152D02*
X86889165Y-104259771D01*
X86889165Y-104259771D02*
X86936784Y-104355009D01*
X86936784Y-104355009D02*
X86936784Y-104878819D01*
X87841546Y-104878819D02*
X87841546Y-103878819D01*
X87841546Y-104831200D02*
X87746308Y-104878819D01*
X87746308Y-104878819D02*
X87555832Y-104878819D01*
X87555832Y-104878819D02*
X87460594Y-104831200D01*
X87460594Y-104831200D02*
X87412975Y-104783580D01*
X87412975Y-104783580D02*
X87365356Y-104688342D01*
X87365356Y-104688342D02*
X87365356Y-104402628D01*
X87365356Y-104402628D02*
X87412975Y-104307390D01*
X87412975Y-104307390D02*
X87460594Y-104259771D01*
X87460594Y-104259771D02*
X87555832Y-104212152D01*
X87555832Y-104212152D02*
X87746308Y-104212152D01*
X87746308Y-104212152D02*
X87841546Y-104259771D01*
X89079642Y-104878819D02*
X89079642Y-104212152D01*
X89079642Y-104402628D02*
X89127261Y-104307390D01*
X89127261Y-104307390D02*
X89174880Y-104259771D01*
X89174880Y-104259771D02*
X89270118Y-104212152D01*
X89270118Y-104212152D02*
X89365356Y-104212152D01*
X90079642Y-104831200D02*
X89984404Y-104878819D01*
X89984404Y-104878819D02*
X89793928Y-104878819D01*
X89793928Y-104878819D02*
X89698690Y-104831200D01*
X89698690Y-104831200D02*
X89651071Y-104735961D01*
X89651071Y-104735961D02*
X89651071Y-104355009D01*
X89651071Y-104355009D02*
X89698690Y-104259771D01*
X89698690Y-104259771D02*
X89793928Y-104212152D01*
X89793928Y-104212152D02*
X89984404Y-104212152D01*
X89984404Y-104212152D02*
X90079642Y-104259771D01*
X90079642Y-104259771D02*
X90127261Y-104355009D01*
X90127261Y-104355009D02*
X90127261Y-104450247D01*
X90127261Y-104450247D02*
X89651071Y-104545485D01*
X90412976Y-104212152D02*
X90793928Y-104212152D01*
X90555833Y-103878819D02*
X90555833Y-104735961D01*
X90555833Y-104735961D02*
X90603452Y-104831200D01*
X90603452Y-104831200D02*
X90698690Y-104878819D01*
X90698690Y-104878819D02*
X90793928Y-104878819D01*
X91555833Y-104212152D02*
X91555833Y-104878819D01*
X91127262Y-104212152D02*
X91127262Y-104735961D01*
X91127262Y-104735961D02*
X91174881Y-104831200D01*
X91174881Y-104831200D02*
X91270119Y-104878819D01*
X91270119Y-104878819D02*
X91412976Y-104878819D01*
X91412976Y-104878819D02*
X91508214Y-104831200D01*
X91508214Y-104831200D02*
X91555833Y-104783580D01*
X92032024Y-104878819D02*
X92032024Y-104212152D01*
X92032024Y-104402628D02*
X92079643Y-104307390D01*
X92079643Y-104307390D02*
X92127262Y-104259771D01*
X92127262Y-104259771D02*
X92222500Y-104212152D01*
X92222500Y-104212152D02*
X92317738Y-104212152D01*
X92651072Y-104212152D02*
X92651072Y-104878819D01*
X92651072Y-104307390D02*
X92698691Y-104259771D01*
X92698691Y-104259771D02*
X92793929Y-104212152D01*
X92793929Y-104212152D02*
X92936786Y-104212152D01*
X92936786Y-104212152D02*
X93032024Y-104259771D01*
X93032024Y-104259771D02*
X93079643Y-104355009D01*
X93079643Y-104355009D02*
X93079643Y-104878819D01*
X93460596Y-105259771D02*
X93508215Y-105212152D01*
X93508215Y-105212152D02*
X93603453Y-105069295D01*
X93603453Y-105069295D02*
X93651072Y-104974057D01*
X93651072Y-104974057D02*
X93698691Y-104831200D01*
X93698691Y-104831200D02*
X93746310Y-104593104D01*
X93746310Y-104593104D02*
X93746310Y-104402628D01*
X93746310Y-104402628D02*
X93698691Y-104164533D01*
X93698691Y-104164533D02*
X93651072Y-104021676D01*
X93651072Y-104021676D02*
X93603453Y-103926438D01*
X93603453Y-103926438D02*
X93508215Y-103783580D01*
X93508215Y-103783580D02*
X93460596Y-103735961D01*
X85749819Y-141374220D02*
X84749819Y-141374220D01*
X84749819Y-141374220D02*
X85464104Y-141040887D01*
X85464104Y-141040887D02*
X84749819Y-140707554D01*
X84749819Y-140707554D02*
X85749819Y-140707554D01*
X85654580Y-139659935D02*
X85702200Y-139707554D01*
X85702200Y-139707554D02*
X85749819Y-139850411D01*
X85749819Y-139850411D02*
X85749819Y-139945649D01*
X85749819Y-139945649D02*
X85702200Y-140088506D01*
X85702200Y-140088506D02*
X85606961Y-140183744D01*
X85606961Y-140183744D02*
X85511723Y-140231363D01*
X85511723Y-140231363D02*
X85321247Y-140278982D01*
X85321247Y-140278982D02*
X85178390Y-140278982D01*
X85178390Y-140278982D02*
X84987914Y-140231363D01*
X84987914Y-140231363D02*
X84892676Y-140183744D01*
X84892676Y-140183744D02*
X84797438Y-140088506D01*
X84797438Y-140088506D02*
X84749819Y-139945649D01*
X84749819Y-139945649D02*
X84749819Y-139850411D01*
X84749819Y-139850411D02*
X84797438Y-139707554D01*
X84797438Y-139707554D02*
X84845057Y-139659935D01*
X85749819Y-139231363D02*
X84749819Y-139231363D01*
X84749819Y-139231363D02*
X84749819Y-138850411D01*
X84749819Y-138850411D02*
X84797438Y-138755173D01*
X84797438Y-138755173D02*
X84845057Y-138707554D01*
X84845057Y-138707554D02*
X84940295Y-138659935D01*
X84940295Y-138659935D02*
X85083152Y-138659935D01*
X85083152Y-138659935D02*
X85178390Y-138707554D01*
X85178390Y-138707554D02*
X85226009Y-138755173D01*
X85226009Y-138755173D02*
X85273628Y-138850411D01*
X85273628Y-138850411D02*
X85273628Y-139231363D01*
X85749819Y-137707554D02*
X85749819Y-138278982D01*
X85749819Y-137993268D02*
X84749819Y-137993268D01*
X84749819Y-137993268D02*
X84892676Y-138088506D01*
X84892676Y-138088506D02*
X84987914Y-138183744D01*
X84987914Y-138183744D02*
X85035533Y-138278982D01*
X85702200Y-136564696D02*
X85749819Y-136469458D01*
X85749819Y-136469458D02*
X85749819Y-136278982D01*
X85749819Y-136278982D02*
X85702200Y-136183744D01*
X85702200Y-136183744D02*
X85606961Y-136136125D01*
X85606961Y-136136125D02*
X85559342Y-136136125D01*
X85559342Y-136136125D02*
X85464104Y-136183744D01*
X85464104Y-136183744D02*
X85416485Y-136278982D01*
X85416485Y-136278982D02*
X85416485Y-136421839D01*
X85416485Y-136421839D02*
X85368866Y-136517077D01*
X85368866Y-136517077D02*
X85273628Y-136564696D01*
X85273628Y-136564696D02*
X85226009Y-136564696D01*
X85226009Y-136564696D02*
X85130771Y-136517077D01*
X85130771Y-136517077D02*
X85083152Y-136421839D01*
X85083152Y-136421839D02*
X85083152Y-136278982D01*
X85083152Y-136278982D02*
X85130771Y-136183744D01*
X85083152Y-135278982D02*
X85749819Y-135278982D01*
X85083152Y-135707553D02*
X85606961Y-135707553D01*
X85606961Y-135707553D02*
X85702200Y-135659934D01*
X85702200Y-135659934D02*
X85749819Y-135564696D01*
X85749819Y-135564696D02*
X85749819Y-135421839D01*
X85749819Y-135421839D02*
X85702200Y-135326601D01*
X85702200Y-135326601D02*
X85654580Y-135278982D01*
X85083152Y-134802791D02*
X86083152Y-134802791D01*
X85130771Y-134802791D02*
X85083152Y-134707553D01*
X85083152Y-134707553D02*
X85083152Y-134517077D01*
X85083152Y-134517077D02*
X85130771Y-134421839D01*
X85130771Y-134421839D02*
X85178390Y-134374220D01*
X85178390Y-134374220D02*
X85273628Y-134326601D01*
X85273628Y-134326601D02*
X85559342Y-134326601D01*
X85559342Y-134326601D02*
X85654580Y-134374220D01*
X85654580Y-134374220D02*
X85702200Y-134421839D01*
X85702200Y-134421839D02*
X85749819Y-134517077D01*
X85749819Y-134517077D02*
X85749819Y-134707553D01*
X85749819Y-134707553D02*
X85702200Y-134802791D01*
X85083152Y-133898029D02*
X86083152Y-133898029D01*
X85130771Y-133898029D02*
X85083152Y-133802791D01*
X85083152Y-133802791D02*
X85083152Y-133612315D01*
X85083152Y-133612315D02*
X85130771Y-133517077D01*
X85130771Y-133517077D02*
X85178390Y-133469458D01*
X85178390Y-133469458D02*
X85273628Y-133421839D01*
X85273628Y-133421839D02*
X85559342Y-133421839D01*
X85559342Y-133421839D02*
X85654580Y-133469458D01*
X85654580Y-133469458D02*
X85702200Y-133517077D01*
X85702200Y-133517077D02*
X85749819Y-133612315D01*
X85749819Y-133612315D02*
X85749819Y-133802791D01*
X85749819Y-133802791D02*
X85702200Y-133898029D01*
X85749819Y-132850410D02*
X85702200Y-132945648D01*
X85702200Y-132945648D02*
X85606961Y-132993267D01*
X85606961Y-132993267D02*
X84749819Y-132993267D01*
X85083152Y-132564695D02*
X85749819Y-132326600D01*
X85083152Y-132088505D02*
X85749819Y-132326600D01*
X85749819Y-132326600D02*
X85987914Y-132421838D01*
X85987914Y-132421838D02*
X86035533Y-132469457D01*
X86035533Y-132469457D02*
X86083152Y-132564695D01*
X104159819Y-141153220D02*
X103159819Y-141153220D01*
X103159819Y-141153220D02*
X103874104Y-140819887D01*
X103874104Y-140819887D02*
X103159819Y-140486554D01*
X103159819Y-140486554D02*
X104159819Y-140486554D01*
X104064580Y-139438935D02*
X104112200Y-139486554D01*
X104112200Y-139486554D02*
X104159819Y-139629411D01*
X104159819Y-139629411D02*
X104159819Y-139724649D01*
X104159819Y-139724649D02*
X104112200Y-139867506D01*
X104112200Y-139867506D02*
X104016961Y-139962744D01*
X104016961Y-139962744D02*
X103921723Y-140010363D01*
X103921723Y-140010363D02*
X103731247Y-140057982D01*
X103731247Y-140057982D02*
X103588390Y-140057982D01*
X103588390Y-140057982D02*
X103397914Y-140010363D01*
X103397914Y-140010363D02*
X103302676Y-139962744D01*
X103302676Y-139962744D02*
X103207438Y-139867506D01*
X103207438Y-139867506D02*
X103159819Y-139724649D01*
X103159819Y-139724649D02*
X103159819Y-139629411D01*
X103159819Y-139629411D02*
X103207438Y-139486554D01*
X103207438Y-139486554D02*
X103255057Y-139438935D01*
X104159819Y-139010363D02*
X103159819Y-139010363D01*
X103159819Y-139010363D02*
X103159819Y-138629411D01*
X103159819Y-138629411D02*
X103207438Y-138534173D01*
X103207438Y-138534173D02*
X103255057Y-138486554D01*
X103255057Y-138486554D02*
X103350295Y-138438935D01*
X103350295Y-138438935D02*
X103493152Y-138438935D01*
X103493152Y-138438935D02*
X103588390Y-138486554D01*
X103588390Y-138486554D02*
X103636009Y-138534173D01*
X103636009Y-138534173D02*
X103683628Y-138629411D01*
X103683628Y-138629411D02*
X103683628Y-139010363D01*
X104159819Y-137486554D02*
X104159819Y-138057982D01*
X104159819Y-137772268D02*
X103159819Y-137772268D01*
X103159819Y-137772268D02*
X103302676Y-137867506D01*
X103302676Y-137867506D02*
X103397914Y-137962744D01*
X103397914Y-137962744D02*
X103445533Y-138057982D01*
X103493152Y-136438934D02*
X103493152Y-136057982D01*
X104159819Y-136296077D02*
X103302676Y-136296077D01*
X103302676Y-136296077D02*
X103207438Y-136248458D01*
X103207438Y-136248458D02*
X103159819Y-136153220D01*
X103159819Y-136153220D02*
X103159819Y-136057982D01*
X104112200Y-135343696D02*
X104159819Y-135438934D01*
X104159819Y-135438934D02*
X104159819Y-135629410D01*
X104159819Y-135629410D02*
X104112200Y-135724648D01*
X104112200Y-135724648D02*
X104016961Y-135772267D01*
X104016961Y-135772267D02*
X103636009Y-135772267D01*
X103636009Y-135772267D02*
X103540771Y-135724648D01*
X103540771Y-135724648D02*
X103493152Y-135629410D01*
X103493152Y-135629410D02*
X103493152Y-135438934D01*
X103493152Y-135438934D02*
X103540771Y-135343696D01*
X103540771Y-135343696D02*
X103636009Y-135296077D01*
X103636009Y-135296077D02*
X103731247Y-135296077D01*
X103731247Y-135296077D02*
X103826485Y-135772267D01*
X104112200Y-134486553D02*
X104159819Y-134581791D01*
X104159819Y-134581791D02*
X104159819Y-134772267D01*
X104159819Y-134772267D02*
X104112200Y-134867505D01*
X104112200Y-134867505D02*
X104016961Y-134915124D01*
X104016961Y-134915124D02*
X103636009Y-134915124D01*
X103636009Y-134915124D02*
X103540771Y-134867505D01*
X103540771Y-134867505D02*
X103493152Y-134772267D01*
X103493152Y-134772267D02*
X103493152Y-134581791D01*
X103493152Y-134581791D02*
X103540771Y-134486553D01*
X103540771Y-134486553D02*
X103636009Y-134438934D01*
X103636009Y-134438934D02*
X103731247Y-134438934D01*
X103731247Y-134438934D02*
X103826485Y-134915124D01*
X104159819Y-133581791D02*
X103159819Y-133581791D01*
X104112200Y-133581791D02*
X104159819Y-133677029D01*
X104159819Y-133677029D02*
X104159819Y-133867505D01*
X104159819Y-133867505D02*
X104112200Y-133962743D01*
X104112200Y-133962743D02*
X104064580Y-134010362D01*
X104064580Y-134010362D02*
X103969342Y-134057981D01*
X103969342Y-134057981D02*
X103683628Y-134057981D01*
X103683628Y-134057981D02*
X103588390Y-134010362D01*
X103588390Y-134010362D02*
X103540771Y-133962743D01*
X103540771Y-133962743D02*
X103493152Y-133867505D01*
X103493152Y-133867505D02*
X103493152Y-133677029D01*
X103493152Y-133677029D02*
X103540771Y-133581791D01*
X51417819Y-140379220D02*
X50417819Y-140379220D01*
X50417819Y-140379220D02*
X50417819Y-139998268D01*
X50417819Y-139998268D02*
X50465438Y-139903030D01*
X50465438Y-139903030D02*
X50513057Y-139855411D01*
X50513057Y-139855411D02*
X50608295Y-139807792D01*
X50608295Y-139807792D02*
X50751152Y-139807792D01*
X50751152Y-139807792D02*
X50846390Y-139855411D01*
X50846390Y-139855411D02*
X50894009Y-139903030D01*
X50894009Y-139903030D02*
X50941628Y-139998268D01*
X50941628Y-139998268D02*
X50941628Y-140379220D01*
X51322580Y-139379220D02*
X51370200Y-139331601D01*
X51370200Y-139331601D02*
X51417819Y-139379220D01*
X51417819Y-139379220D02*
X51370200Y-139426839D01*
X51370200Y-139426839D02*
X51322580Y-139379220D01*
X51322580Y-139379220D02*
X51417819Y-139379220D01*
X51322580Y-138331602D02*
X51370200Y-138379221D01*
X51370200Y-138379221D02*
X51417819Y-138522078D01*
X51417819Y-138522078D02*
X51417819Y-138617316D01*
X51417819Y-138617316D02*
X51370200Y-138760173D01*
X51370200Y-138760173D02*
X51274961Y-138855411D01*
X51274961Y-138855411D02*
X51179723Y-138903030D01*
X51179723Y-138903030D02*
X50989247Y-138950649D01*
X50989247Y-138950649D02*
X50846390Y-138950649D01*
X50846390Y-138950649D02*
X50655914Y-138903030D01*
X50655914Y-138903030D02*
X50560676Y-138855411D01*
X50560676Y-138855411D02*
X50465438Y-138760173D01*
X50465438Y-138760173D02*
X50417819Y-138617316D01*
X50417819Y-138617316D02*
X50417819Y-138522078D01*
X50417819Y-138522078D02*
X50465438Y-138379221D01*
X50465438Y-138379221D02*
X50513057Y-138331602D01*
X51322580Y-137903030D02*
X51370200Y-137855411D01*
X51370200Y-137855411D02*
X51417819Y-137903030D01*
X51417819Y-137903030D02*
X51370200Y-137950649D01*
X51370200Y-137950649D02*
X51322580Y-137903030D01*
X51322580Y-137903030D02*
X51417819Y-137903030D01*
X51370200Y-136712554D02*
X51417819Y-136617316D01*
X51417819Y-136617316D02*
X51417819Y-136426840D01*
X51417819Y-136426840D02*
X51370200Y-136331602D01*
X51370200Y-136331602D02*
X51274961Y-136283983D01*
X51274961Y-136283983D02*
X51227342Y-136283983D01*
X51227342Y-136283983D02*
X51132104Y-136331602D01*
X51132104Y-136331602D02*
X51084485Y-136426840D01*
X51084485Y-136426840D02*
X51084485Y-136569697D01*
X51084485Y-136569697D02*
X51036866Y-136664935D01*
X51036866Y-136664935D02*
X50941628Y-136712554D01*
X50941628Y-136712554D02*
X50894009Y-136712554D01*
X50894009Y-136712554D02*
X50798771Y-136664935D01*
X50798771Y-136664935D02*
X50751152Y-136569697D01*
X50751152Y-136569697D02*
X50751152Y-136426840D01*
X50751152Y-136426840D02*
X50798771Y-136331602D01*
X50751152Y-135426840D02*
X51417819Y-135426840D01*
X50751152Y-135855411D02*
X51274961Y-135855411D01*
X51274961Y-135855411D02*
X51370200Y-135807792D01*
X51370200Y-135807792D02*
X51417819Y-135712554D01*
X51417819Y-135712554D02*
X51417819Y-135569697D01*
X51417819Y-135569697D02*
X51370200Y-135474459D01*
X51370200Y-135474459D02*
X51322580Y-135426840D01*
X50751152Y-134950649D02*
X51751152Y-134950649D01*
X50798771Y-134950649D02*
X50751152Y-134855411D01*
X50751152Y-134855411D02*
X50751152Y-134664935D01*
X50751152Y-134664935D02*
X50798771Y-134569697D01*
X50798771Y-134569697D02*
X50846390Y-134522078D01*
X50846390Y-134522078D02*
X50941628Y-134474459D01*
X50941628Y-134474459D02*
X51227342Y-134474459D01*
X51227342Y-134474459D02*
X51322580Y-134522078D01*
X51322580Y-134522078D02*
X51370200Y-134569697D01*
X51370200Y-134569697D02*
X51417819Y-134664935D01*
X51417819Y-134664935D02*
X51417819Y-134855411D01*
X51417819Y-134855411D02*
X51370200Y-134950649D01*
X50751152Y-134045887D02*
X51751152Y-134045887D01*
X50798771Y-134045887D02*
X50751152Y-133950649D01*
X50751152Y-133950649D02*
X50751152Y-133760173D01*
X50751152Y-133760173D02*
X50798771Y-133664935D01*
X50798771Y-133664935D02*
X50846390Y-133617316D01*
X50846390Y-133617316D02*
X50941628Y-133569697D01*
X50941628Y-133569697D02*
X51227342Y-133569697D01*
X51227342Y-133569697D02*
X51322580Y-133617316D01*
X51322580Y-133617316D02*
X51370200Y-133664935D01*
X51370200Y-133664935D02*
X51417819Y-133760173D01*
X51417819Y-133760173D02*
X51417819Y-133950649D01*
X51417819Y-133950649D02*
X51370200Y-134045887D01*
X51417819Y-132998268D02*
X51370200Y-133093506D01*
X51370200Y-133093506D02*
X51274961Y-133141125D01*
X51274961Y-133141125D02*
X50417819Y-133141125D01*
X50751152Y-132712553D02*
X51417819Y-132474458D01*
X50751152Y-132236363D02*
X51417819Y-132474458D01*
X51417819Y-132474458D02*
X51655914Y-132569696D01*
X51655914Y-132569696D02*
X51703533Y-132617315D01*
X51703533Y-132617315D02*
X51751152Y-132712553D01*
X63618303Y-99738819D02*
X63570684Y-99738819D01*
X63570684Y-99738819D02*
X63475445Y-99691200D01*
X63475445Y-99691200D02*
X63332588Y-99548342D01*
X63332588Y-99548342D02*
X63094493Y-99262628D01*
X63094493Y-99262628D02*
X62999255Y-99119771D01*
X62999255Y-99119771D02*
X62951636Y-98976914D01*
X62951636Y-98976914D02*
X62951636Y-98881676D01*
X62951636Y-98881676D02*
X62999255Y-98786438D01*
X62999255Y-98786438D02*
X63094493Y-98738819D01*
X63094493Y-98738819D02*
X63142112Y-98738819D01*
X63142112Y-98738819D02*
X63237350Y-98786438D01*
X63237350Y-98786438D02*
X63284969Y-98881676D01*
X63284969Y-98881676D02*
X63284969Y-98929295D01*
X63284969Y-98929295D02*
X63237350Y-99024533D01*
X63237350Y-99024533D02*
X63189731Y-99072152D01*
X63189731Y-99072152D02*
X62904017Y-99262628D01*
X62904017Y-99262628D02*
X62856398Y-99310247D01*
X62856398Y-99310247D02*
X62808779Y-99405485D01*
X62808779Y-99405485D02*
X62808779Y-99548342D01*
X62808779Y-99548342D02*
X62856398Y-99643580D01*
X62856398Y-99643580D02*
X62904017Y-99691200D01*
X62904017Y-99691200D02*
X62999255Y-99738819D01*
X62999255Y-99738819D02*
X63142112Y-99738819D01*
X63142112Y-99738819D02*
X63237350Y-99691200D01*
X63237350Y-99691200D02*
X63284969Y-99643580D01*
X63284969Y-99643580D02*
X63427826Y-99453104D01*
X63427826Y-99453104D02*
X63475445Y-99310247D01*
X63475445Y-99310247D02*
X63475445Y-99215009D01*
X246133160Y-139852104D02*
X246609350Y-139852104D01*
X246037922Y-140137819D02*
X246371255Y-139137819D01*
X246371255Y-139137819D02*
X246704588Y-140137819D01*
X247609350Y-140042580D02*
X247561731Y-140090200D01*
X247561731Y-140090200D02*
X247418874Y-140137819D01*
X247418874Y-140137819D02*
X247323636Y-140137819D01*
X247323636Y-140137819D02*
X247180779Y-140090200D01*
X247180779Y-140090200D02*
X247085541Y-139994961D01*
X247085541Y-139994961D02*
X247037922Y-139899723D01*
X247037922Y-139899723D02*
X246990303Y-139709247D01*
X246990303Y-139709247D02*
X246990303Y-139566390D01*
X246990303Y-139566390D02*
X247037922Y-139375914D01*
X247037922Y-139375914D02*
X247085541Y-139280676D01*
X247085541Y-139280676D02*
X247180779Y-139185438D01*
X247180779Y-139185438D02*
X247323636Y-139137819D01*
X247323636Y-139137819D02*
X247418874Y-139137819D01*
X247418874Y-139137819D02*
X247561731Y-139185438D01*
X247561731Y-139185438D02*
X247609350Y-139233057D01*
X248037922Y-140137819D02*
X248037922Y-139137819D01*
X248037922Y-139137819D02*
X248276017Y-139137819D01*
X248276017Y-139137819D02*
X248418874Y-139185438D01*
X248418874Y-139185438D02*
X248514112Y-139280676D01*
X248514112Y-139280676D02*
X248561731Y-139375914D01*
X248561731Y-139375914D02*
X248609350Y-139566390D01*
X248609350Y-139566390D02*
X248609350Y-139709247D01*
X248609350Y-139709247D02*
X248561731Y-139899723D01*
X248561731Y-139899723D02*
X248514112Y-139994961D01*
X248514112Y-139994961D02*
X248418874Y-140090200D01*
X248418874Y-140090200D02*
X248276017Y-140137819D01*
X248276017Y-140137819D02*
X248037922Y-140137819D01*
X249609350Y-140042580D02*
X249561731Y-140090200D01*
X249561731Y-140090200D02*
X249418874Y-140137819D01*
X249418874Y-140137819D02*
X249323636Y-140137819D01*
X249323636Y-140137819D02*
X249180779Y-140090200D01*
X249180779Y-140090200D02*
X249085541Y-139994961D01*
X249085541Y-139994961D02*
X249037922Y-139899723D01*
X249037922Y-139899723D02*
X248990303Y-139709247D01*
X248990303Y-139709247D02*
X248990303Y-139566390D01*
X248990303Y-139566390D02*
X249037922Y-139375914D01*
X249037922Y-139375914D02*
X249085541Y-139280676D01*
X249085541Y-139280676D02*
X249180779Y-139185438D01*
X249180779Y-139185438D02*
X249323636Y-139137819D01*
X249323636Y-139137819D02*
X249418874Y-139137819D01*
X249418874Y-139137819D02*
X249561731Y-139185438D01*
X249561731Y-139185438D02*
X249609350Y-139233057D01*
X250037922Y-139756866D02*
X250799827Y-139756866D01*
X251704588Y-139471152D02*
X251704588Y-140280676D01*
X251704588Y-140280676D02*
X251656969Y-140375914D01*
X251656969Y-140375914D02*
X251609350Y-140423533D01*
X251609350Y-140423533D02*
X251514112Y-140471152D01*
X251514112Y-140471152D02*
X251371255Y-140471152D01*
X251371255Y-140471152D02*
X251276017Y-140423533D01*
X251704588Y-140090200D02*
X251609350Y-140137819D01*
X251609350Y-140137819D02*
X251418874Y-140137819D01*
X251418874Y-140137819D02*
X251323636Y-140090200D01*
X251323636Y-140090200D02*
X251276017Y-140042580D01*
X251276017Y-140042580D02*
X251228398Y-139947342D01*
X251228398Y-139947342D02*
X251228398Y-139661628D01*
X251228398Y-139661628D02*
X251276017Y-139566390D01*
X251276017Y-139566390D02*
X251323636Y-139518771D01*
X251323636Y-139518771D02*
X251418874Y-139471152D01*
X251418874Y-139471152D02*
X251609350Y-139471152D01*
X251609350Y-139471152D02*
X251704588Y-139518771D01*
X252180779Y-139471152D02*
X252180779Y-140137819D01*
X252180779Y-139566390D02*
X252228398Y-139518771D01*
X252228398Y-139518771D02*
X252323636Y-139471152D01*
X252323636Y-139471152D02*
X252466493Y-139471152D01*
X252466493Y-139471152D02*
X252561731Y-139518771D01*
X252561731Y-139518771D02*
X252609350Y-139614009D01*
X252609350Y-139614009D02*
X252609350Y-140137819D01*
X253514112Y-140137819D02*
X253514112Y-139137819D01*
X253514112Y-140090200D02*
X253418874Y-140137819D01*
X253418874Y-140137819D02*
X253228398Y-140137819D01*
X253228398Y-140137819D02*
X253133160Y-140090200D01*
X253133160Y-140090200D02*
X253085541Y-140042580D01*
X253085541Y-140042580D02*
X253037922Y-139947342D01*
X253037922Y-139947342D02*
X253037922Y-139661628D01*
X253037922Y-139661628D02*
X253085541Y-139566390D01*
X253085541Y-139566390D02*
X253133160Y-139518771D01*
X253133160Y-139518771D02*
X253228398Y-139471152D01*
X253228398Y-139471152D02*
X253418874Y-139471152D01*
X253418874Y-139471152D02*
X253514112Y-139518771D01*
X253990303Y-139756866D02*
X254752208Y-139756866D01*
X255656969Y-140090200D02*
X255561731Y-140137819D01*
X255561731Y-140137819D02*
X255371255Y-140137819D01*
X255371255Y-140137819D02*
X255276017Y-140090200D01*
X255276017Y-140090200D02*
X255228398Y-140042580D01*
X255228398Y-140042580D02*
X255180779Y-139947342D01*
X255180779Y-139947342D02*
X255180779Y-139661628D01*
X255180779Y-139661628D02*
X255228398Y-139566390D01*
X255228398Y-139566390D02*
X255276017Y-139518771D01*
X255276017Y-139518771D02*
X255371255Y-139471152D01*
X255371255Y-139471152D02*
X255561731Y-139471152D01*
X255561731Y-139471152D02*
X255656969Y-139518771D01*
X256228398Y-140137819D02*
X256133160Y-140090200D01*
X256133160Y-140090200D02*
X256085541Y-140042580D01*
X256085541Y-140042580D02*
X256037922Y-139947342D01*
X256037922Y-139947342D02*
X256037922Y-139661628D01*
X256037922Y-139661628D02*
X256085541Y-139566390D01*
X256085541Y-139566390D02*
X256133160Y-139518771D01*
X256133160Y-139518771D02*
X256228398Y-139471152D01*
X256228398Y-139471152D02*
X256371255Y-139471152D01*
X256371255Y-139471152D02*
X256466493Y-139518771D01*
X256466493Y-139518771D02*
X256514112Y-139566390D01*
X256514112Y-139566390D02*
X256561731Y-139661628D01*
X256561731Y-139661628D02*
X256561731Y-139947342D01*
X256561731Y-139947342D02*
X256514112Y-140042580D01*
X256514112Y-140042580D02*
X256466493Y-140090200D01*
X256466493Y-140090200D02*
X256371255Y-140137819D01*
X256371255Y-140137819D02*
X256228398Y-140137819D01*
X257418874Y-139471152D02*
X257418874Y-140137819D01*
X256990303Y-139471152D02*
X256990303Y-139994961D01*
X256990303Y-139994961D02*
X257037922Y-140090200D01*
X257037922Y-140090200D02*
X257133160Y-140137819D01*
X257133160Y-140137819D02*
X257276017Y-140137819D01*
X257276017Y-140137819D02*
X257371255Y-140090200D01*
X257371255Y-140090200D02*
X257418874Y-140042580D01*
X257895065Y-139471152D02*
X257895065Y-140471152D01*
X257895065Y-139518771D02*
X257990303Y-139471152D01*
X257990303Y-139471152D02*
X258180779Y-139471152D01*
X258180779Y-139471152D02*
X258276017Y-139518771D01*
X258276017Y-139518771D02*
X258323636Y-139566390D01*
X258323636Y-139566390D02*
X258371255Y-139661628D01*
X258371255Y-139661628D02*
X258371255Y-139947342D01*
X258371255Y-139947342D02*
X258323636Y-140042580D01*
X258323636Y-140042580D02*
X258276017Y-140090200D01*
X258276017Y-140090200D02*
X258180779Y-140137819D01*
X258180779Y-140137819D02*
X257990303Y-140137819D01*
X257990303Y-140137819D02*
X257895065Y-140090200D01*
X258942684Y-140137819D02*
X258847446Y-140090200D01*
X258847446Y-140090200D02*
X258799827Y-139994961D01*
X258799827Y-139994961D02*
X258799827Y-139137819D01*
X259323637Y-140137819D02*
X259323637Y-139471152D01*
X259323637Y-139137819D02*
X259276018Y-139185438D01*
X259276018Y-139185438D02*
X259323637Y-139233057D01*
X259323637Y-139233057D02*
X259371256Y-139185438D01*
X259371256Y-139185438D02*
X259323637Y-139137819D01*
X259323637Y-139137819D02*
X259323637Y-139233057D01*
X259799827Y-139471152D02*
X259799827Y-140137819D01*
X259799827Y-139566390D02*
X259847446Y-139518771D01*
X259847446Y-139518771D02*
X259942684Y-139471152D01*
X259942684Y-139471152D02*
X260085541Y-139471152D01*
X260085541Y-139471152D02*
X260180779Y-139518771D01*
X260180779Y-139518771D02*
X260228398Y-139614009D01*
X260228398Y-139614009D02*
X260228398Y-140137819D01*
X261133160Y-139471152D02*
X261133160Y-140280676D01*
X261133160Y-140280676D02*
X261085541Y-140375914D01*
X261085541Y-140375914D02*
X261037922Y-140423533D01*
X261037922Y-140423533D02*
X260942684Y-140471152D01*
X260942684Y-140471152D02*
X260799827Y-140471152D01*
X260799827Y-140471152D02*
X260704589Y-140423533D01*
X261133160Y-140090200D02*
X261037922Y-140137819D01*
X261037922Y-140137819D02*
X260847446Y-140137819D01*
X260847446Y-140137819D02*
X260752208Y-140090200D01*
X260752208Y-140090200D02*
X260704589Y-140042580D01*
X260704589Y-140042580D02*
X260656970Y-139947342D01*
X260656970Y-139947342D02*
X260656970Y-139661628D01*
X260656970Y-139661628D02*
X260704589Y-139566390D01*
X260704589Y-139566390D02*
X260752208Y-139518771D01*
X260752208Y-139518771D02*
X260847446Y-139471152D01*
X260847446Y-139471152D02*
X261037922Y-139471152D01*
X261037922Y-139471152D02*
X261133160Y-139518771D01*
X255975303Y-98884819D02*
X255927684Y-98884819D01*
X255927684Y-98884819D02*
X255832445Y-98837200D01*
X255832445Y-98837200D02*
X255689588Y-98694342D01*
X255689588Y-98694342D02*
X255451493Y-98408628D01*
X255451493Y-98408628D02*
X255356255Y-98265771D01*
X255356255Y-98265771D02*
X255308636Y-98122914D01*
X255308636Y-98122914D02*
X255308636Y-98027676D01*
X255308636Y-98027676D02*
X255356255Y-97932438D01*
X255356255Y-97932438D02*
X255451493Y-97884819D01*
X255451493Y-97884819D02*
X255499112Y-97884819D01*
X255499112Y-97884819D02*
X255594350Y-97932438D01*
X255594350Y-97932438D02*
X255641969Y-98027676D01*
X255641969Y-98027676D02*
X255641969Y-98075295D01*
X255641969Y-98075295D02*
X255594350Y-98170533D01*
X255594350Y-98170533D02*
X255546731Y-98218152D01*
X255546731Y-98218152D02*
X255261017Y-98408628D01*
X255261017Y-98408628D02*
X255213398Y-98456247D01*
X255213398Y-98456247D02*
X255165779Y-98551485D01*
X255165779Y-98551485D02*
X255165779Y-98694342D01*
X255165779Y-98694342D02*
X255213398Y-98789580D01*
X255213398Y-98789580D02*
X255261017Y-98837200D01*
X255261017Y-98837200D02*
X255356255Y-98884819D01*
X255356255Y-98884819D02*
X255499112Y-98884819D01*
X255499112Y-98884819D02*
X255594350Y-98837200D01*
X255594350Y-98837200D02*
X255641969Y-98789580D01*
X255641969Y-98789580D02*
X255784826Y-98599104D01*
X255784826Y-98599104D02*
X255832445Y-98456247D01*
X255832445Y-98456247D02*
X255832445Y-98361009D01*
X190398819Y-141763220D02*
X189398819Y-141763220D01*
X189398819Y-141763220D02*
X190113104Y-141429887D01*
X190113104Y-141429887D02*
X189398819Y-141096554D01*
X189398819Y-141096554D02*
X190398819Y-141096554D01*
X190303580Y-140048935D02*
X190351200Y-140096554D01*
X190351200Y-140096554D02*
X190398819Y-140239411D01*
X190398819Y-140239411D02*
X190398819Y-140334649D01*
X190398819Y-140334649D02*
X190351200Y-140477506D01*
X190351200Y-140477506D02*
X190255961Y-140572744D01*
X190255961Y-140572744D02*
X190160723Y-140620363D01*
X190160723Y-140620363D02*
X189970247Y-140667982D01*
X189970247Y-140667982D02*
X189827390Y-140667982D01*
X189827390Y-140667982D02*
X189636914Y-140620363D01*
X189636914Y-140620363D02*
X189541676Y-140572744D01*
X189541676Y-140572744D02*
X189446438Y-140477506D01*
X189446438Y-140477506D02*
X189398819Y-140334649D01*
X189398819Y-140334649D02*
X189398819Y-140239411D01*
X189398819Y-140239411D02*
X189446438Y-140096554D01*
X189446438Y-140096554D02*
X189494057Y-140048935D01*
X190398819Y-139620363D02*
X189398819Y-139620363D01*
X189398819Y-139620363D02*
X189398819Y-139239411D01*
X189398819Y-139239411D02*
X189446438Y-139144173D01*
X189446438Y-139144173D02*
X189494057Y-139096554D01*
X189494057Y-139096554D02*
X189589295Y-139048935D01*
X189589295Y-139048935D02*
X189732152Y-139048935D01*
X189732152Y-139048935D02*
X189827390Y-139096554D01*
X189827390Y-139096554D02*
X189875009Y-139144173D01*
X189875009Y-139144173D02*
X189922628Y-139239411D01*
X189922628Y-139239411D02*
X189922628Y-139620363D01*
X189494057Y-138667982D02*
X189446438Y-138620363D01*
X189446438Y-138620363D02*
X189398819Y-138525125D01*
X189398819Y-138525125D02*
X189398819Y-138287030D01*
X189398819Y-138287030D02*
X189446438Y-138191792D01*
X189446438Y-138191792D02*
X189494057Y-138144173D01*
X189494057Y-138144173D02*
X189589295Y-138096554D01*
X189589295Y-138096554D02*
X189684533Y-138096554D01*
X189684533Y-138096554D02*
X189827390Y-138144173D01*
X189827390Y-138144173D02*
X190398819Y-138715601D01*
X190398819Y-138715601D02*
X190398819Y-138096554D01*
X189732152Y-137048934D02*
X189732152Y-136667982D01*
X190398819Y-136906077D02*
X189541676Y-136906077D01*
X189541676Y-136906077D02*
X189446438Y-136858458D01*
X189446438Y-136858458D02*
X189398819Y-136763220D01*
X189398819Y-136763220D02*
X189398819Y-136667982D01*
X190351200Y-135953696D02*
X190398819Y-136048934D01*
X190398819Y-136048934D02*
X190398819Y-136239410D01*
X190398819Y-136239410D02*
X190351200Y-136334648D01*
X190351200Y-136334648D02*
X190255961Y-136382267D01*
X190255961Y-136382267D02*
X189875009Y-136382267D01*
X189875009Y-136382267D02*
X189779771Y-136334648D01*
X189779771Y-136334648D02*
X189732152Y-136239410D01*
X189732152Y-136239410D02*
X189732152Y-136048934D01*
X189732152Y-136048934D02*
X189779771Y-135953696D01*
X189779771Y-135953696D02*
X189875009Y-135906077D01*
X189875009Y-135906077D02*
X189970247Y-135906077D01*
X189970247Y-135906077D02*
X190065485Y-136382267D01*
X190351200Y-135096553D02*
X190398819Y-135191791D01*
X190398819Y-135191791D02*
X190398819Y-135382267D01*
X190398819Y-135382267D02*
X190351200Y-135477505D01*
X190351200Y-135477505D02*
X190255961Y-135525124D01*
X190255961Y-135525124D02*
X189875009Y-135525124D01*
X189875009Y-135525124D02*
X189779771Y-135477505D01*
X189779771Y-135477505D02*
X189732152Y-135382267D01*
X189732152Y-135382267D02*
X189732152Y-135191791D01*
X189732152Y-135191791D02*
X189779771Y-135096553D01*
X189779771Y-135096553D02*
X189875009Y-135048934D01*
X189875009Y-135048934D02*
X189970247Y-135048934D01*
X189970247Y-135048934D02*
X190065485Y-135525124D01*
X190398819Y-134191791D02*
X189398819Y-134191791D01*
X190351200Y-134191791D02*
X190398819Y-134287029D01*
X190398819Y-134287029D02*
X190398819Y-134477505D01*
X190398819Y-134477505D02*
X190351200Y-134572743D01*
X190351200Y-134572743D02*
X190303580Y-134620362D01*
X190303580Y-134620362D02*
X190208342Y-134667981D01*
X190208342Y-134667981D02*
X189922628Y-134667981D01*
X189922628Y-134667981D02*
X189827390Y-134620362D01*
X189827390Y-134620362D02*
X189779771Y-134572743D01*
X189779771Y-134572743D02*
X189732152Y-134477505D01*
X189732152Y-134477505D02*
X189732152Y-134287029D01*
X189732152Y-134287029D02*
X189779771Y-134191791D01*
X79408303Y-100043819D02*
X79360684Y-100043819D01*
X79360684Y-100043819D02*
X79265445Y-99996200D01*
X79265445Y-99996200D02*
X79122588Y-99853342D01*
X79122588Y-99853342D02*
X78884493Y-99567628D01*
X78884493Y-99567628D02*
X78789255Y-99424771D01*
X78789255Y-99424771D02*
X78741636Y-99281914D01*
X78741636Y-99281914D02*
X78741636Y-99186676D01*
X78741636Y-99186676D02*
X78789255Y-99091438D01*
X78789255Y-99091438D02*
X78884493Y-99043819D01*
X78884493Y-99043819D02*
X78932112Y-99043819D01*
X78932112Y-99043819D02*
X79027350Y-99091438D01*
X79027350Y-99091438D02*
X79074969Y-99186676D01*
X79074969Y-99186676D02*
X79074969Y-99234295D01*
X79074969Y-99234295D02*
X79027350Y-99329533D01*
X79027350Y-99329533D02*
X78979731Y-99377152D01*
X78979731Y-99377152D02*
X78694017Y-99567628D01*
X78694017Y-99567628D02*
X78646398Y-99615247D01*
X78646398Y-99615247D02*
X78598779Y-99710485D01*
X78598779Y-99710485D02*
X78598779Y-99853342D01*
X78598779Y-99853342D02*
X78646398Y-99948580D01*
X78646398Y-99948580D02*
X78694017Y-99996200D01*
X78694017Y-99996200D02*
X78789255Y-100043819D01*
X78789255Y-100043819D02*
X78932112Y-100043819D01*
X78932112Y-100043819D02*
X79027350Y-99996200D01*
X79027350Y-99996200D02*
X79074969Y-99948580D01*
X79074969Y-99948580D02*
X79217826Y-99758104D01*
X79217826Y-99758104D02*
X79265445Y-99615247D01*
X79265445Y-99615247D02*
X79265445Y-99520009D01*
X170981819Y-142068220D02*
X169981819Y-142068220D01*
X169981819Y-142068220D02*
X170696104Y-141734887D01*
X170696104Y-141734887D02*
X169981819Y-141401554D01*
X169981819Y-141401554D02*
X170981819Y-141401554D01*
X170886580Y-140353935D02*
X170934200Y-140401554D01*
X170934200Y-140401554D02*
X170981819Y-140544411D01*
X170981819Y-140544411D02*
X170981819Y-140639649D01*
X170981819Y-140639649D02*
X170934200Y-140782506D01*
X170934200Y-140782506D02*
X170838961Y-140877744D01*
X170838961Y-140877744D02*
X170743723Y-140925363D01*
X170743723Y-140925363D02*
X170553247Y-140972982D01*
X170553247Y-140972982D02*
X170410390Y-140972982D01*
X170410390Y-140972982D02*
X170219914Y-140925363D01*
X170219914Y-140925363D02*
X170124676Y-140877744D01*
X170124676Y-140877744D02*
X170029438Y-140782506D01*
X170029438Y-140782506D02*
X169981819Y-140639649D01*
X169981819Y-140639649D02*
X169981819Y-140544411D01*
X169981819Y-140544411D02*
X170029438Y-140401554D01*
X170029438Y-140401554D02*
X170077057Y-140353935D01*
X170981819Y-139925363D02*
X169981819Y-139925363D01*
X169981819Y-139925363D02*
X169981819Y-139544411D01*
X169981819Y-139544411D02*
X170029438Y-139449173D01*
X170029438Y-139449173D02*
X170077057Y-139401554D01*
X170077057Y-139401554D02*
X170172295Y-139353935D01*
X170172295Y-139353935D02*
X170315152Y-139353935D01*
X170315152Y-139353935D02*
X170410390Y-139401554D01*
X170410390Y-139401554D02*
X170458009Y-139449173D01*
X170458009Y-139449173D02*
X170505628Y-139544411D01*
X170505628Y-139544411D02*
X170505628Y-139925363D01*
X170077057Y-138972982D02*
X170029438Y-138925363D01*
X170029438Y-138925363D02*
X169981819Y-138830125D01*
X169981819Y-138830125D02*
X169981819Y-138592030D01*
X169981819Y-138592030D02*
X170029438Y-138496792D01*
X170029438Y-138496792D02*
X170077057Y-138449173D01*
X170077057Y-138449173D02*
X170172295Y-138401554D01*
X170172295Y-138401554D02*
X170267533Y-138401554D01*
X170267533Y-138401554D02*
X170410390Y-138449173D01*
X170410390Y-138449173D02*
X170981819Y-139020601D01*
X170981819Y-139020601D02*
X170981819Y-138401554D01*
X170934200Y-137258696D02*
X170981819Y-137163458D01*
X170981819Y-137163458D02*
X170981819Y-136972982D01*
X170981819Y-136972982D02*
X170934200Y-136877744D01*
X170934200Y-136877744D02*
X170838961Y-136830125D01*
X170838961Y-136830125D02*
X170791342Y-136830125D01*
X170791342Y-136830125D02*
X170696104Y-136877744D01*
X170696104Y-136877744D02*
X170648485Y-136972982D01*
X170648485Y-136972982D02*
X170648485Y-137115839D01*
X170648485Y-137115839D02*
X170600866Y-137211077D01*
X170600866Y-137211077D02*
X170505628Y-137258696D01*
X170505628Y-137258696D02*
X170458009Y-137258696D01*
X170458009Y-137258696D02*
X170362771Y-137211077D01*
X170362771Y-137211077D02*
X170315152Y-137115839D01*
X170315152Y-137115839D02*
X170315152Y-136972982D01*
X170315152Y-136972982D02*
X170362771Y-136877744D01*
X170315152Y-135972982D02*
X170981819Y-135972982D01*
X170315152Y-136401553D02*
X170838961Y-136401553D01*
X170838961Y-136401553D02*
X170934200Y-136353934D01*
X170934200Y-136353934D02*
X170981819Y-136258696D01*
X170981819Y-136258696D02*
X170981819Y-136115839D01*
X170981819Y-136115839D02*
X170934200Y-136020601D01*
X170934200Y-136020601D02*
X170886580Y-135972982D01*
X170315152Y-135496791D02*
X171315152Y-135496791D01*
X170362771Y-135496791D02*
X170315152Y-135401553D01*
X170315152Y-135401553D02*
X170315152Y-135211077D01*
X170315152Y-135211077D02*
X170362771Y-135115839D01*
X170362771Y-135115839D02*
X170410390Y-135068220D01*
X170410390Y-135068220D02*
X170505628Y-135020601D01*
X170505628Y-135020601D02*
X170791342Y-135020601D01*
X170791342Y-135020601D02*
X170886580Y-135068220D01*
X170886580Y-135068220D02*
X170934200Y-135115839D01*
X170934200Y-135115839D02*
X170981819Y-135211077D01*
X170981819Y-135211077D02*
X170981819Y-135401553D01*
X170981819Y-135401553D02*
X170934200Y-135496791D01*
X170315152Y-134592029D02*
X171315152Y-134592029D01*
X170362771Y-134592029D02*
X170315152Y-134496791D01*
X170315152Y-134496791D02*
X170315152Y-134306315D01*
X170315152Y-134306315D02*
X170362771Y-134211077D01*
X170362771Y-134211077D02*
X170410390Y-134163458D01*
X170410390Y-134163458D02*
X170505628Y-134115839D01*
X170505628Y-134115839D02*
X170791342Y-134115839D01*
X170791342Y-134115839D02*
X170886580Y-134163458D01*
X170886580Y-134163458D02*
X170934200Y-134211077D01*
X170934200Y-134211077D02*
X170981819Y-134306315D01*
X170981819Y-134306315D02*
X170981819Y-134496791D01*
X170981819Y-134496791D02*
X170934200Y-134592029D01*
X170981819Y-133544410D02*
X170934200Y-133639648D01*
X170934200Y-133639648D02*
X170838961Y-133687267D01*
X170838961Y-133687267D02*
X169981819Y-133687267D01*
X170315152Y-133258695D02*
X170981819Y-133020600D01*
X170315152Y-132782505D02*
X170981819Y-133020600D01*
X170981819Y-133020600D02*
X171219914Y-133115838D01*
X171219914Y-133115838D02*
X171267533Y-133163457D01*
X171267533Y-133163457D02*
X171315152Y-133258695D01*
X42752104Y-117711839D02*
X42752104Y-117235649D01*
X43037819Y-117807077D02*
X42037819Y-117473744D01*
X42037819Y-117473744D02*
X43037819Y-117140411D01*
X42942580Y-116235649D02*
X42990200Y-116283268D01*
X42990200Y-116283268D02*
X43037819Y-116426125D01*
X43037819Y-116426125D02*
X43037819Y-116521363D01*
X43037819Y-116521363D02*
X42990200Y-116664220D01*
X42990200Y-116664220D02*
X42894961Y-116759458D01*
X42894961Y-116759458D02*
X42799723Y-116807077D01*
X42799723Y-116807077D02*
X42609247Y-116854696D01*
X42609247Y-116854696D02*
X42466390Y-116854696D01*
X42466390Y-116854696D02*
X42275914Y-116807077D01*
X42275914Y-116807077D02*
X42180676Y-116759458D01*
X42180676Y-116759458D02*
X42085438Y-116664220D01*
X42085438Y-116664220D02*
X42037819Y-116521363D01*
X42037819Y-116521363D02*
X42037819Y-116426125D01*
X42037819Y-116426125D02*
X42085438Y-116283268D01*
X42085438Y-116283268D02*
X42133057Y-116235649D01*
X43037819Y-115807077D02*
X42037819Y-115807077D01*
X42037819Y-115807077D02*
X42037819Y-115568982D01*
X42037819Y-115568982D02*
X42085438Y-115426125D01*
X42085438Y-115426125D02*
X42180676Y-115330887D01*
X42180676Y-115330887D02*
X42275914Y-115283268D01*
X42275914Y-115283268D02*
X42466390Y-115235649D01*
X42466390Y-115235649D02*
X42609247Y-115235649D01*
X42609247Y-115235649D02*
X42799723Y-115283268D01*
X42799723Y-115283268D02*
X42894961Y-115330887D01*
X42894961Y-115330887D02*
X42990200Y-115426125D01*
X42990200Y-115426125D02*
X43037819Y-115568982D01*
X43037819Y-115568982D02*
X43037819Y-115807077D01*
X42942580Y-114235649D02*
X42990200Y-114283268D01*
X42990200Y-114283268D02*
X43037819Y-114426125D01*
X43037819Y-114426125D02*
X43037819Y-114521363D01*
X43037819Y-114521363D02*
X42990200Y-114664220D01*
X42990200Y-114664220D02*
X42894961Y-114759458D01*
X42894961Y-114759458D02*
X42799723Y-114807077D01*
X42799723Y-114807077D02*
X42609247Y-114854696D01*
X42609247Y-114854696D02*
X42466390Y-114854696D01*
X42466390Y-114854696D02*
X42275914Y-114807077D01*
X42275914Y-114807077D02*
X42180676Y-114759458D01*
X42180676Y-114759458D02*
X42085438Y-114664220D01*
X42085438Y-114664220D02*
X42037819Y-114521363D01*
X42037819Y-114521363D02*
X42037819Y-114426125D01*
X42037819Y-114426125D02*
X42085438Y-114283268D01*
X42085438Y-114283268D02*
X42133057Y-114235649D01*
X42656866Y-113807077D02*
X42656866Y-113045173D01*
X42371152Y-112140411D02*
X43180676Y-112140411D01*
X43180676Y-112140411D02*
X43275914Y-112188030D01*
X43275914Y-112188030D02*
X43323533Y-112235649D01*
X43323533Y-112235649D02*
X43371152Y-112330887D01*
X43371152Y-112330887D02*
X43371152Y-112473744D01*
X43371152Y-112473744D02*
X43323533Y-112568982D01*
X42990200Y-112140411D02*
X43037819Y-112235649D01*
X43037819Y-112235649D02*
X43037819Y-112426125D01*
X43037819Y-112426125D02*
X42990200Y-112521363D01*
X42990200Y-112521363D02*
X42942580Y-112568982D01*
X42942580Y-112568982D02*
X42847342Y-112616601D01*
X42847342Y-112616601D02*
X42561628Y-112616601D01*
X42561628Y-112616601D02*
X42466390Y-112568982D01*
X42466390Y-112568982D02*
X42418771Y-112521363D01*
X42418771Y-112521363D02*
X42371152Y-112426125D01*
X42371152Y-112426125D02*
X42371152Y-112235649D01*
X42371152Y-112235649D02*
X42418771Y-112140411D01*
X42371152Y-111664220D02*
X43037819Y-111664220D01*
X42466390Y-111664220D02*
X42418771Y-111616601D01*
X42418771Y-111616601D02*
X42371152Y-111521363D01*
X42371152Y-111521363D02*
X42371152Y-111378506D01*
X42371152Y-111378506D02*
X42418771Y-111283268D01*
X42418771Y-111283268D02*
X42514009Y-111235649D01*
X42514009Y-111235649D02*
X43037819Y-111235649D01*
X43037819Y-110330887D02*
X42037819Y-110330887D01*
X42990200Y-110330887D02*
X43037819Y-110426125D01*
X43037819Y-110426125D02*
X43037819Y-110616601D01*
X43037819Y-110616601D02*
X42990200Y-110711839D01*
X42990200Y-110711839D02*
X42942580Y-110759458D01*
X42942580Y-110759458D02*
X42847342Y-110807077D01*
X42847342Y-110807077D02*
X42561628Y-110807077D01*
X42561628Y-110807077D02*
X42466390Y-110759458D01*
X42466390Y-110759458D02*
X42418771Y-110711839D01*
X42418771Y-110711839D02*
X42371152Y-110616601D01*
X42371152Y-110616601D02*
X42371152Y-110426125D01*
X42371152Y-110426125D02*
X42418771Y-110330887D01*
X42656866Y-109854696D02*
X42656866Y-109092792D01*
X42990200Y-108188030D02*
X43037819Y-108283268D01*
X43037819Y-108283268D02*
X43037819Y-108473744D01*
X43037819Y-108473744D02*
X42990200Y-108568982D01*
X42990200Y-108568982D02*
X42942580Y-108616601D01*
X42942580Y-108616601D02*
X42847342Y-108664220D01*
X42847342Y-108664220D02*
X42561628Y-108664220D01*
X42561628Y-108664220D02*
X42466390Y-108616601D01*
X42466390Y-108616601D02*
X42418771Y-108568982D01*
X42418771Y-108568982D02*
X42371152Y-108473744D01*
X42371152Y-108473744D02*
X42371152Y-108283268D01*
X42371152Y-108283268D02*
X42418771Y-108188030D01*
X43037819Y-107616601D02*
X42990200Y-107711839D01*
X42990200Y-107711839D02*
X42942580Y-107759458D01*
X42942580Y-107759458D02*
X42847342Y-107807077D01*
X42847342Y-107807077D02*
X42561628Y-107807077D01*
X42561628Y-107807077D02*
X42466390Y-107759458D01*
X42466390Y-107759458D02*
X42418771Y-107711839D01*
X42418771Y-107711839D02*
X42371152Y-107616601D01*
X42371152Y-107616601D02*
X42371152Y-107473744D01*
X42371152Y-107473744D02*
X42418771Y-107378506D01*
X42418771Y-107378506D02*
X42466390Y-107330887D01*
X42466390Y-107330887D02*
X42561628Y-107283268D01*
X42561628Y-107283268D02*
X42847342Y-107283268D01*
X42847342Y-107283268D02*
X42942580Y-107330887D01*
X42942580Y-107330887D02*
X42990200Y-107378506D01*
X42990200Y-107378506D02*
X43037819Y-107473744D01*
X43037819Y-107473744D02*
X43037819Y-107616601D01*
X42371152Y-106426125D02*
X43037819Y-106426125D01*
X42371152Y-106854696D02*
X42894961Y-106854696D01*
X42894961Y-106854696D02*
X42990200Y-106807077D01*
X42990200Y-106807077D02*
X43037819Y-106711839D01*
X43037819Y-106711839D02*
X43037819Y-106568982D01*
X43037819Y-106568982D02*
X42990200Y-106473744D01*
X42990200Y-106473744D02*
X42942580Y-106426125D01*
X42371152Y-105949934D02*
X43371152Y-105949934D01*
X42418771Y-105949934D02*
X42371152Y-105854696D01*
X42371152Y-105854696D02*
X42371152Y-105664220D01*
X42371152Y-105664220D02*
X42418771Y-105568982D01*
X42418771Y-105568982D02*
X42466390Y-105521363D01*
X42466390Y-105521363D02*
X42561628Y-105473744D01*
X42561628Y-105473744D02*
X42847342Y-105473744D01*
X42847342Y-105473744D02*
X42942580Y-105521363D01*
X42942580Y-105521363D02*
X42990200Y-105568982D01*
X42990200Y-105568982D02*
X43037819Y-105664220D01*
X43037819Y-105664220D02*
X43037819Y-105854696D01*
X43037819Y-105854696D02*
X42990200Y-105949934D01*
X43037819Y-104902315D02*
X42990200Y-104997553D01*
X42990200Y-104997553D02*
X42894961Y-105045172D01*
X42894961Y-105045172D02*
X42037819Y-105045172D01*
X43037819Y-104521362D02*
X42371152Y-104521362D01*
X42037819Y-104521362D02*
X42085438Y-104568981D01*
X42085438Y-104568981D02*
X42133057Y-104521362D01*
X42133057Y-104521362D02*
X42085438Y-104473743D01*
X42085438Y-104473743D02*
X42037819Y-104521362D01*
X42037819Y-104521362D02*
X42133057Y-104521362D01*
X42371152Y-104045172D02*
X43037819Y-104045172D01*
X42466390Y-104045172D02*
X42418771Y-103997553D01*
X42418771Y-103997553D02*
X42371152Y-103902315D01*
X42371152Y-103902315D02*
X42371152Y-103759458D01*
X42371152Y-103759458D02*
X42418771Y-103664220D01*
X42418771Y-103664220D02*
X42514009Y-103616601D01*
X42514009Y-103616601D02*
X43037819Y-103616601D01*
X42371152Y-102711839D02*
X43180676Y-102711839D01*
X43180676Y-102711839D02*
X43275914Y-102759458D01*
X43275914Y-102759458D02*
X43323533Y-102807077D01*
X43323533Y-102807077D02*
X43371152Y-102902315D01*
X43371152Y-102902315D02*
X43371152Y-103045172D01*
X43371152Y-103045172D02*
X43323533Y-103140410D01*
X42990200Y-102711839D02*
X43037819Y-102807077D01*
X43037819Y-102807077D02*
X43037819Y-102997553D01*
X43037819Y-102997553D02*
X42990200Y-103092791D01*
X42990200Y-103092791D02*
X42942580Y-103140410D01*
X42942580Y-103140410D02*
X42847342Y-103188029D01*
X42847342Y-103188029D02*
X42561628Y-103188029D01*
X42561628Y-103188029D02*
X42466390Y-103140410D01*
X42466390Y-103140410D02*
X42418771Y-103092791D01*
X42418771Y-103092791D02*
X42371152Y-102997553D01*
X42371152Y-102997553D02*
X42371152Y-102807077D01*
X42371152Y-102807077D02*
X42418771Y-102711839D01*
X233443819Y-142280220D02*
X232443819Y-142280220D01*
X232443819Y-142280220D02*
X233158104Y-141946887D01*
X233158104Y-141946887D02*
X232443819Y-141613554D01*
X232443819Y-141613554D02*
X233443819Y-141613554D01*
X233348580Y-140565935D02*
X233396200Y-140613554D01*
X233396200Y-140613554D02*
X233443819Y-140756411D01*
X233443819Y-140756411D02*
X233443819Y-140851649D01*
X233443819Y-140851649D02*
X233396200Y-140994506D01*
X233396200Y-140994506D02*
X233300961Y-141089744D01*
X233300961Y-141089744D02*
X233205723Y-141137363D01*
X233205723Y-141137363D02*
X233015247Y-141184982D01*
X233015247Y-141184982D02*
X232872390Y-141184982D01*
X232872390Y-141184982D02*
X232681914Y-141137363D01*
X232681914Y-141137363D02*
X232586676Y-141089744D01*
X232586676Y-141089744D02*
X232491438Y-140994506D01*
X232491438Y-140994506D02*
X232443819Y-140851649D01*
X232443819Y-140851649D02*
X232443819Y-140756411D01*
X232443819Y-140756411D02*
X232491438Y-140613554D01*
X232491438Y-140613554D02*
X232539057Y-140565935D01*
X233443819Y-140137363D02*
X232443819Y-140137363D01*
X232443819Y-140137363D02*
X232443819Y-139756411D01*
X232443819Y-139756411D02*
X232491438Y-139661173D01*
X232491438Y-139661173D02*
X232539057Y-139613554D01*
X232539057Y-139613554D02*
X232634295Y-139565935D01*
X232634295Y-139565935D02*
X232777152Y-139565935D01*
X232777152Y-139565935D02*
X232872390Y-139613554D01*
X232872390Y-139613554D02*
X232920009Y-139661173D01*
X232920009Y-139661173D02*
X232967628Y-139756411D01*
X232967628Y-139756411D02*
X232967628Y-140137363D01*
X232539057Y-139184982D02*
X232491438Y-139137363D01*
X232491438Y-139137363D02*
X232443819Y-139042125D01*
X232443819Y-139042125D02*
X232443819Y-138804030D01*
X232443819Y-138804030D02*
X232491438Y-138708792D01*
X232491438Y-138708792D02*
X232539057Y-138661173D01*
X232539057Y-138661173D02*
X232634295Y-138613554D01*
X232634295Y-138613554D02*
X232729533Y-138613554D01*
X232729533Y-138613554D02*
X232872390Y-138661173D01*
X232872390Y-138661173D02*
X233443819Y-139232601D01*
X233443819Y-139232601D02*
X233443819Y-138613554D01*
X233443819Y-137280220D02*
X233396200Y-137375458D01*
X233396200Y-137375458D02*
X233348580Y-137423077D01*
X233348580Y-137423077D02*
X233253342Y-137470696D01*
X233253342Y-137470696D02*
X232967628Y-137470696D01*
X232967628Y-137470696D02*
X232872390Y-137423077D01*
X232872390Y-137423077D02*
X232824771Y-137375458D01*
X232824771Y-137375458D02*
X232777152Y-137280220D01*
X232777152Y-137280220D02*
X232777152Y-137137363D01*
X232777152Y-137137363D02*
X232824771Y-137042125D01*
X232824771Y-137042125D02*
X232872390Y-136994506D01*
X232872390Y-136994506D02*
X232967628Y-136946887D01*
X232967628Y-136946887D02*
X233253342Y-136946887D01*
X233253342Y-136946887D02*
X233348580Y-136994506D01*
X233348580Y-136994506D02*
X233396200Y-137042125D01*
X233396200Y-137042125D02*
X233443819Y-137137363D01*
X233443819Y-137137363D02*
X233443819Y-137280220D01*
X232777152Y-136089744D02*
X233443819Y-136089744D01*
X232777152Y-136518315D02*
X233300961Y-136518315D01*
X233300961Y-136518315D02*
X233396200Y-136470696D01*
X233396200Y-136470696D02*
X233443819Y-136375458D01*
X233443819Y-136375458D02*
X233443819Y-136232601D01*
X233443819Y-136232601D02*
X233396200Y-136137363D01*
X233396200Y-136137363D02*
X233348580Y-136089744D01*
X232777152Y-135756410D02*
X232777152Y-135375458D01*
X232443819Y-135613553D02*
X233300961Y-135613553D01*
X233300961Y-135613553D02*
X233396200Y-135565934D01*
X233396200Y-135565934D02*
X233443819Y-135470696D01*
X233443819Y-135470696D02*
X233443819Y-135375458D01*
X232777152Y-135042124D02*
X233777152Y-135042124D01*
X232824771Y-135042124D02*
X232777152Y-134946886D01*
X232777152Y-134946886D02*
X232777152Y-134756410D01*
X232777152Y-134756410D02*
X232824771Y-134661172D01*
X232824771Y-134661172D02*
X232872390Y-134613553D01*
X232872390Y-134613553D02*
X232967628Y-134565934D01*
X232967628Y-134565934D02*
X233253342Y-134565934D01*
X233253342Y-134565934D02*
X233348580Y-134613553D01*
X233348580Y-134613553D02*
X233396200Y-134661172D01*
X233396200Y-134661172D02*
X233443819Y-134756410D01*
X233443819Y-134756410D02*
X233443819Y-134946886D01*
X233443819Y-134946886D02*
X233396200Y-135042124D01*
X232777152Y-133708791D02*
X233443819Y-133708791D01*
X232777152Y-134137362D02*
X233300961Y-134137362D01*
X233300961Y-134137362D02*
X233396200Y-134089743D01*
X233396200Y-134089743D02*
X233443819Y-133994505D01*
X233443819Y-133994505D02*
X233443819Y-133851648D01*
X233443819Y-133851648D02*
X233396200Y-133756410D01*
X233396200Y-133756410D02*
X233348580Y-133708791D01*
X232777152Y-133375457D02*
X232777152Y-132994505D01*
X232443819Y-133232600D02*
X233300961Y-133232600D01*
X233300961Y-133232600D02*
X233396200Y-133184981D01*
X233396200Y-133184981D02*
X233443819Y-133089743D01*
X233443819Y-133089743D02*
X233443819Y-132994505D01*
X64354819Y-140379220D02*
X63354819Y-140379220D01*
X63354819Y-140379220D02*
X63354819Y-139998268D01*
X63354819Y-139998268D02*
X63402438Y-139903030D01*
X63402438Y-139903030D02*
X63450057Y-139855411D01*
X63450057Y-139855411D02*
X63545295Y-139807792D01*
X63545295Y-139807792D02*
X63688152Y-139807792D01*
X63688152Y-139807792D02*
X63783390Y-139855411D01*
X63783390Y-139855411D02*
X63831009Y-139903030D01*
X63831009Y-139903030D02*
X63878628Y-139998268D01*
X63878628Y-139998268D02*
X63878628Y-140379220D01*
X64259580Y-139379220D02*
X64307200Y-139331601D01*
X64307200Y-139331601D02*
X64354819Y-139379220D01*
X64354819Y-139379220D02*
X64307200Y-139426839D01*
X64307200Y-139426839D02*
X64259580Y-139379220D01*
X64259580Y-139379220D02*
X64354819Y-139379220D01*
X64259580Y-138331602D02*
X64307200Y-138379221D01*
X64307200Y-138379221D02*
X64354819Y-138522078D01*
X64354819Y-138522078D02*
X64354819Y-138617316D01*
X64354819Y-138617316D02*
X64307200Y-138760173D01*
X64307200Y-138760173D02*
X64211961Y-138855411D01*
X64211961Y-138855411D02*
X64116723Y-138903030D01*
X64116723Y-138903030D02*
X63926247Y-138950649D01*
X63926247Y-138950649D02*
X63783390Y-138950649D01*
X63783390Y-138950649D02*
X63592914Y-138903030D01*
X63592914Y-138903030D02*
X63497676Y-138855411D01*
X63497676Y-138855411D02*
X63402438Y-138760173D01*
X63402438Y-138760173D02*
X63354819Y-138617316D01*
X63354819Y-138617316D02*
X63354819Y-138522078D01*
X63354819Y-138522078D02*
X63402438Y-138379221D01*
X63402438Y-138379221D02*
X63450057Y-138331602D01*
X64259580Y-137903030D02*
X64307200Y-137855411D01*
X64307200Y-137855411D02*
X64354819Y-137903030D01*
X64354819Y-137903030D02*
X64307200Y-137950649D01*
X64307200Y-137950649D02*
X64259580Y-137903030D01*
X64259580Y-137903030D02*
X64354819Y-137903030D01*
X63688152Y-136807792D02*
X63688152Y-136426840D01*
X64354819Y-136664935D02*
X63497676Y-136664935D01*
X63497676Y-136664935D02*
X63402438Y-136617316D01*
X63402438Y-136617316D02*
X63354819Y-136522078D01*
X63354819Y-136522078D02*
X63354819Y-136426840D01*
X64307200Y-135712554D02*
X64354819Y-135807792D01*
X64354819Y-135807792D02*
X64354819Y-135998268D01*
X64354819Y-135998268D02*
X64307200Y-136093506D01*
X64307200Y-136093506D02*
X64211961Y-136141125D01*
X64211961Y-136141125D02*
X63831009Y-136141125D01*
X63831009Y-136141125D02*
X63735771Y-136093506D01*
X63735771Y-136093506D02*
X63688152Y-135998268D01*
X63688152Y-135998268D02*
X63688152Y-135807792D01*
X63688152Y-135807792D02*
X63735771Y-135712554D01*
X63735771Y-135712554D02*
X63831009Y-135664935D01*
X63831009Y-135664935D02*
X63926247Y-135664935D01*
X63926247Y-135664935D02*
X64021485Y-136141125D01*
X64307200Y-134855411D02*
X64354819Y-134950649D01*
X64354819Y-134950649D02*
X64354819Y-135141125D01*
X64354819Y-135141125D02*
X64307200Y-135236363D01*
X64307200Y-135236363D02*
X64211961Y-135283982D01*
X64211961Y-135283982D02*
X63831009Y-135283982D01*
X63831009Y-135283982D02*
X63735771Y-135236363D01*
X63735771Y-135236363D02*
X63688152Y-135141125D01*
X63688152Y-135141125D02*
X63688152Y-134950649D01*
X63688152Y-134950649D02*
X63735771Y-134855411D01*
X63735771Y-134855411D02*
X63831009Y-134807792D01*
X63831009Y-134807792D02*
X63926247Y-134807792D01*
X63926247Y-134807792D02*
X64021485Y-135283982D01*
X64354819Y-133950649D02*
X63354819Y-133950649D01*
X64307200Y-133950649D02*
X64354819Y-134045887D01*
X64354819Y-134045887D02*
X64354819Y-134236363D01*
X64354819Y-134236363D02*
X64307200Y-134331601D01*
X64307200Y-134331601D02*
X64259580Y-134379220D01*
X64259580Y-134379220D02*
X64164342Y-134426839D01*
X64164342Y-134426839D02*
X63878628Y-134426839D01*
X63878628Y-134426839D02*
X63783390Y-134379220D01*
X63783390Y-134379220D02*
X63735771Y-134331601D01*
X63735771Y-134331601D02*
X63688152Y-134236363D01*
X63688152Y-134236363D02*
X63688152Y-134045887D01*
X63688152Y-134045887D02*
X63735771Y-133950649D01*
X61359933Y-121388819D02*
X61026600Y-120912628D01*
X60788505Y-121388819D02*
X60788505Y-120388819D01*
X60788505Y-120388819D02*
X61169457Y-120388819D01*
X61169457Y-120388819D02*
X61264695Y-120436438D01*
X61264695Y-120436438D02*
X61312314Y-120484057D01*
X61312314Y-120484057D02*
X61359933Y-120579295D01*
X61359933Y-120579295D02*
X61359933Y-120722152D01*
X61359933Y-120722152D02*
X61312314Y-120817390D01*
X61312314Y-120817390D02*
X61264695Y-120865009D01*
X61264695Y-120865009D02*
X61169457Y-120912628D01*
X61169457Y-120912628D02*
X60788505Y-120912628D01*
X61693267Y-120388819D02*
X62312314Y-120388819D01*
X62312314Y-120388819D02*
X61978981Y-120769771D01*
X61978981Y-120769771D02*
X62121838Y-120769771D01*
X62121838Y-120769771D02*
X62217076Y-120817390D01*
X62217076Y-120817390D02*
X62264695Y-120865009D01*
X62264695Y-120865009D02*
X62312314Y-120960247D01*
X62312314Y-120960247D02*
X62312314Y-121198342D01*
X62312314Y-121198342D02*
X62264695Y-121293580D01*
X62264695Y-121293580D02*
X62217076Y-121341200D01*
X62217076Y-121341200D02*
X62121838Y-121388819D01*
X62121838Y-121388819D02*
X61836124Y-121388819D01*
X61836124Y-121388819D02*
X61740886Y-121341200D01*
X61740886Y-121341200D02*
X61693267Y-121293580D01*
X131147580Y-132722666D02*
X131195200Y-132770285D01*
X131195200Y-132770285D02*
X131242819Y-132913142D01*
X131242819Y-132913142D02*
X131242819Y-133008380D01*
X131242819Y-133008380D02*
X131195200Y-133151237D01*
X131195200Y-133151237D02*
X131099961Y-133246475D01*
X131099961Y-133246475D02*
X131004723Y-133294094D01*
X131004723Y-133294094D02*
X130814247Y-133341713D01*
X130814247Y-133341713D02*
X130671390Y-133341713D01*
X130671390Y-133341713D02*
X130480914Y-133294094D01*
X130480914Y-133294094D02*
X130385676Y-133246475D01*
X130385676Y-133246475D02*
X130290438Y-133151237D01*
X130290438Y-133151237D02*
X130242819Y-133008380D01*
X130242819Y-133008380D02*
X130242819Y-132913142D01*
X130242819Y-132913142D02*
X130290438Y-132770285D01*
X130290438Y-132770285D02*
X130338057Y-132722666D01*
X130242819Y-131817904D02*
X130242819Y-132294094D01*
X130242819Y-132294094D02*
X130719009Y-132341713D01*
X130719009Y-132341713D02*
X130671390Y-132294094D01*
X130671390Y-132294094D02*
X130623771Y-132198856D01*
X130623771Y-132198856D02*
X130623771Y-131960761D01*
X130623771Y-131960761D02*
X130671390Y-131865523D01*
X130671390Y-131865523D02*
X130719009Y-131817904D01*
X130719009Y-131817904D02*
X130814247Y-131770285D01*
X130814247Y-131770285D02*
X131052342Y-131770285D01*
X131052342Y-131770285D02*
X131147580Y-131817904D01*
X131147580Y-131817904D02*
X131195200Y-131865523D01*
X131195200Y-131865523D02*
X131242819Y-131960761D01*
X131242819Y-131960761D02*
X131242819Y-132198856D01*
X131242819Y-132198856D02*
X131195200Y-132294094D01*
X131195200Y-132294094D02*
X131147580Y-132341713D01*
X187771335Y-132736066D02*
X187818955Y-132783685D01*
X187818955Y-132783685D02*
X187866574Y-132926542D01*
X187866574Y-132926542D02*
X187866574Y-133021780D01*
X187866574Y-133021780D02*
X187818955Y-133164637D01*
X187818955Y-133164637D02*
X187723716Y-133259875D01*
X187723716Y-133259875D02*
X187628478Y-133307494D01*
X187628478Y-133307494D02*
X187438002Y-133355113D01*
X187438002Y-133355113D02*
X187295145Y-133355113D01*
X187295145Y-133355113D02*
X187104669Y-133307494D01*
X187104669Y-133307494D02*
X187009431Y-133259875D01*
X187009431Y-133259875D02*
X186914193Y-133164637D01*
X186914193Y-133164637D02*
X186866574Y-133021780D01*
X186866574Y-133021780D02*
X186866574Y-132926542D01*
X186866574Y-132926542D02*
X186914193Y-132783685D01*
X186914193Y-132783685D02*
X186961812Y-132736066D01*
X187295145Y-132164637D02*
X187247526Y-132259875D01*
X187247526Y-132259875D02*
X187199907Y-132307494D01*
X187199907Y-132307494D02*
X187104669Y-132355113D01*
X187104669Y-132355113D02*
X187057050Y-132355113D01*
X187057050Y-132355113D02*
X186961812Y-132307494D01*
X186961812Y-132307494D02*
X186914193Y-132259875D01*
X186914193Y-132259875D02*
X186866574Y-132164637D01*
X186866574Y-132164637D02*
X186866574Y-131974161D01*
X186866574Y-131974161D02*
X186914193Y-131878923D01*
X186914193Y-131878923D02*
X186961812Y-131831304D01*
X186961812Y-131831304D02*
X187057050Y-131783685D01*
X187057050Y-131783685D02*
X187104669Y-131783685D01*
X187104669Y-131783685D02*
X187199907Y-131831304D01*
X187199907Y-131831304D02*
X187247526Y-131878923D01*
X187247526Y-131878923D02*
X187295145Y-131974161D01*
X187295145Y-131974161D02*
X187295145Y-132164637D01*
X187295145Y-132164637D02*
X187342764Y-132259875D01*
X187342764Y-132259875D02*
X187390383Y-132307494D01*
X187390383Y-132307494D02*
X187485621Y-132355113D01*
X187485621Y-132355113D02*
X187676097Y-132355113D01*
X187676097Y-132355113D02*
X187771335Y-132307494D01*
X187771335Y-132307494D02*
X187818955Y-132259875D01*
X187818955Y-132259875D02*
X187866574Y-132164637D01*
X187866574Y-132164637D02*
X187866574Y-131974161D01*
X187866574Y-131974161D02*
X187818955Y-131878923D01*
X187818955Y-131878923D02*
X187771335Y-131831304D01*
X187771335Y-131831304D02*
X187676097Y-131783685D01*
X187676097Y-131783685D02*
X187485621Y-131783685D01*
X187485621Y-131783685D02*
X187390383Y-131831304D01*
X187390383Y-131831304D02*
X187342764Y-131878923D01*
X187342764Y-131878923D02*
X187295145Y-131974161D01*
X249196574Y-113339756D02*
X248720383Y-113673089D01*
X249196574Y-113911184D02*
X248196574Y-113911184D01*
X248196574Y-113911184D02*
X248196574Y-113530232D01*
X248196574Y-113530232D02*
X248244193Y-113434994D01*
X248244193Y-113434994D02*
X248291812Y-113387375D01*
X248291812Y-113387375D02*
X248387050Y-113339756D01*
X248387050Y-113339756D02*
X248529907Y-113339756D01*
X248529907Y-113339756D02*
X248625145Y-113387375D01*
X248625145Y-113387375D02*
X248672764Y-113434994D01*
X248672764Y-113434994D02*
X248720383Y-113530232D01*
X248720383Y-113530232D02*
X248720383Y-113911184D01*
X249196574Y-112387375D02*
X249196574Y-112958803D01*
X249196574Y-112673089D02*
X248196574Y-112673089D01*
X248196574Y-112673089D02*
X248339431Y-112768327D01*
X248339431Y-112768327D02*
X248434669Y-112863565D01*
X248434669Y-112863565D02*
X248482288Y-112958803D01*
X248529907Y-111530232D02*
X249196574Y-111530232D01*
X248148955Y-111768327D02*
X248863240Y-112006422D01*
X248863240Y-112006422D02*
X248863240Y-111387375D01*
X121365333Y-116634819D02*
X121032000Y-116158628D01*
X120793905Y-116634819D02*
X120793905Y-115634819D01*
X120793905Y-115634819D02*
X121174857Y-115634819D01*
X121174857Y-115634819D02*
X121270095Y-115682438D01*
X121270095Y-115682438D02*
X121317714Y-115730057D01*
X121317714Y-115730057D02*
X121365333Y-115825295D01*
X121365333Y-115825295D02*
X121365333Y-115968152D01*
X121365333Y-115968152D02*
X121317714Y-116063390D01*
X121317714Y-116063390D02*
X121270095Y-116111009D01*
X121270095Y-116111009D02*
X121174857Y-116158628D01*
X121174857Y-116158628D02*
X120793905Y-116158628D01*
X122270095Y-115634819D02*
X121793905Y-115634819D01*
X121793905Y-115634819D02*
X121746286Y-116111009D01*
X121746286Y-116111009D02*
X121793905Y-116063390D01*
X121793905Y-116063390D02*
X121889143Y-116015771D01*
X121889143Y-116015771D02*
X122127238Y-116015771D01*
X122127238Y-116015771D02*
X122222476Y-116063390D01*
X122222476Y-116063390D02*
X122270095Y-116111009D01*
X122270095Y-116111009D02*
X122317714Y-116206247D01*
X122317714Y-116206247D02*
X122317714Y-116444342D01*
X122317714Y-116444342D02*
X122270095Y-116539580D01*
X122270095Y-116539580D02*
X122222476Y-116587200D01*
X122222476Y-116587200D02*
X122127238Y-116634819D01*
X122127238Y-116634819D02*
X121889143Y-116634819D01*
X121889143Y-116634819D02*
X121793905Y-116587200D01*
X121793905Y-116587200D02*
X121746286Y-116539580D01*
X75897580Y-132817666D02*
X75945200Y-132865285D01*
X75945200Y-132865285D02*
X75992819Y-133008142D01*
X75992819Y-133008142D02*
X75992819Y-133103380D01*
X75992819Y-133103380D02*
X75945200Y-133246237D01*
X75945200Y-133246237D02*
X75849961Y-133341475D01*
X75849961Y-133341475D02*
X75754723Y-133389094D01*
X75754723Y-133389094D02*
X75564247Y-133436713D01*
X75564247Y-133436713D02*
X75421390Y-133436713D01*
X75421390Y-133436713D02*
X75230914Y-133389094D01*
X75230914Y-133389094D02*
X75135676Y-133341475D01*
X75135676Y-133341475D02*
X75040438Y-133246237D01*
X75040438Y-133246237D02*
X74992819Y-133103380D01*
X74992819Y-133103380D02*
X74992819Y-133008142D01*
X74992819Y-133008142D02*
X75040438Y-132865285D01*
X75040438Y-132865285D02*
X75088057Y-132817666D01*
X75326152Y-131960523D02*
X75992819Y-131960523D01*
X74945200Y-132198618D02*
X75659485Y-132436713D01*
X75659485Y-132436713D02*
X75659485Y-131817666D01*
X187153660Y-105884719D02*
X187153660Y-104884719D01*
X187153660Y-104884719D02*
X187391755Y-104884719D01*
X187391755Y-104884719D02*
X187534612Y-104932338D01*
X187534612Y-104932338D02*
X187629850Y-105027576D01*
X187629850Y-105027576D02*
X187677469Y-105122814D01*
X187677469Y-105122814D02*
X187725088Y-105313290D01*
X187725088Y-105313290D02*
X187725088Y-105456147D01*
X187725088Y-105456147D02*
X187677469Y-105646623D01*
X187677469Y-105646623D02*
X187629850Y-105741861D01*
X187629850Y-105741861D02*
X187534612Y-105837100D01*
X187534612Y-105837100D02*
X187391755Y-105884719D01*
X187391755Y-105884719D02*
X187153660Y-105884719D01*
X188296517Y-105313290D02*
X188201279Y-105265671D01*
X188201279Y-105265671D02*
X188153660Y-105218052D01*
X188153660Y-105218052D02*
X188106041Y-105122814D01*
X188106041Y-105122814D02*
X188106041Y-105075195D01*
X188106041Y-105075195D02*
X188153660Y-104979957D01*
X188153660Y-104979957D02*
X188201279Y-104932338D01*
X188201279Y-104932338D02*
X188296517Y-104884719D01*
X188296517Y-104884719D02*
X188486993Y-104884719D01*
X188486993Y-104884719D02*
X188582231Y-104932338D01*
X188582231Y-104932338D02*
X188629850Y-104979957D01*
X188629850Y-104979957D02*
X188677469Y-105075195D01*
X188677469Y-105075195D02*
X188677469Y-105122814D01*
X188677469Y-105122814D02*
X188629850Y-105218052D01*
X188629850Y-105218052D02*
X188582231Y-105265671D01*
X188582231Y-105265671D02*
X188486993Y-105313290D01*
X188486993Y-105313290D02*
X188296517Y-105313290D01*
X188296517Y-105313290D02*
X188201279Y-105360909D01*
X188201279Y-105360909D02*
X188153660Y-105408528D01*
X188153660Y-105408528D02*
X188106041Y-105503766D01*
X188106041Y-105503766D02*
X188106041Y-105694242D01*
X188106041Y-105694242D02*
X188153660Y-105789480D01*
X188153660Y-105789480D02*
X188201279Y-105837100D01*
X188201279Y-105837100D02*
X188296517Y-105884719D01*
X188296517Y-105884719D02*
X188486993Y-105884719D01*
X188486993Y-105884719D02*
X188582231Y-105837100D01*
X188582231Y-105837100D02*
X188629850Y-105789480D01*
X188629850Y-105789480D02*
X188677469Y-105694242D01*
X188677469Y-105694242D02*
X188677469Y-105503766D01*
X188677469Y-105503766D02*
X188629850Y-105408528D01*
X188629850Y-105408528D02*
X188582231Y-105360909D01*
X188582231Y-105360909D02*
X188486993Y-105313290D01*
X192709850Y-105514719D02*
X192709850Y-104514719D01*
X193281278Y-105514719D02*
X192852707Y-104943290D01*
X193281278Y-104514719D02*
X192709850Y-105086147D01*
X88338524Y-139290819D02*
X88338524Y-138290819D01*
X88338524Y-138767009D02*
X88909952Y-138767009D01*
X88909952Y-139290819D02*
X88909952Y-138290819D01*
X89243286Y-138290819D02*
X89576619Y-139290819D01*
X89576619Y-139290819D02*
X89909952Y-138290819D01*
X90148048Y-138290819D02*
X90767095Y-138290819D01*
X90767095Y-138290819D02*
X90433762Y-138671771D01*
X90433762Y-138671771D02*
X90576619Y-138671771D01*
X90576619Y-138671771D02*
X90671857Y-138719390D01*
X90671857Y-138719390D02*
X90719476Y-138767009D01*
X90719476Y-138767009D02*
X90767095Y-138862247D01*
X90767095Y-138862247D02*
X90767095Y-139100342D01*
X90767095Y-139100342D02*
X90719476Y-139195580D01*
X90719476Y-139195580D02*
X90671857Y-139243200D01*
X90671857Y-139243200D02*
X90576619Y-139290819D01*
X90576619Y-139290819D02*
X90290905Y-139290819D01*
X90290905Y-139290819D02*
X90195667Y-139243200D01*
X90195667Y-139243200D02*
X90148048Y-139195580D01*
X236246524Y-138911819D02*
X236246524Y-137911819D01*
X236246524Y-138388009D02*
X236817952Y-138388009D01*
X236817952Y-138911819D02*
X236817952Y-137911819D01*
X237151286Y-137911819D02*
X237484619Y-138911819D01*
X237484619Y-138911819D02*
X237817952Y-137911819D01*
X238056048Y-137911819D02*
X238722714Y-137911819D01*
X238722714Y-137911819D02*
X238294143Y-138911819D01*
X193152524Y-138741819D02*
X193152524Y-137741819D01*
X193152524Y-138218009D02*
X193723952Y-138218009D01*
X193723952Y-138741819D02*
X193723952Y-137741819D01*
X194057286Y-137741819D02*
X194390619Y-138741819D01*
X194390619Y-138741819D02*
X194723952Y-137741819D01*
X195485857Y-137741819D02*
X195295381Y-137741819D01*
X195295381Y-137741819D02*
X195200143Y-137789438D01*
X195200143Y-137789438D02*
X195152524Y-137837057D01*
X195152524Y-137837057D02*
X195057286Y-137979914D01*
X195057286Y-137979914D02*
X195009667Y-138170390D01*
X195009667Y-138170390D02*
X195009667Y-138551342D01*
X195009667Y-138551342D02*
X195057286Y-138646580D01*
X195057286Y-138646580D02*
X195104905Y-138694200D01*
X195104905Y-138694200D02*
X195200143Y-138741819D01*
X195200143Y-138741819D02*
X195390619Y-138741819D01*
X195390619Y-138741819D02*
X195485857Y-138694200D01*
X195485857Y-138694200D02*
X195533476Y-138646580D01*
X195533476Y-138646580D02*
X195581095Y-138551342D01*
X195581095Y-138551342D02*
X195581095Y-138313247D01*
X195581095Y-138313247D02*
X195533476Y-138218009D01*
X195533476Y-138218009D02*
X195485857Y-138170390D01*
X195485857Y-138170390D02*
X195390619Y-138122771D01*
X195390619Y-138122771D02*
X195200143Y-138122771D01*
X195200143Y-138122771D02*
X195104905Y-138170390D01*
X195104905Y-138170390D02*
X195057286Y-138218009D01*
X195057286Y-138218009D02*
X195009667Y-138313247D01*
X53896524Y-139954819D02*
X53896524Y-138954819D01*
X53896524Y-139431009D02*
X54467952Y-139431009D01*
X54467952Y-139954819D02*
X54467952Y-138954819D01*
X54801286Y-138954819D02*
X55134619Y-139954819D01*
X55134619Y-139954819D02*
X55467952Y-138954819D01*
X56325095Y-139954819D02*
X55753667Y-139954819D01*
X56039381Y-139954819D02*
X56039381Y-138954819D01*
X56039381Y-138954819D02*
X55944143Y-139097676D01*
X55944143Y-139097676D02*
X55848905Y-139192914D01*
X55848905Y-139192914D02*
X55753667Y-139240533D01*
X79627905Y-118443819D02*
X79627905Y-117443819D01*
X79627905Y-117443819D02*
X79866000Y-117443819D01*
X79866000Y-117443819D02*
X80008857Y-117491438D01*
X80008857Y-117491438D02*
X80104095Y-117586676D01*
X80104095Y-117586676D02*
X80151714Y-117681914D01*
X80151714Y-117681914D02*
X80199333Y-117872390D01*
X80199333Y-117872390D02*
X80199333Y-118015247D01*
X80199333Y-118015247D02*
X80151714Y-118205723D01*
X80151714Y-118205723D02*
X80104095Y-118300961D01*
X80104095Y-118300961D02*
X80008857Y-118396200D01*
X80008857Y-118396200D02*
X79866000Y-118443819D01*
X79866000Y-118443819D02*
X79627905Y-118443819D01*
X81056476Y-117777152D02*
X81056476Y-118443819D01*
X80818381Y-117396200D02*
X80580286Y-118110485D01*
X80580286Y-118110485D02*
X81199333Y-118110485D01*
X85184095Y-118073819D02*
X85184095Y-117073819D01*
X85755523Y-118073819D02*
X85326952Y-117502390D01*
X85755523Y-117073819D02*
X85184095Y-117645247D01*
X225114142Y-110019819D02*
X224780809Y-109543628D01*
X224542714Y-110019819D02*
X224542714Y-109019819D01*
X224542714Y-109019819D02*
X224923666Y-109019819D01*
X224923666Y-109019819D02*
X225018904Y-109067438D01*
X225018904Y-109067438D02*
X225066523Y-109115057D01*
X225066523Y-109115057D02*
X225114142Y-109210295D01*
X225114142Y-109210295D02*
X225114142Y-109353152D01*
X225114142Y-109353152D02*
X225066523Y-109448390D01*
X225066523Y-109448390D02*
X225018904Y-109496009D01*
X225018904Y-109496009D02*
X224923666Y-109543628D01*
X224923666Y-109543628D02*
X224542714Y-109543628D01*
X225495095Y-109115057D02*
X225542714Y-109067438D01*
X225542714Y-109067438D02*
X225637952Y-109019819D01*
X225637952Y-109019819D02*
X225876047Y-109019819D01*
X225876047Y-109019819D02*
X225971285Y-109067438D01*
X225971285Y-109067438D02*
X226018904Y-109115057D01*
X226018904Y-109115057D02*
X226066523Y-109210295D01*
X226066523Y-109210295D02*
X226066523Y-109305533D01*
X226066523Y-109305533D02*
X226018904Y-109448390D01*
X226018904Y-109448390D02*
X225447476Y-110019819D01*
X225447476Y-110019819D02*
X226066523Y-110019819D01*
X226399857Y-109019819D02*
X227018904Y-109019819D01*
X227018904Y-109019819D02*
X226685571Y-109400771D01*
X226685571Y-109400771D02*
X226828428Y-109400771D01*
X226828428Y-109400771D02*
X226923666Y-109448390D01*
X226923666Y-109448390D02*
X226971285Y-109496009D01*
X226971285Y-109496009D02*
X227018904Y-109591247D01*
X227018904Y-109591247D02*
X227018904Y-109829342D01*
X227018904Y-109829342D02*
X226971285Y-109924580D01*
X226971285Y-109924580D02*
X226923666Y-109972200D01*
X226923666Y-109972200D02*
X226828428Y-110019819D01*
X226828428Y-110019819D02*
X226542714Y-110019819D01*
X226542714Y-110019819D02*
X226447476Y-109972200D01*
X226447476Y-109972200D02*
X226399857Y-109924580D01*
X255420574Y-123020757D02*
X254944383Y-123354090D01*
X255420574Y-123592185D02*
X254420574Y-123592185D01*
X254420574Y-123592185D02*
X254420574Y-123211233D01*
X254420574Y-123211233D02*
X254468193Y-123115995D01*
X254468193Y-123115995D02*
X254515812Y-123068376D01*
X254515812Y-123068376D02*
X254611050Y-123020757D01*
X254611050Y-123020757D02*
X254753907Y-123020757D01*
X254753907Y-123020757D02*
X254849145Y-123068376D01*
X254849145Y-123068376D02*
X254896764Y-123115995D01*
X254896764Y-123115995D02*
X254944383Y-123211233D01*
X254944383Y-123211233D02*
X254944383Y-123592185D01*
X255420574Y-122068376D02*
X255420574Y-122639804D01*
X255420574Y-122354090D02*
X254420574Y-122354090D01*
X254420574Y-122354090D02*
X254563431Y-122449328D01*
X254563431Y-122449328D02*
X254658669Y-122544566D01*
X254658669Y-122544566D02*
X254706288Y-122639804D01*
X254420574Y-121211233D02*
X254420574Y-121401709D01*
X254420574Y-121401709D02*
X254468193Y-121496947D01*
X254468193Y-121496947D02*
X254515812Y-121544566D01*
X254515812Y-121544566D02*
X254658669Y-121639804D01*
X254658669Y-121639804D02*
X254849145Y-121687423D01*
X254849145Y-121687423D02*
X255230097Y-121687423D01*
X255230097Y-121687423D02*
X255325335Y-121639804D01*
X255325335Y-121639804D02*
X255372955Y-121592185D01*
X255372955Y-121592185D02*
X255420574Y-121496947D01*
X255420574Y-121496947D02*
X255420574Y-121306471D01*
X255420574Y-121306471D02*
X255372955Y-121211233D01*
X255372955Y-121211233D02*
X255325335Y-121163614D01*
X255325335Y-121163614D02*
X255230097Y-121115995D01*
X255230097Y-121115995D02*
X254992002Y-121115995D01*
X254992002Y-121115995D02*
X254896764Y-121163614D01*
X254896764Y-121163614D02*
X254849145Y-121211233D01*
X254849145Y-121211233D02*
X254801526Y-121306471D01*
X254801526Y-121306471D02*
X254801526Y-121496947D01*
X254801526Y-121496947D02*
X254849145Y-121592185D01*
X254849145Y-121592185D02*
X254896764Y-121639804D01*
X254896764Y-121639804D02*
X254992002Y-121687423D01*
X144258142Y-107718819D02*
X143924809Y-107242628D01*
X143686714Y-107718819D02*
X143686714Y-106718819D01*
X143686714Y-106718819D02*
X144067666Y-106718819D01*
X144067666Y-106718819D02*
X144162904Y-106766438D01*
X144162904Y-106766438D02*
X144210523Y-106814057D01*
X144210523Y-106814057D02*
X144258142Y-106909295D01*
X144258142Y-106909295D02*
X144258142Y-107052152D01*
X144258142Y-107052152D02*
X144210523Y-107147390D01*
X144210523Y-107147390D02*
X144162904Y-107195009D01*
X144162904Y-107195009D02*
X144067666Y-107242628D01*
X144067666Y-107242628D02*
X143686714Y-107242628D01*
X144639095Y-106814057D02*
X144686714Y-106766438D01*
X144686714Y-106766438D02*
X144781952Y-106718819D01*
X144781952Y-106718819D02*
X145020047Y-106718819D01*
X145020047Y-106718819D02*
X145115285Y-106766438D01*
X145115285Y-106766438D02*
X145162904Y-106814057D01*
X145162904Y-106814057D02*
X145210523Y-106909295D01*
X145210523Y-106909295D02*
X145210523Y-107004533D01*
X145210523Y-107004533D02*
X145162904Y-107147390D01*
X145162904Y-107147390D02*
X144591476Y-107718819D01*
X144591476Y-107718819D02*
X145210523Y-107718819D01*
X146067666Y-107052152D02*
X146067666Y-107718819D01*
X145829571Y-106671200D02*
X145591476Y-107385485D01*
X145591476Y-107385485D02*
X146210523Y-107385485D01*
X66777524Y-139954819D02*
X66777524Y-138954819D01*
X66777524Y-139431009D02*
X67348952Y-139431009D01*
X67348952Y-139954819D02*
X67348952Y-138954819D01*
X67682286Y-138954819D02*
X68015619Y-139954819D01*
X68015619Y-139954819D02*
X68348952Y-138954819D01*
X68634667Y-139050057D02*
X68682286Y-139002438D01*
X68682286Y-139002438D02*
X68777524Y-138954819D01*
X68777524Y-138954819D02*
X69015619Y-138954819D01*
X69015619Y-138954819D02*
X69110857Y-139002438D01*
X69110857Y-139002438D02*
X69158476Y-139050057D01*
X69158476Y-139050057D02*
X69206095Y-139145295D01*
X69206095Y-139145295D02*
X69206095Y-139240533D01*
X69206095Y-139240533D02*
X69158476Y-139383390D01*
X69158476Y-139383390D02*
X68587048Y-139954819D01*
X68587048Y-139954819D02*
X69206095Y-139954819D01*
X170380660Y-105925719D02*
X170380660Y-104925719D01*
X170380660Y-104925719D02*
X170618755Y-104925719D01*
X170618755Y-104925719D02*
X170761612Y-104973338D01*
X170761612Y-104973338D02*
X170856850Y-105068576D01*
X170856850Y-105068576D02*
X170904469Y-105163814D01*
X170904469Y-105163814D02*
X170952088Y-105354290D01*
X170952088Y-105354290D02*
X170952088Y-105497147D01*
X170952088Y-105497147D02*
X170904469Y-105687623D01*
X170904469Y-105687623D02*
X170856850Y-105782861D01*
X170856850Y-105782861D02*
X170761612Y-105878100D01*
X170761612Y-105878100D02*
X170618755Y-105925719D01*
X170618755Y-105925719D02*
X170380660Y-105925719D01*
X171333041Y-105020957D02*
X171380660Y-104973338D01*
X171380660Y-104973338D02*
X171475898Y-104925719D01*
X171475898Y-104925719D02*
X171713993Y-104925719D01*
X171713993Y-104925719D02*
X171809231Y-104973338D01*
X171809231Y-104973338D02*
X171856850Y-105020957D01*
X171856850Y-105020957D02*
X171904469Y-105116195D01*
X171904469Y-105116195D02*
X171904469Y-105211433D01*
X171904469Y-105211433D02*
X171856850Y-105354290D01*
X171856850Y-105354290D02*
X171285422Y-105925719D01*
X171285422Y-105925719D02*
X171904469Y-105925719D01*
X175936850Y-105555719D02*
X175936850Y-104555719D01*
X176508278Y-105555719D02*
X176079707Y-104984290D01*
X176508278Y-104555719D02*
X175936850Y-105127147D01*
X121368333Y-111003819D02*
X121035000Y-110527628D01*
X120796905Y-111003819D02*
X120796905Y-110003819D01*
X120796905Y-110003819D02*
X121177857Y-110003819D01*
X121177857Y-110003819D02*
X121273095Y-110051438D01*
X121273095Y-110051438D02*
X121320714Y-110099057D01*
X121320714Y-110099057D02*
X121368333Y-110194295D01*
X121368333Y-110194295D02*
X121368333Y-110337152D01*
X121368333Y-110337152D02*
X121320714Y-110432390D01*
X121320714Y-110432390D02*
X121273095Y-110480009D01*
X121273095Y-110480009D02*
X121177857Y-110527628D01*
X121177857Y-110527628D02*
X120796905Y-110527628D01*
X122225476Y-110337152D02*
X122225476Y-111003819D01*
X121987381Y-109956200D02*
X121749286Y-110670485D01*
X121749286Y-110670485D02*
X122368333Y-110670485D01*
X175080088Y-115682719D02*
X174746755Y-115206528D01*
X174508660Y-115682719D02*
X174508660Y-114682719D01*
X174508660Y-114682719D02*
X174889612Y-114682719D01*
X174889612Y-114682719D02*
X174984850Y-114730338D01*
X174984850Y-114730338D02*
X175032469Y-114777957D01*
X175032469Y-114777957D02*
X175080088Y-114873195D01*
X175080088Y-114873195D02*
X175080088Y-115016052D01*
X175080088Y-115016052D02*
X175032469Y-115111290D01*
X175032469Y-115111290D02*
X174984850Y-115158909D01*
X174984850Y-115158909D02*
X174889612Y-115206528D01*
X174889612Y-115206528D02*
X174508660Y-115206528D01*
X175556279Y-115682719D02*
X175746755Y-115682719D01*
X175746755Y-115682719D02*
X175841993Y-115635100D01*
X175841993Y-115635100D02*
X175889612Y-115587480D01*
X175889612Y-115587480D02*
X175984850Y-115444623D01*
X175984850Y-115444623D02*
X176032469Y-115254147D01*
X176032469Y-115254147D02*
X176032469Y-114873195D01*
X176032469Y-114873195D02*
X175984850Y-114777957D01*
X175984850Y-114777957D02*
X175937231Y-114730338D01*
X175937231Y-114730338D02*
X175841993Y-114682719D01*
X175841993Y-114682719D02*
X175651517Y-114682719D01*
X175651517Y-114682719D02*
X175556279Y-114730338D01*
X175556279Y-114730338D02*
X175508660Y-114777957D01*
X175508660Y-114777957D02*
X175461041Y-114873195D01*
X175461041Y-114873195D02*
X175461041Y-115111290D01*
X175461041Y-115111290D02*
X175508660Y-115206528D01*
X175508660Y-115206528D02*
X175556279Y-115254147D01*
X175556279Y-115254147D02*
X175651517Y-115301766D01*
X175651517Y-115301766D02*
X175841993Y-115301766D01*
X175841993Y-115301766D02*
X175937231Y-115254147D01*
X175937231Y-115254147D02*
X175984850Y-115206528D01*
X175984850Y-115206528D02*
X176032469Y-115111290D01*
X117120580Y-132796166D02*
X117168200Y-132843785D01*
X117168200Y-132843785D02*
X117215819Y-132986642D01*
X117215819Y-132986642D02*
X117215819Y-133081880D01*
X117215819Y-133081880D02*
X117168200Y-133224737D01*
X117168200Y-133224737D02*
X117072961Y-133319975D01*
X117072961Y-133319975D02*
X116977723Y-133367594D01*
X116977723Y-133367594D02*
X116787247Y-133415213D01*
X116787247Y-133415213D02*
X116644390Y-133415213D01*
X116644390Y-133415213D02*
X116453914Y-133367594D01*
X116453914Y-133367594D02*
X116358676Y-133319975D01*
X116358676Y-133319975D02*
X116263438Y-133224737D01*
X116263438Y-133224737D02*
X116215819Y-133081880D01*
X116215819Y-133081880D02*
X116215819Y-132986642D01*
X116215819Y-132986642D02*
X116263438Y-132843785D01*
X116263438Y-132843785D02*
X116311057Y-132796166D01*
X116311057Y-132415213D02*
X116263438Y-132367594D01*
X116263438Y-132367594D02*
X116215819Y-132272356D01*
X116215819Y-132272356D02*
X116215819Y-132034261D01*
X116215819Y-132034261D02*
X116263438Y-131939023D01*
X116263438Y-131939023D02*
X116311057Y-131891404D01*
X116311057Y-131891404D02*
X116406295Y-131843785D01*
X116406295Y-131843785D02*
X116501533Y-131843785D01*
X116501533Y-131843785D02*
X116644390Y-131891404D01*
X116644390Y-131891404D02*
X117215819Y-132462832D01*
X117215819Y-132462832D02*
X117215819Y-131843785D01*
X192190897Y-110044719D02*
X191857564Y-109568528D01*
X191619469Y-110044719D02*
X191619469Y-109044719D01*
X191619469Y-109044719D02*
X192000421Y-109044719D01*
X192000421Y-109044719D02*
X192095659Y-109092338D01*
X192095659Y-109092338D02*
X192143278Y-109139957D01*
X192143278Y-109139957D02*
X192190897Y-109235195D01*
X192190897Y-109235195D02*
X192190897Y-109378052D01*
X192190897Y-109378052D02*
X192143278Y-109473290D01*
X192143278Y-109473290D02*
X192095659Y-109520909D01*
X192095659Y-109520909D02*
X192000421Y-109568528D01*
X192000421Y-109568528D02*
X191619469Y-109568528D01*
X193143278Y-110044719D02*
X192571850Y-110044719D01*
X192857564Y-110044719D02*
X192857564Y-109044719D01*
X192857564Y-109044719D02*
X192762326Y-109187576D01*
X192762326Y-109187576D02*
X192667088Y-109282814D01*
X192667088Y-109282814D02*
X192571850Y-109330433D01*
X193762326Y-109044719D02*
X193857564Y-109044719D01*
X193857564Y-109044719D02*
X193952802Y-109092338D01*
X193952802Y-109092338D02*
X194000421Y-109139957D01*
X194000421Y-109139957D02*
X194048040Y-109235195D01*
X194048040Y-109235195D02*
X194095659Y-109425671D01*
X194095659Y-109425671D02*
X194095659Y-109663766D01*
X194095659Y-109663766D02*
X194048040Y-109854242D01*
X194048040Y-109854242D02*
X194000421Y-109949480D01*
X194000421Y-109949480D02*
X193952802Y-109997100D01*
X193952802Y-109997100D02*
X193857564Y-110044719D01*
X193857564Y-110044719D02*
X193762326Y-110044719D01*
X193762326Y-110044719D02*
X193667088Y-109997100D01*
X193667088Y-109997100D02*
X193619469Y-109949480D01*
X193619469Y-109949480D02*
X193571850Y-109854242D01*
X193571850Y-109854242D02*
X193524231Y-109663766D01*
X193524231Y-109663766D02*
X193524231Y-109425671D01*
X193524231Y-109425671D02*
X193571850Y-109235195D01*
X193571850Y-109235195D02*
X193619469Y-109139957D01*
X193619469Y-109139957D02*
X193667088Y-109092338D01*
X193667088Y-109092338D02*
X193762326Y-109044719D01*
X145275580Y-133325166D02*
X145323200Y-133372785D01*
X145323200Y-133372785D02*
X145370819Y-133515642D01*
X145370819Y-133515642D02*
X145370819Y-133610880D01*
X145370819Y-133610880D02*
X145323200Y-133753737D01*
X145323200Y-133753737D02*
X145227961Y-133848975D01*
X145227961Y-133848975D02*
X145132723Y-133896594D01*
X145132723Y-133896594D02*
X144942247Y-133944213D01*
X144942247Y-133944213D02*
X144799390Y-133944213D01*
X144799390Y-133944213D02*
X144608914Y-133896594D01*
X144608914Y-133896594D02*
X144513676Y-133848975D01*
X144513676Y-133848975D02*
X144418438Y-133753737D01*
X144418438Y-133753737D02*
X144370819Y-133610880D01*
X144370819Y-133610880D02*
X144370819Y-133515642D01*
X144370819Y-133515642D02*
X144418438Y-133372785D01*
X144418438Y-133372785D02*
X144466057Y-133325166D01*
X144370819Y-132468023D02*
X144370819Y-132658499D01*
X144370819Y-132658499D02*
X144418438Y-132753737D01*
X144418438Y-132753737D02*
X144466057Y-132801356D01*
X144466057Y-132801356D02*
X144608914Y-132896594D01*
X144608914Y-132896594D02*
X144799390Y-132944213D01*
X144799390Y-132944213D02*
X145180342Y-132944213D01*
X145180342Y-132944213D02*
X145275580Y-132896594D01*
X145275580Y-132896594D02*
X145323200Y-132848975D01*
X145323200Y-132848975D02*
X145370819Y-132753737D01*
X145370819Y-132753737D02*
X145370819Y-132563261D01*
X145370819Y-132563261D02*
X145323200Y-132468023D01*
X145323200Y-132468023D02*
X145275580Y-132420404D01*
X145275580Y-132420404D02*
X145180342Y-132372785D01*
X145180342Y-132372785D02*
X144942247Y-132372785D01*
X144942247Y-132372785D02*
X144847009Y-132420404D01*
X144847009Y-132420404D02*
X144799390Y-132468023D01*
X144799390Y-132468023D02*
X144751771Y-132563261D01*
X144751771Y-132563261D02*
X144751771Y-132753737D01*
X144751771Y-132753737D02*
X144799390Y-132848975D01*
X144799390Y-132848975D02*
X144847009Y-132896594D01*
X144847009Y-132896594D02*
X144942247Y-132944213D01*
X152534524Y-139529819D02*
X152534524Y-138529819D01*
X152534524Y-139006009D02*
X153105952Y-139006009D01*
X153105952Y-139529819D02*
X153105952Y-138529819D01*
X153439286Y-138529819D02*
X153772619Y-139529819D01*
X153772619Y-139529819D02*
X154105952Y-138529819D01*
X154915476Y-138529819D02*
X154439286Y-138529819D01*
X154439286Y-138529819D02*
X154391667Y-139006009D01*
X154391667Y-139006009D02*
X154439286Y-138958390D01*
X154439286Y-138958390D02*
X154534524Y-138910771D01*
X154534524Y-138910771D02*
X154772619Y-138910771D01*
X154772619Y-138910771D02*
X154867857Y-138958390D01*
X154867857Y-138958390D02*
X154915476Y-139006009D01*
X154915476Y-139006009D02*
X154963095Y-139101247D01*
X154963095Y-139101247D02*
X154963095Y-139339342D01*
X154963095Y-139339342D02*
X154915476Y-139434580D01*
X154915476Y-139434580D02*
X154867857Y-139482200D01*
X154867857Y-139482200D02*
X154772619Y-139529819D01*
X154772619Y-139529819D02*
X154534524Y-139529819D01*
X154534524Y-139529819D02*
X154439286Y-139482200D01*
X154439286Y-139482200D02*
X154391667Y-139434580D01*
X62915305Y-118443819D02*
X62915305Y-117443819D01*
X62915305Y-117443819D02*
X63153400Y-117443819D01*
X63153400Y-117443819D02*
X63296257Y-117491438D01*
X63296257Y-117491438D02*
X63391495Y-117586676D01*
X63391495Y-117586676D02*
X63439114Y-117681914D01*
X63439114Y-117681914D02*
X63486733Y-117872390D01*
X63486733Y-117872390D02*
X63486733Y-118015247D01*
X63486733Y-118015247D02*
X63439114Y-118205723D01*
X63439114Y-118205723D02*
X63391495Y-118300961D01*
X63391495Y-118300961D02*
X63296257Y-118396200D01*
X63296257Y-118396200D02*
X63153400Y-118443819D01*
X63153400Y-118443819D02*
X62915305Y-118443819D01*
X64439114Y-118443819D02*
X63867686Y-118443819D01*
X64153400Y-118443819D02*
X64153400Y-117443819D01*
X64153400Y-117443819D02*
X64058162Y-117586676D01*
X64058162Y-117586676D02*
X63962924Y-117681914D01*
X63962924Y-117681914D02*
X63867686Y-117729533D01*
X68471495Y-118073819D02*
X68471495Y-117073819D01*
X69042923Y-118073819D02*
X68614352Y-117502390D01*
X69042923Y-117073819D02*
X68471495Y-117645247D01*
X110735333Y-111010819D02*
X110402000Y-110534628D01*
X110163905Y-111010819D02*
X110163905Y-110010819D01*
X110163905Y-110010819D02*
X110544857Y-110010819D01*
X110544857Y-110010819D02*
X110640095Y-110058438D01*
X110640095Y-110058438D02*
X110687714Y-110106057D01*
X110687714Y-110106057D02*
X110735333Y-110201295D01*
X110735333Y-110201295D02*
X110735333Y-110344152D01*
X110735333Y-110344152D02*
X110687714Y-110439390D01*
X110687714Y-110439390D02*
X110640095Y-110487009D01*
X110640095Y-110487009D02*
X110544857Y-110534628D01*
X110544857Y-110534628D02*
X110163905Y-110534628D01*
X111687714Y-111010819D02*
X111116286Y-111010819D01*
X111402000Y-111010819D02*
X111402000Y-110010819D01*
X111402000Y-110010819D02*
X111306762Y-110153676D01*
X111306762Y-110153676D02*
X111211524Y-110248914D01*
X111211524Y-110248914D02*
X111116286Y-110296533D01*
X227134335Y-135318757D02*
X227181955Y-135366376D01*
X227181955Y-135366376D02*
X227229574Y-135509233D01*
X227229574Y-135509233D02*
X227229574Y-135604471D01*
X227229574Y-135604471D02*
X227181955Y-135747328D01*
X227181955Y-135747328D02*
X227086716Y-135842566D01*
X227086716Y-135842566D02*
X226991478Y-135890185D01*
X226991478Y-135890185D02*
X226801002Y-135937804D01*
X226801002Y-135937804D02*
X226658145Y-135937804D01*
X226658145Y-135937804D02*
X226467669Y-135890185D01*
X226467669Y-135890185D02*
X226372431Y-135842566D01*
X226372431Y-135842566D02*
X226277193Y-135747328D01*
X226277193Y-135747328D02*
X226229574Y-135604471D01*
X226229574Y-135604471D02*
X226229574Y-135509233D01*
X226229574Y-135509233D02*
X226277193Y-135366376D01*
X226277193Y-135366376D02*
X226324812Y-135318757D01*
X227229574Y-134366376D02*
X227229574Y-134937804D01*
X227229574Y-134652090D02*
X226229574Y-134652090D01*
X226229574Y-134652090D02*
X226372431Y-134747328D01*
X226372431Y-134747328D02*
X226467669Y-134842566D01*
X226467669Y-134842566D02*
X226515288Y-134937804D01*
X226229574Y-133747328D02*
X226229574Y-133652090D01*
X226229574Y-133652090D02*
X226277193Y-133556852D01*
X226277193Y-133556852D02*
X226324812Y-133509233D01*
X226324812Y-133509233D02*
X226420050Y-133461614D01*
X226420050Y-133461614D02*
X226610526Y-133413995D01*
X226610526Y-133413995D02*
X226848621Y-133413995D01*
X226848621Y-133413995D02*
X227039097Y-133461614D01*
X227039097Y-133461614D02*
X227134335Y-133509233D01*
X227134335Y-133509233D02*
X227181955Y-133556852D01*
X227181955Y-133556852D02*
X227229574Y-133652090D01*
X227229574Y-133652090D02*
X227229574Y-133747328D01*
X227229574Y-133747328D02*
X227181955Y-133842566D01*
X227181955Y-133842566D02*
X227134335Y-133890185D01*
X227134335Y-133890185D02*
X227039097Y-133937804D01*
X227039097Y-133937804D02*
X226848621Y-133985423D01*
X226848621Y-133985423D02*
X226610526Y-133985423D01*
X226610526Y-133985423D02*
X226420050Y-133937804D01*
X226420050Y-133937804D02*
X226324812Y-133890185D01*
X226324812Y-133890185D02*
X226277193Y-133842566D01*
X226277193Y-133842566D02*
X226229574Y-133747328D01*
X192190897Y-115863719D02*
X191857564Y-115387528D01*
X191619469Y-115863719D02*
X191619469Y-114863719D01*
X191619469Y-114863719D02*
X192000421Y-114863719D01*
X192000421Y-114863719D02*
X192095659Y-114911338D01*
X192095659Y-114911338D02*
X192143278Y-114958957D01*
X192143278Y-114958957D02*
X192190897Y-115054195D01*
X192190897Y-115054195D02*
X192190897Y-115197052D01*
X192190897Y-115197052D02*
X192143278Y-115292290D01*
X192143278Y-115292290D02*
X192095659Y-115339909D01*
X192095659Y-115339909D02*
X192000421Y-115387528D01*
X192000421Y-115387528D02*
X191619469Y-115387528D01*
X193143278Y-115863719D02*
X192571850Y-115863719D01*
X192857564Y-115863719D02*
X192857564Y-114863719D01*
X192857564Y-114863719D02*
X192762326Y-115006576D01*
X192762326Y-115006576D02*
X192667088Y-115101814D01*
X192667088Y-115101814D02*
X192571850Y-115149433D01*
X194095659Y-115863719D02*
X193524231Y-115863719D01*
X193809945Y-115863719D02*
X193809945Y-114863719D01*
X193809945Y-114863719D02*
X193714707Y-115006576D01*
X193714707Y-115006576D02*
X193619469Y-115101814D01*
X193619469Y-115101814D02*
X193524231Y-115149433D01*
X189703905Y-105895819D02*
X189703905Y-104895819D01*
X189703905Y-104895819D02*
X189942000Y-104895819D01*
X189942000Y-104895819D02*
X190084857Y-104943438D01*
X190084857Y-104943438D02*
X190180095Y-105038676D01*
X190180095Y-105038676D02*
X190227714Y-105133914D01*
X190227714Y-105133914D02*
X190275333Y-105324390D01*
X190275333Y-105324390D02*
X190275333Y-105467247D01*
X190275333Y-105467247D02*
X190227714Y-105657723D01*
X190227714Y-105657723D02*
X190180095Y-105752961D01*
X190180095Y-105752961D02*
X190084857Y-105848200D01*
X190084857Y-105848200D02*
X189942000Y-105895819D01*
X189942000Y-105895819D02*
X189703905Y-105895819D01*
X190751524Y-105895819D02*
X190942000Y-105895819D01*
X190942000Y-105895819D02*
X191037238Y-105848200D01*
X191037238Y-105848200D02*
X191084857Y-105800580D01*
X191084857Y-105800580D02*
X191180095Y-105657723D01*
X191180095Y-105657723D02*
X191227714Y-105467247D01*
X191227714Y-105467247D02*
X191227714Y-105086295D01*
X191227714Y-105086295D02*
X191180095Y-104991057D01*
X191180095Y-104991057D02*
X191132476Y-104943438D01*
X191132476Y-104943438D02*
X191037238Y-104895819D01*
X191037238Y-104895819D02*
X190846762Y-104895819D01*
X190846762Y-104895819D02*
X190751524Y-104943438D01*
X190751524Y-104943438D02*
X190703905Y-104991057D01*
X190703905Y-104991057D02*
X190656286Y-105086295D01*
X190656286Y-105086295D02*
X190656286Y-105324390D01*
X190656286Y-105324390D02*
X190703905Y-105419628D01*
X190703905Y-105419628D02*
X190751524Y-105467247D01*
X190751524Y-105467247D02*
X190846762Y-105514866D01*
X190846762Y-105514866D02*
X191037238Y-105514866D01*
X191037238Y-105514866D02*
X191132476Y-105467247D01*
X191132476Y-105467247D02*
X191180095Y-105419628D01*
X191180095Y-105419628D02*
X191227714Y-105324390D01*
X195260095Y-105525819D02*
X195260095Y-104525819D01*
X195831523Y-105525819D02*
X195402952Y-104954390D01*
X195831523Y-104525819D02*
X195260095Y-105097247D01*
X42036580Y-132817666D02*
X42084200Y-132865285D01*
X42084200Y-132865285D02*
X42131819Y-133008142D01*
X42131819Y-133008142D02*
X42131819Y-133103380D01*
X42131819Y-133103380D02*
X42084200Y-133246237D01*
X42084200Y-133246237D02*
X41988961Y-133341475D01*
X41988961Y-133341475D02*
X41893723Y-133389094D01*
X41893723Y-133389094D02*
X41703247Y-133436713D01*
X41703247Y-133436713D02*
X41560390Y-133436713D01*
X41560390Y-133436713D02*
X41369914Y-133389094D01*
X41369914Y-133389094D02*
X41274676Y-133341475D01*
X41274676Y-133341475D02*
X41179438Y-133246237D01*
X41179438Y-133246237D02*
X41131819Y-133103380D01*
X41131819Y-133103380D02*
X41131819Y-133008142D01*
X41131819Y-133008142D02*
X41179438Y-132865285D01*
X41179438Y-132865285D02*
X41227057Y-132817666D01*
X42131819Y-131865285D02*
X42131819Y-132436713D01*
X42131819Y-132150999D02*
X41131819Y-132150999D01*
X41131819Y-132150999D02*
X41274676Y-132246237D01*
X41274676Y-132246237D02*
X41369914Y-132341475D01*
X41369914Y-132341475D02*
X41417533Y-132436713D01*
X249331576Y-122884758D02*
X248855385Y-123218091D01*
X249331576Y-123456186D02*
X248331576Y-123456186D01*
X248331576Y-123456186D02*
X248331576Y-123075234D01*
X248331576Y-123075234D02*
X248379195Y-122979996D01*
X248379195Y-122979996D02*
X248426814Y-122932377D01*
X248426814Y-122932377D02*
X248522052Y-122884758D01*
X248522052Y-122884758D02*
X248664909Y-122884758D01*
X248664909Y-122884758D02*
X248760147Y-122932377D01*
X248760147Y-122932377D02*
X248807766Y-122979996D01*
X248807766Y-122979996D02*
X248855385Y-123075234D01*
X248855385Y-123075234D02*
X248855385Y-123456186D01*
X249331576Y-121932377D02*
X249331576Y-122503805D01*
X249331576Y-122218091D02*
X248331576Y-122218091D01*
X248331576Y-122218091D02*
X248474433Y-122313329D01*
X248474433Y-122313329D02*
X248569671Y-122408567D01*
X248569671Y-122408567D02*
X248617290Y-122503805D01*
X248331576Y-121599043D02*
X248331576Y-120932377D01*
X248331576Y-120932377D02*
X249331576Y-121360948D01*
X231975905Y-105890819D02*
X231975905Y-104890819D01*
X231975905Y-104890819D02*
X232214000Y-104890819D01*
X232214000Y-104890819D02*
X232356857Y-104938438D01*
X232356857Y-104938438D02*
X232452095Y-105033676D01*
X232452095Y-105033676D02*
X232499714Y-105128914D01*
X232499714Y-105128914D02*
X232547333Y-105319390D01*
X232547333Y-105319390D02*
X232547333Y-105462247D01*
X232547333Y-105462247D02*
X232499714Y-105652723D01*
X232499714Y-105652723D02*
X232452095Y-105747961D01*
X232452095Y-105747961D02*
X232356857Y-105843200D01*
X232356857Y-105843200D02*
X232214000Y-105890819D01*
X232214000Y-105890819D02*
X231975905Y-105890819D01*
X232880667Y-104890819D02*
X233499714Y-104890819D01*
X233499714Y-104890819D02*
X233166381Y-105271771D01*
X233166381Y-105271771D02*
X233309238Y-105271771D01*
X233309238Y-105271771D02*
X233404476Y-105319390D01*
X233404476Y-105319390D02*
X233452095Y-105367009D01*
X233452095Y-105367009D02*
X233499714Y-105462247D01*
X233499714Y-105462247D02*
X233499714Y-105700342D01*
X233499714Y-105700342D02*
X233452095Y-105795580D01*
X233452095Y-105795580D02*
X233404476Y-105843200D01*
X233404476Y-105843200D02*
X233309238Y-105890819D01*
X233309238Y-105890819D02*
X233023524Y-105890819D01*
X233023524Y-105890819D02*
X232928286Y-105843200D01*
X232928286Y-105843200D02*
X232880667Y-105795580D01*
X237532095Y-105520819D02*
X237532095Y-104520819D01*
X238103523Y-105520819D02*
X237674952Y-104949390D01*
X238103523Y-104520819D02*
X237532095Y-105092247D01*
X164595088Y-115714719D02*
X164261755Y-115238528D01*
X164023660Y-115714719D02*
X164023660Y-114714719D01*
X164023660Y-114714719D02*
X164404612Y-114714719D01*
X164404612Y-114714719D02*
X164499850Y-114762338D01*
X164499850Y-114762338D02*
X164547469Y-114809957D01*
X164547469Y-114809957D02*
X164595088Y-114905195D01*
X164595088Y-114905195D02*
X164595088Y-115048052D01*
X164595088Y-115048052D02*
X164547469Y-115143290D01*
X164547469Y-115143290D02*
X164499850Y-115190909D01*
X164499850Y-115190909D02*
X164404612Y-115238528D01*
X164404612Y-115238528D02*
X164023660Y-115238528D01*
X164928422Y-114714719D02*
X165595088Y-114714719D01*
X165595088Y-114714719D02*
X165166517Y-115714719D01*
X203239714Y-105930819D02*
X203239714Y-104930819D01*
X203239714Y-104930819D02*
X203477809Y-104930819D01*
X203477809Y-104930819D02*
X203620666Y-104978438D01*
X203620666Y-104978438D02*
X203715904Y-105073676D01*
X203715904Y-105073676D02*
X203763523Y-105168914D01*
X203763523Y-105168914D02*
X203811142Y-105359390D01*
X203811142Y-105359390D02*
X203811142Y-105502247D01*
X203811142Y-105502247D02*
X203763523Y-105692723D01*
X203763523Y-105692723D02*
X203715904Y-105787961D01*
X203715904Y-105787961D02*
X203620666Y-105883200D01*
X203620666Y-105883200D02*
X203477809Y-105930819D01*
X203477809Y-105930819D02*
X203239714Y-105930819D01*
X204763523Y-105930819D02*
X204192095Y-105930819D01*
X204477809Y-105930819D02*
X204477809Y-104930819D01*
X204477809Y-104930819D02*
X204382571Y-105073676D01*
X204382571Y-105073676D02*
X204287333Y-105168914D01*
X204287333Y-105168914D02*
X204192095Y-105216533D01*
X205382571Y-104930819D02*
X205477809Y-104930819D01*
X205477809Y-104930819D02*
X205573047Y-104978438D01*
X205573047Y-104978438D02*
X205620666Y-105026057D01*
X205620666Y-105026057D02*
X205668285Y-105121295D01*
X205668285Y-105121295D02*
X205715904Y-105311771D01*
X205715904Y-105311771D02*
X205715904Y-105549866D01*
X205715904Y-105549866D02*
X205668285Y-105740342D01*
X205668285Y-105740342D02*
X205620666Y-105835580D01*
X205620666Y-105835580D02*
X205573047Y-105883200D01*
X205573047Y-105883200D02*
X205477809Y-105930819D01*
X205477809Y-105930819D02*
X205382571Y-105930819D01*
X205382571Y-105930819D02*
X205287333Y-105883200D01*
X205287333Y-105883200D02*
X205239714Y-105835580D01*
X205239714Y-105835580D02*
X205192095Y-105740342D01*
X205192095Y-105740342D02*
X205144476Y-105549866D01*
X205144476Y-105549866D02*
X205144476Y-105311771D01*
X205144476Y-105311771D02*
X205192095Y-105121295D01*
X205192095Y-105121295D02*
X205239714Y-105026057D01*
X205239714Y-105026057D02*
X205287333Y-104978438D01*
X205287333Y-104978438D02*
X205382571Y-104930819D01*
X209272095Y-105560819D02*
X209272095Y-104560819D01*
X209843523Y-105560819D02*
X209414952Y-104989390D01*
X209843523Y-104560819D02*
X209272095Y-105132247D01*
X164621088Y-110054719D02*
X164287755Y-109578528D01*
X164049660Y-110054719D02*
X164049660Y-109054719D01*
X164049660Y-109054719D02*
X164430612Y-109054719D01*
X164430612Y-109054719D02*
X164525850Y-109102338D01*
X164525850Y-109102338D02*
X164573469Y-109149957D01*
X164573469Y-109149957D02*
X164621088Y-109245195D01*
X164621088Y-109245195D02*
X164621088Y-109388052D01*
X164621088Y-109388052D02*
X164573469Y-109483290D01*
X164573469Y-109483290D02*
X164525850Y-109530909D01*
X164525850Y-109530909D02*
X164430612Y-109578528D01*
X164430612Y-109578528D02*
X164049660Y-109578528D01*
X165478231Y-109054719D02*
X165287755Y-109054719D01*
X165287755Y-109054719D02*
X165192517Y-109102338D01*
X165192517Y-109102338D02*
X165144898Y-109149957D01*
X165144898Y-109149957D02*
X165049660Y-109292814D01*
X165049660Y-109292814D02*
X165002041Y-109483290D01*
X165002041Y-109483290D02*
X165002041Y-109864242D01*
X165002041Y-109864242D02*
X165049660Y-109959480D01*
X165049660Y-109959480D02*
X165097279Y-110007100D01*
X165097279Y-110007100D02*
X165192517Y-110054719D01*
X165192517Y-110054719D02*
X165382993Y-110054719D01*
X165382993Y-110054719D02*
X165478231Y-110007100D01*
X165478231Y-110007100D02*
X165525850Y-109959480D01*
X165525850Y-109959480D02*
X165573469Y-109864242D01*
X165573469Y-109864242D02*
X165573469Y-109626147D01*
X165573469Y-109626147D02*
X165525850Y-109530909D01*
X165525850Y-109530909D02*
X165478231Y-109483290D01*
X165478231Y-109483290D02*
X165382993Y-109435671D01*
X165382993Y-109435671D02*
X165192517Y-109435671D01*
X165192517Y-109435671D02*
X165097279Y-109483290D01*
X165097279Y-109483290D02*
X165049660Y-109530909D01*
X165049660Y-109530909D02*
X165002041Y-109626147D01*
X217518714Y-105870819D02*
X217518714Y-104870819D01*
X217518714Y-104870819D02*
X217756809Y-104870819D01*
X217756809Y-104870819D02*
X217899666Y-104918438D01*
X217899666Y-104918438D02*
X217994904Y-105013676D01*
X217994904Y-105013676D02*
X218042523Y-105108914D01*
X218042523Y-105108914D02*
X218090142Y-105299390D01*
X218090142Y-105299390D02*
X218090142Y-105442247D01*
X218090142Y-105442247D02*
X218042523Y-105632723D01*
X218042523Y-105632723D02*
X217994904Y-105727961D01*
X217994904Y-105727961D02*
X217899666Y-105823200D01*
X217899666Y-105823200D02*
X217756809Y-105870819D01*
X217756809Y-105870819D02*
X217518714Y-105870819D01*
X219042523Y-105870819D02*
X218471095Y-105870819D01*
X218756809Y-105870819D02*
X218756809Y-104870819D01*
X218756809Y-104870819D02*
X218661571Y-105013676D01*
X218661571Y-105013676D02*
X218566333Y-105108914D01*
X218566333Y-105108914D02*
X218471095Y-105156533D01*
X219994904Y-105870819D02*
X219423476Y-105870819D01*
X219709190Y-105870819D02*
X219709190Y-104870819D01*
X219709190Y-104870819D02*
X219613952Y-105013676D01*
X219613952Y-105013676D02*
X219518714Y-105108914D01*
X219518714Y-105108914D02*
X219423476Y-105156533D01*
X223551095Y-105500819D02*
X223551095Y-104500819D01*
X224122523Y-105500819D02*
X223693952Y-104929390D01*
X224122523Y-104500819D02*
X223551095Y-105072247D01*
X221922142Y-126569819D02*
X221588809Y-126093628D01*
X221350714Y-126569819D02*
X221350714Y-125569819D01*
X221350714Y-125569819D02*
X221731666Y-125569819D01*
X221731666Y-125569819D02*
X221826904Y-125617438D01*
X221826904Y-125617438D02*
X221874523Y-125665057D01*
X221874523Y-125665057D02*
X221922142Y-125760295D01*
X221922142Y-125760295D02*
X221922142Y-125903152D01*
X221922142Y-125903152D02*
X221874523Y-125998390D01*
X221874523Y-125998390D02*
X221826904Y-126046009D01*
X221826904Y-126046009D02*
X221731666Y-126093628D01*
X221731666Y-126093628D02*
X221350714Y-126093628D01*
X222303095Y-125665057D02*
X222350714Y-125617438D01*
X222350714Y-125617438D02*
X222445952Y-125569819D01*
X222445952Y-125569819D02*
X222684047Y-125569819D01*
X222684047Y-125569819D02*
X222779285Y-125617438D01*
X222779285Y-125617438D02*
X222826904Y-125665057D01*
X222826904Y-125665057D02*
X222874523Y-125760295D01*
X222874523Y-125760295D02*
X222874523Y-125855533D01*
X222874523Y-125855533D02*
X222826904Y-125998390D01*
X222826904Y-125998390D02*
X222255476Y-126569819D01*
X222255476Y-126569819D02*
X222874523Y-126569819D01*
X223255476Y-125665057D02*
X223303095Y-125617438D01*
X223303095Y-125617438D02*
X223398333Y-125569819D01*
X223398333Y-125569819D02*
X223636428Y-125569819D01*
X223636428Y-125569819D02*
X223731666Y-125617438D01*
X223731666Y-125617438D02*
X223779285Y-125665057D01*
X223779285Y-125665057D02*
X223826904Y-125760295D01*
X223826904Y-125760295D02*
X223826904Y-125855533D01*
X223826904Y-125855533D02*
X223779285Y-125998390D01*
X223779285Y-125998390D02*
X223207857Y-126569819D01*
X223207857Y-126569819D02*
X223826904Y-126569819D01*
X110688333Y-116615819D02*
X110355000Y-116139628D01*
X110116905Y-116615819D02*
X110116905Y-115615819D01*
X110116905Y-115615819D02*
X110497857Y-115615819D01*
X110497857Y-115615819D02*
X110593095Y-115663438D01*
X110593095Y-115663438D02*
X110640714Y-115711057D01*
X110640714Y-115711057D02*
X110688333Y-115806295D01*
X110688333Y-115806295D02*
X110688333Y-115949152D01*
X110688333Y-115949152D02*
X110640714Y-116044390D01*
X110640714Y-116044390D02*
X110593095Y-116092009D01*
X110593095Y-116092009D02*
X110497857Y-116139628D01*
X110497857Y-116139628D02*
X110116905Y-116139628D01*
X111069286Y-115711057D02*
X111116905Y-115663438D01*
X111116905Y-115663438D02*
X111212143Y-115615819D01*
X111212143Y-115615819D02*
X111450238Y-115615819D01*
X111450238Y-115615819D02*
X111545476Y-115663438D01*
X111545476Y-115663438D02*
X111593095Y-115711057D01*
X111593095Y-115711057D02*
X111640714Y-115806295D01*
X111640714Y-115806295D02*
X111640714Y-115901533D01*
X111640714Y-115901533D02*
X111593095Y-116044390D01*
X111593095Y-116044390D02*
X111021667Y-116615819D01*
X111021667Y-116615819D02*
X111640714Y-116615819D01*
X202756897Y-110044719D02*
X202423564Y-109568528D01*
X202185469Y-110044719D02*
X202185469Y-109044719D01*
X202185469Y-109044719D02*
X202566421Y-109044719D01*
X202566421Y-109044719D02*
X202661659Y-109092338D01*
X202661659Y-109092338D02*
X202709278Y-109139957D01*
X202709278Y-109139957D02*
X202756897Y-109235195D01*
X202756897Y-109235195D02*
X202756897Y-109378052D01*
X202756897Y-109378052D02*
X202709278Y-109473290D01*
X202709278Y-109473290D02*
X202661659Y-109520909D01*
X202661659Y-109520909D02*
X202566421Y-109568528D01*
X202566421Y-109568528D02*
X202185469Y-109568528D01*
X203709278Y-110044719D02*
X203137850Y-110044719D01*
X203423564Y-110044719D02*
X203423564Y-109044719D01*
X203423564Y-109044719D02*
X203328326Y-109187576D01*
X203328326Y-109187576D02*
X203233088Y-109282814D01*
X203233088Y-109282814D02*
X203137850Y-109330433D01*
X204090231Y-109139957D02*
X204137850Y-109092338D01*
X204137850Y-109092338D02*
X204233088Y-109044719D01*
X204233088Y-109044719D02*
X204471183Y-109044719D01*
X204471183Y-109044719D02*
X204566421Y-109092338D01*
X204566421Y-109092338D02*
X204614040Y-109139957D01*
X204614040Y-109139957D02*
X204661659Y-109235195D01*
X204661659Y-109235195D02*
X204661659Y-109330433D01*
X204661659Y-109330433D02*
X204614040Y-109473290D01*
X204614040Y-109473290D02*
X204042612Y-110044719D01*
X204042612Y-110044719D02*
X204661659Y-110044719D01*
X106670524Y-138786819D02*
X106670524Y-137786819D01*
X106670524Y-138263009D02*
X107241952Y-138263009D01*
X107241952Y-138786819D02*
X107241952Y-137786819D01*
X107575286Y-137786819D02*
X107908619Y-138786819D01*
X107908619Y-138786819D02*
X108241952Y-137786819D01*
X109003857Y-138120152D02*
X109003857Y-138786819D01*
X108765762Y-137739200D02*
X108527667Y-138453485D01*
X108527667Y-138453485D02*
X109146714Y-138453485D01*
X104134580Y-132507166D02*
X104182200Y-132554785D01*
X104182200Y-132554785D02*
X104229819Y-132697642D01*
X104229819Y-132697642D02*
X104229819Y-132792880D01*
X104229819Y-132792880D02*
X104182200Y-132935737D01*
X104182200Y-132935737D02*
X104086961Y-133030975D01*
X104086961Y-133030975D02*
X103991723Y-133078594D01*
X103991723Y-133078594D02*
X103801247Y-133126213D01*
X103801247Y-133126213D02*
X103658390Y-133126213D01*
X103658390Y-133126213D02*
X103467914Y-133078594D01*
X103467914Y-133078594D02*
X103372676Y-133030975D01*
X103372676Y-133030975D02*
X103277438Y-132935737D01*
X103277438Y-132935737D02*
X103229819Y-132792880D01*
X103229819Y-132792880D02*
X103229819Y-132697642D01*
X103229819Y-132697642D02*
X103277438Y-132554785D01*
X103277438Y-132554785D02*
X103325057Y-132507166D01*
X103229819Y-132173832D02*
X103229819Y-131554785D01*
X103229819Y-131554785D02*
X103610771Y-131888118D01*
X103610771Y-131888118D02*
X103610771Y-131745261D01*
X103610771Y-131745261D02*
X103658390Y-131650023D01*
X103658390Y-131650023D02*
X103706009Y-131602404D01*
X103706009Y-131602404D02*
X103801247Y-131554785D01*
X103801247Y-131554785D02*
X104039342Y-131554785D01*
X104039342Y-131554785D02*
X104134580Y-131602404D01*
X104134580Y-131602404D02*
X104182200Y-131650023D01*
X104182200Y-131650023D02*
X104229819Y-131745261D01*
X104229819Y-131745261D02*
X104229819Y-132030975D01*
X104229819Y-132030975D02*
X104182200Y-132126213D01*
X104182200Y-132126213D02*
X104134580Y-132173832D01*
X202756897Y-115710719D02*
X202423564Y-115234528D01*
X202185469Y-115710719D02*
X202185469Y-114710719D01*
X202185469Y-114710719D02*
X202566421Y-114710719D01*
X202566421Y-114710719D02*
X202661659Y-114758338D01*
X202661659Y-114758338D02*
X202709278Y-114805957D01*
X202709278Y-114805957D02*
X202756897Y-114901195D01*
X202756897Y-114901195D02*
X202756897Y-115044052D01*
X202756897Y-115044052D02*
X202709278Y-115139290D01*
X202709278Y-115139290D02*
X202661659Y-115186909D01*
X202661659Y-115186909D02*
X202566421Y-115234528D01*
X202566421Y-115234528D02*
X202185469Y-115234528D01*
X203709278Y-115710719D02*
X203137850Y-115710719D01*
X203423564Y-115710719D02*
X203423564Y-114710719D01*
X203423564Y-114710719D02*
X203328326Y-114853576D01*
X203328326Y-114853576D02*
X203233088Y-114948814D01*
X203233088Y-114948814D02*
X203137850Y-114996433D01*
X204042612Y-114710719D02*
X204661659Y-114710719D01*
X204661659Y-114710719D02*
X204328326Y-115091671D01*
X204328326Y-115091671D02*
X204471183Y-115091671D01*
X204471183Y-115091671D02*
X204566421Y-115139290D01*
X204566421Y-115139290D02*
X204614040Y-115186909D01*
X204614040Y-115186909D02*
X204661659Y-115282147D01*
X204661659Y-115282147D02*
X204661659Y-115520242D01*
X204661659Y-115520242D02*
X204614040Y-115615480D01*
X204614040Y-115615480D02*
X204566421Y-115663100D01*
X204566421Y-115663100D02*
X204471183Y-115710719D01*
X204471183Y-115710719D02*
X204185469Y-115710719D01*
X204185469Y-115710719D02*
X204090231Y-115663100D01*
X204090231Y-115663100D02*
X204042612Y-115615480D01*
X175106088Y-110022719D02*
X174772755Y-109546528D01*
X174534660Y-110022719D02*
X174534660Y-109022719D01*
X174534660Y-109022719D02*
X174915612Y-109022719D01*
X174915612Y-109022719D02*
X175010850Y-109070338D01*
X175010850Y-109070338D02*
X175058469Y-109117957D01*
X175058469Y-109117957D02*
X175106088Y-109213195D01*
X175106088Y-109213195D02*
X175106088Y-109356052D01*
X175106088Y-109356052D02*
X175058469Y-109451290D01*
X175058469Y-109451290D02*
X175010850Y-109498909D01*
X175010850Y-109498909D02*
X174915612Y-109546528D01*
X174915612Y-109546528D02*
X174534660Y-109546528D01*
X175677517Y-109451290D02*
X175582279Y-109403671D01*
X175582279Y-109403671D02*
X175534660Y-109356052D01*
X175534660Y-109356052D02*
X175487041Y-109260814D01*
X175487041Y-109260814D02*
X175487041Y-109213195D01*
X175487041Y-109213195D02*
X175534660Y-109117957D01*
X175534660Y-109117957D02*
X175582279Y-109070338D01*
X175582279Y-109070338D02*
X175677517Y-109022719D01*
X175677517Y-109022719D02*
X175867993Y-109022719D01*
X175867993Y-109022719D02*
X175963231Y-109070338D01*
X175963231Y-109070338D02*
X176010850Y-109117957D01*
X176010850Y-109117957D02*
X176058469Y-109213195D01*
X176058469Y-109213195D02*
X176058469Y-109260814D01*
X176058469Y-109260814D02*
X176010850Y-109356052D01*
X176010850Y-109356052D02*
X175963231Y-109403671D01*
X175963231Y-109403671D02*
X175867993Y-109451290D01*
X175867993Y-109451290D02*
X175677517Y-109451290D01*
X175677517Y-109451290D02*
X175582279Y-109498909D01*
X175582279Y-109498909D02*
X175534660Y-109546528D01*
X175534660Y-109546528D02*
X175487041Y-109641766D01*
X175487041Y-109641766D02*
X175487041Y-109832242D01*
X175487041Y-109832242D02*
X175534660Y-109927480D01*
X175534660Y-109927480D02*
X175582279Y-109975100D01*
X175582279Y-109975100D02*
X175677517Y-110022719D01*
X175677517Y-110022719D02*
X175867993Y-110022719D01*
X175867993Y-110022719D02*
X175963231Y-109975100D01*
X175963231Y-109975100D02*
X176010850Y-109927480D01*
X176010850Y-109927480D02*
X176058469Y-109832242D01*
X176058469Y-109832242D02*
X176058469Y-109641766D01*
X176058469Y-109641766D02*
X176010850Y-109546528D01*
X176010850Y-109546528D02*
X175963231Y-109498909D01*
X175963231Y-109498909D02*
X175867993Y-109451290D01*
X141767143Y-124335820D02*
X141433810Y-123859629D01*
X141195715Y-124335820D02*
X141195715Y-123335820D01*
X141195715Y-123335820D02*
X141576667Y-123335820D01*
X141576667Y-123335820D02*
X141671905Y-123383439D01*
X141671905Y-123383439D02*
X141719524Y-123431058D01*
X141719524Y-123431058D02*
X141767143Y-123526296D01*
X141767143Y-123526296D02*
X141767143Y-123669153D01*
X141767143Y-123669153D02*
X141719524Y-123764391D01*
X141719524Y-123764391D02*
X141671905Y-123812010D01*
X141671905Y-123812010D02*
X141576667Y-123859629D01*
X141576667Y-123859629D02*
X141195715Y-123859629D01*
X142719524Y-124335820D02*
X142148096Y-124335820D01*
X142433810Y-124335820D02*
X142433810Y-123335820D01*
X142433810Y-123335820D02*
X142338572Y-123478677D01*
X142338572Y-123478677D02*
X142243334Y-123573915D01*
X142243334Y-123573915D02*
X142148096Y-123621534D01*
X143195715Y-124335820D02*
X143386191Y-124335820D01*
X143386191Y-124335820D02*
X143481429Y-124288201D01*
X143481429Y-124288201D02*
X143529048Y-124240581D01*
X143529048Y-124240581D02*
X143624286Y-124097724D01*
X143624286Y-124097724D02*
X143671905Y-123907248D01*
X143671905Y-123907248D02*
X143671905Y-123526296D01*
X143671905Y-123526296D02*
X143624286Y-123431058D01*
X143624286Y-123431058D02*
X143576667Y-123383439D01*
X143576667Y-123383439D02*
X143481429Y-123335820D01*
X143481429Y-123335820D02*
X143290953Y-123335820D01*
X143290953Y-123335820D02*
X143195715Y-123383439D01*
X143195715Y-123383439D02*
X143148096Y-123431058D01*
X143148096Y-123431058D02*
X143100477Y-123526296D01*
X143100477Y-123526296D02*
X143100477Y-123764391D01*
X143100477Y-123764391D02*
X143148096Y-123859629D01*
X143148096Y-123859629D02*
X143195715Y-123907248D01*
X143195715Y-123907248D02*
X143290953Y-123954867D01*
X143290953Y-123954867D02*
X143481429Y-123954867D01*
X143481429Y-123954867D02*
X143576667Y-123907248D01*
X143576667Y-123907248D02*
X143624286Y-123859629D01*
X143624286Y-123859629D02*
X143671905Y-123764391D01*
X213803335Y-134214566D02*
X213850955Y-134262185D01*
X213850955Y-134262185D02*
X213898574Y-134405042D01*
X213898574Y-134405042D02*
X213898574Y-134500280D01*
X213898574Y-134500280D02*
X213850955Y-134643137D01*
X213850955Y-134643137D02*
X213755716Y-134738375D01*
X213755716Y-134738375D02*
X213660478Y-134785994D01*
X213660478Y-134785994D02*
X213470002Y-134833613D01*
X213470002Y-134833613D02*
X213327145Y-134833613D01*
X213327145Y-134833613D02*
X213136669Y-134785994D01*
X213136669Y-134785994D02*
X213041431Y-134738375D01*
X213041431Y-134738375D02*
X212946193Y-134643137D01*
X212946193Y-134643137D02*
X212898574Y-134500280D01*
X212898574Y-134500280D02*
X212898574Y-134405042D01*
X212898574Y-134405042D02*
X212946193Y-134262185D01*
X212946193Y-134262185D02*
X212993812Y-134214566D01*
X213898574Y-133738375D02*
X213898574Y-133547899D01*
X213898574Y-133547899D02*
X213850955Y-133452661D01*
X213850955Y-133452661D02*
X213803335Y-133405042D01*
X213803335Y-133405042D02*
X213660478Y-133309804D01*
X213660478Y-133309804D02*
X213470002Y-133262185D01*
X213470002Y-133262185D02*
X213089050Y-133262185D01*
X213089050Y-133262185D02*
X212993812Y-133309804D01*
X212993812Y-133309804D02*
X212946193Y-133357423D01*
X212946193Y-133357423D02*
X212898574Y-133452661D01*
X212898574Y-133452661D02*
X212898574Y-133643137D01*
X212898574Y-133643137D02*
X212946193Y-133738375D01*
X212946193Y-133738375D02*
X212993812Y-133785994D01*
X212993812Y-133785994D02*
X213089050Y-133833613D01*
X213089050Y-133833613D02*
X213327145Y-133833613D01*
X213327145Y-133833613D02*
X213422383Y-133785994D01*
X213422383Y-133785994D02*
X213470002Y-133738375D01*
X213470002Y-133738375D02*
X213517621Y-133643137D01*
X213517621Y-133643137D02*
X213517621Y-133452661D01*
X213517621Y-133452661D02*
X213470002Y-133357423D01*
X213470002Y-133357423D02*
X213422383Y-133309804D01*
X213422383Y-133309804D02*
X213327145Y-133262185D01*
X106620305Y-105749819D02*
X106620305Y-104749819D01*
X106620305Y-104749819D02*
X106858400Y-104749819D01*
X106858400Y-104749819D02*
X107001257Y-104797438D01*
X107001257Y-104797438D02*
X107096495Y-104892676D01*
X107096495Y-104892676D02*
X107144114Y-104987914D01*
X107144114Y-104987914D02*
X107191733Y-105178390D01*
X107191733Y-105178390D02*
X107191733Y-105321247D01*
X107191733Y-105321247D02*
X107144114Y-105511723D01*
X107144114Y-105511723D02*
X107096495Y-105606961D01*
X107096495Y-105606961D02*
X107001257Y-105702200D01*
X107001257Y-105702200D02*
X106858400Y-105749819D01*
X106858400Y-105749819D02*
X106620305Y-105749819D01*
X108048876Y-104749819D02*
X107858400Y-104749819D01*
X107858400Y-104749819D02*
X107763162Y-104797438D01*
X107763162Y-104797438D02*
X107715543Y-104845057D01*
X107715543Y-104845057D02*
X107620305Y-104987914D01*
X107620305Y-104987914D02*
X107572686Y-105178390D01*
X107572686Y-105178390D02*
X107572686Y-105559342D01*
X107572686Y-105559342D02*
X107620305Y-105654580D01*
X107620305Y-105654580D02*
X107667924Y-105702200D01*
X107667924Y-105702200D02*
X107763162Y-105749819D01*
X107763162Y-105749819D02*
X107953638Y-105749819D01*
X107953638Y-105749819D02*
X108048876Y-105702200D01*
X108048876Y-105702200D02*
X108096495Y-105654580D01*
X108096495Y-105654580D02*
X108144114Y-105559342D01*
X108144114Y-105559342D02*
X108144114Y-105321247D01*
X108144114Y-105321247D02*
X108096495Y-105226009D01*
X108096495Y-105226009D02*
X108048876Y-105178390D01*
X108048876Y-105178390D02*
X107953638Y-105130771D01*
X107953638Y-105130771D02*
X107763162Y-105130771D01*
X107763162Y-105130771D02*
X107667924Y-105178390D01*
X107667924Y-105178390D02*
X107620305Y-105226009D01*
X107620305Y-105226009D02*
X107572686Y-105321247D01*
X112176495Y-105379819D02*
X112176495Y-104379819D01*
X112747923Y-105379819D02*
X112319352Y-104808390D01*
X112747923Y-104379819D02*
X112176495Y-104951247D01*
X173822524Y-139522819D02*
X173822524Y-138522819D01*
X173822524Y-138999009D02*
X174393952Y-138999009D01*
X174393952Y-139522819D02*
X174393952Y-138522819D01*
X174727286Y-138522819D02*
X175060619Y-139522819D01*
X175060619Y-139522819D02*
X175393952Y-138522819D01*
X175870143Y-138951390D02*
X175774905Y-138903771D01*
X175774905Y-138903771D02*
X175727286Y-138856152D01*
X175727286Y-138856152D02*
X175679667Y-138760914D01*
X175679667Y-138760914D02*
X175679667Y-138713295D01*
X175679667Y-138713295D02*
X175727286Y-138618057D01*
X175727286Y-138618057D02*
X175774905Y-138570438D01*
X175774905Y-138570438D02*
X175870143Y-138522819D01*
X175870143Y-138522819D02*
X176060619Y-138522819D01*
X176060619Y-138522819D02*
X176155857Y-138570438D01*
X176155857Y-138570438D02*
X176203476Y-138618057D01*
X176203476Y-138618057D02*
X176251095Y-138713295D01*
X176251095Y-138713295D02*
X176251095Y-138760914D01*
X176251095Y-138760914D02*
X176203476Y-138856152D01*
X176203476Y-138856152D02*
X176155857Y-138903771D01*
X176155857Y-138903771D02*
X176060619Y-138951390D01*
X176060619Y-138951390D02*
X175870143Y-138951390D01*
X175870143Y-138951390D02*
X175774905Y-138999009D01*
X175774905Y-138999009D02*
X175727286Y-139046628D01*
X175727286Y-139046628D02*
X175679667Y-139141866D01*
X175679667Y-139141866D02*
X175679667Y-139332342D01*
X175679667Y-139332342D02*
X175727286Y-139427580D01*
X175727286Y-139427580D02*
X175774905Y-139475200D01*
X175774905Y-139475200D02*
X175870143Y-139522819D01*
X175870143Y-139522819D02*
X176060619Y-139522819D01*
X176060619Y-139522819D02*
X176155857Y-139475200D01*
X176155857Y-139475200D02*
X176203476Y-139427580D01*
X176203476Y-139427580D02*
X176251095Y-139332342D01*
X176251095Y-139332342D02*
X176251095Y-139141866D01*
X176251095Y-139141866D02*
X176203476Y-139046628D01*
X176203476Y-139046628D02*
X176155857Y-138999009D01*
X176155857Y-138999009D02*
X176060619Y-138951390D01*
X255420575Y-113277757D02*
X254944384Y-113611090D01*
X255420575Y-113849185D02*
X254420575Y-113849185D01*
X254420575Y-113849185D02*
X254420575Y-113468233D01*
X254420575Y-113468233D02*
X254468194Y-113372995D01*
X254468194Y-113372995D02*
X254515813Y-113325376D01*
X254515813Y-113325376D02*
X254611051Y-113277757D01*
X254611051Y-113277757D02*
X254753908Y-113277757D01*
X254753908Y-113277757D02*
X254849146Y-113325376D01*
X254849146Y-113325376D02*
X254896765Y-113372995D01*
X254896765Y-113372995D02*
X254944384Y-113468233D01*
X254944384Y-113468233D02*
X254944384Y-113849185D01*
X255420575Y-112325376D02*
X255420575Y-112896804D01*
X255420575Y-112611090D02*
X254420575Y-112611090D01*
X254420575Y-112611090D02*
X254563432Y-112706328D01*
X254563432Y-112706328D02*
X254658670Y-112801566D01*
X254658670Y-112801566D02*
X254706289Y-112896804D01*
X254420575Y-111420614D02*
X254420575Y-111896804D01*
X254420575Y-111896804D02*
X254896765Y-111944423D01*
X254896765Y-111944423D02*
X254849146Y-111896804D01*
X254849146Y-111896804D02*
X254801527Y-111801566D01*
X254801527Y-111801566D02*
X254801527Y-111563471D01*
X254801527Y-111563471D02*
X254849146Y-111468233D01*
X254849146Y-111468233D02*
X254896765Y-111420614D01*
X254896765Y-111420614D02*
X254992003Y-111372995D01*
X254992003Y-111372995D02*
X255230098Y-111372995D01*
X255230098Y-111372995D02*
X255325336Y-111420614D01*
X255325336Y-111420614D02*
X255372956Y-111468233D01*
X255372956Y-111468233D02*
X255420575Y-111563471D01*
X255420575Y-111563471D02*
X255420575Y-111801566D01*
X255420575Y-111801566D02*
X255372956Y-111896804D01*
X255372956Y-111896804D02*
X255325336Y-111944423D01*
X123332905Y-105749819D02*
X123332905Y-104749819D01*
X123332905Y-104749819D02*
X123571000Y-104749819D01*
X123571000Y-104749819D02*
X123713857Y-104797438D01*
X123713857Y-104797438D02*
X123809095Y-104892676D01*
X123809095Y-104892676D02*
X123856714Y-104987914D01*
X123856714Y-104987914D02*
X123904333Y-105178390D01*
X123904333Y-105178390D02*
X123904333Y-105321247D01*
X123904333Y-105321247D02*
X123856714Y-105511723D01*
X123856714Y-105511723D02*
X123809095Y-105606961D01*
X123809095Y-105606961D02*
X123713857Y-105702200D01*
X123713857Y-105702200D02*
X123571000Y-105749819D01*
X123571000Y-105749819D02*
X123332905Y-105749819D01*
X124237667Y-104749819D02*
X124904333Y-104749819D01*
X124904333Y-104749819D02*
X124475762Y-105749819D01*
X128889095Y-105379819D02*
X128889095Y-104379819D01*
X129460523Y-105379819D02*
X129031952Y-104808390D01*
X129460523Y-104379819D02*
X128889095Y-104951247D01*
X96340505Y-118443819D02*
X96340505Y-117443819D01*
X96340505Y-117443819D02*
X96578600Y-117443819D01*
X96578600Y-117443819D02*
X96721457Y-117491438D01*
X96721457Y-117491438D02*
X96816695Y-117586676D01*
X96816695Y-117586676D02*
X96864314Y-117681914D01*
X96864314Y-117681914D02*
X96911933Y-117872390D01*
X96911933Y-117872390D02*
X96911933Y-118015247D01*
X96911933Y-118015247D02*
X96864314Y-118205723D01*
X96864314Y-118205723D02*
X96816695Y-118300961D01*
X96816695Y-118300961D02*
X96721457Y-118396200D01*
X96721457Y-118396200D02*
X96578600Y-118443819D01*
X96578600Y-118443819D02*
X96340505Y-118443819D01*
X97816695Y-117443819D02*
X97340505Y-117443819D01*
X97340505Y-117443819D02*
X97292886Y-117920009D01*
X97292886Y-117920009D02*
X97340505Y-117872390D01*
X97340505Y-117872390D02*
X97435743Y-117824771D01*
X97435743Y-117824771D02*
X97673838Y-117824771D01*
X97673838Y-117824771D02*
X97769076Y-117872390D01*
X97769076Y-117872390D02*
X97816695Y-117920009D01*
X97816695Y-117920009D02*
X97864314Y-118015247D01*
X97864314Y-118015247D02*
X97864314Y-118253342D01*
X97864314Y-118253342D02*
X97816695Y-118348580D01*
X97816695Y-118348580D02*
X97769076Y-118396200D01*
X97769076Y-118396200D02*
X97673838Y-118443819D01*
X97673838Y-118443819D02*
X97435743Y-118443819D01*
X97435743Y-118443819D02*
X97340505Y-118396200D01*
X97340505Y-118396200D02*
X97292886Y-118348580D01*
X101896695Y-118073819D02*
X101896695Y-117073819D01*
X102468123Y-118073819D02*
X102039552Y-117502390D01*
X102468123Y-117073819D02*
X101896695Y-117645247D01*
X200359335Y-134200566D02*
X200406955Y-134248185D01*
X200406955Y-134248185D02*
X200454574Y-134391042D01*
X200454574Y-134391042D02*
X200454574Y-134486280D01*
X200454574Y-134486280D02*
X200406955Y-134629137D01*
X200406955Y-134629137D02*
X200311716Y-134724375D01*
X200311716Y-134724375D02*
X200216478Y-134771994D01*
X200216478Y-134771994D02*
X200026002Y-134819613D01*
X200026002Y-134819613D02*
X199883145Y-134819613D01*
X199883145Y-134819613D02*
X199692669Y-134771994D01*
X199692669Y-134771994D02*
X199597431Y-134724375D01*
X199597431Y-134724375D02*
X199502193Y-134629137D01*
X199502193Y-134629137D02*
X199454574Y-134486280D01*
X199454574Y-134486280D02*
X199454574Y-134391042D01*
X199454574Y-134391042D02*
X199502193Y-134248185D01*
X199502193Y-134248185D02*
X199549812Y-134200566D01*
X199454574Y-133867232D02*
X199454574Y-133200566D01*
X199454574Y-133200566D02*
X200454574Y-133629137D01*
D11*
%TO.C,R3*%
X59353936Y-119071000D02*
X63708064Y-119071000D01*
X59353936Y-122491000D02*
X63708064Y-122491000D01*
%TO.C,C5*%
X131828000Y-133971748D02*
X131828000Y-131140252D01*
X137048000Y-133971748D02*
X137048000Y-131140252D01*
%TO.C,C8*%
X186471755Y-131408148D02*
X186471755Y-133730652D01*
X183051755Y-131408148D02*
X183051755Y-133730652D01*
%TO.C,R14*%
X247831755Y-110519835D02*
X247831755Y-114873963D01*
X244411755Y-110519835D02*
X244411755Y-114873963D01*
%TO.C,R5*%
X119354936Y-117090000D02*
X123709064Y-117090000D01*
X119354936Y-120510000D02*
X123709064Y-120510000D01*
%TO.C,C4*%
X76478000Y-133812252D02*
X76478000Y-131489748D01*
X79898000Y-133812252D02*
X79898000Y-131489748D01*
%TO.C,D8*%
X191631755Y-102959900D02*
X190611755Y-102959900D01*
X190611755Y-104429900D02*
X190611755Y-101489900D01*
X190611755Y-101489900D02*
X185171755Y-101489900D01*
X189831755Y-104429900D02*
X189831755Y-101489900D01*
X189711755Y-104429900D02*
X189711755Y-101489900D01*
X189591755Y-104429900D02*
X189591755Y-101489900D01*
X185171755Y-104429900D02*
X190611755Y-104429900D01*
X185171755Y-101489900D02*
X185171755Y-104429900D01*
X184151755Y-102959900D02*
X185171755Y-102959900D01*
%TO.C,HV3*%
X86830000Y-145980000D02*
X86830000Y-144710000D01*
X91910000Y-145980000D02*
X91910000Y-144710000D01*
X87973000Y-146107000D02*
X90894000Y-146107000D01*
X90894000Y-146107000D02*
X90894000Y-128059000D01*
X90894000Y-128059000D02*
X87973000Y-128059000D01*
X87973000Y-128059000D02*
X87973000Y-146107000D01*
%TO.C,HV7*%
X234808755Y-146309900D02*
X234808755Y-145039900D01*
X239888755Y-146309900D02*
X239888755Y-145039900D01*
X235951755Y-146436900D02*
X238872755Y-146436900D01*
X238872755Y-146436900D02*
X238872755Y-128388900D01*
X238872755Y-128388900D02*
X235951755Y-128388900D01*
X235951755Y-128388900D02*
X235951755Y-146436900D01*
%TO.C,HV6*%
X191669755Y-146039900D02*
X191669755Y-144769900D01*
X196749755Y-146039900D02*
X196749755Y-144769900D01*
X192812755Y-146166900D02*
X195733755Y-146166900D01*
X195733755Y-146166900D02*
X195733755Y-128118900D01*
X195733755Y-128118900D02*
X192812755Y-128118900D01*
X192812755Y-128118900D02*
X192812755Y-146166900D01*
%TO.C,HV1*%
X52329000Y-146018000D02*
X52329000Y-144748000D01*
X57409000Y-146018000D02*
X57409000Y-144748000D01*
X53472000Y-146145000D02*
X56393000Y-146145000D01*
X56393000Y-146145000D02*
X56393000Y-128097000D01*
X56393000Y-128097000D02*
X53472000Y-128097000D01*
X53472000Y-128097000D02*
X53472000Y-146145000D01*
%TO.C,J3*%
X85277000Y-99586000D02*
G75*
G03*
X85277000Y-99586000I-2286000J0D01*
G01*
%TO.C,D4*%
X84106000Y-115519000D02*
X83086000Y-115519000D01*
X83086000Y-116989000D02*
X83086000Y-114049000D01*
X83086000Y-114049000D02*
X77646000Y-114049000D01*
X82306000Y-116989000D02*
X82306000Y-114049000D01*
X82186000Y-116989000D02*
X82186000Y-114049000D01*
X82066000Y-116989000D02*
X82066000Y-114049000D01*
X77646000Y-116989000D02*
X83086000Y-116989000D01*
X77646000Y-114049000D02*
X77646000Y-116989000D01*
X76626000Y-115519000D02*
X77646000Y-115519000D01*
%TO.C,R23*%
X232685000Y-117165000D02*
X212445000Y-117165000D01*
X232685000Y-115285000D02*
X232685000Y-117165000D01*
X232685000Y-112405000D02*
X232685000Y-110525000D01*
X232685000Y-110525000D02*
X212445000Y-110525000D01*
X212445000Y-117165000D02*
X212445000Y-115285000D01*
X212445000Y-110525000D02*
X212445000Y-112405000D01*
%TO.C,R16*%
X254055755Y-120200836D02*
X254055755Y-124554964D01*
X250635755Y-120200836D02*
X250635755Y-124554964D01*
%TO.C,R24*%
X152575000Y-114883000D02*
X132335000Y-114883000D01*
X152575000Y-113003000D02*
X152575000Y-114883000D01*
X152575000Y-110123000D02*
X152575000Y-108243000D01*
X152575000Y-108243000D02*
X132335000Y-108243000D01*
X132335000Y-114883000D02*
X132335000Y-113003000D01*
X132335000Y-108243000D02*
X132335000Y-110123000D01*
%TO.C,HV2*%
X65329000Y-146018000D02*
X65329000Y-144748000D01*
X70409000Y-146018000D02*
X70409000Y-144748000D01*
X66472000Y-146145000D02*
X69393000Y-146145000D01*
X69393000Y-146145000D02*
X69393000Y-128097000D01*
X69393000Y-128097000D02*
X66472000Y-128097000D01*
X66472000Y-128097000D02*
X66472000Y-146145000D01*
%TO.C,D2*%
X174858755Y-103000900D02*
X173838755Y-103000900D01*
X173838755Y-104470900D02*
X173838755Y-101530900D01*
X173838755Y-101530900D02*
X168398755Y-101530900D01*
X173058755Y-104470900D02*
X173058755Y-101530900D01*
X172938755Y-104470900D02*
X172938755Y-101530900D01*
X172818755Y-104470900D02*
X172818755Y-101530900D01*
X168398755Y-104470900D02*
X173838755Y-104470900D01*
X168398755Y-101530900D02*
X168398755Y-104470900D01*
X167378755Y-103000900D02*
X168398755Y-103000900D01*
%TO.C,R4*%
X119357936Y-111459000D02*
X123712064Y-111459000D01*
X119357936Y-114879000D02*
X123712064Y-114879000D01*
%TO.C,R9*%
X173069691Y-116137900D02*
X177423819Y-116137900D01*
X173069691Y-119557900D02*
X177423819Y-119557900D01*
%TO.C,C2*%
X117801000Y-134045248D02*
X117801000Y-131213752D01*
X123021000Y-134045248D02*
X123021000Y-131213752D01*
%TO.C,R10*%
X190656691Y-110499900D02*
X195010819Y-110499900D01*
X190656691Y-113919900D02*
X195010819Y-113919900D01*
%TO.C,C6*%
X143976000Y-131997248D02*
X143976000Y-134319752D01*
X140556000Y-131997248D02*
X140556000Y-134319752D01*
%TO.C,HV5*%
X151033000Y-146067000D02*
X151033000Y-144797000D01*
X156113000Y-146067000D02*
X156113000Y-144797000D01*
X152176000Y-146194000D02*
X155097000Y-146194000D01*
X155097000Y-146194000D02*
X155097000Y-128146000D01*
X155097000Y-128146000D02*
X152176000Y-128146000D01*
X152176000Y-128146000D02*
X152176000Y-146194000D01*
%TO.C,D1*%
X67393400Y-115519000D02*
X66373400Y-115519000D01*
X66373400Y-116989000D02*
X66373400Y-114049000D01*
X66373400Y-114049000D02*
X60933400Y-114049000D01*
X65593400Y-116989000D02*
X65593400Y-114049000D01*
X65473400Y-116989000D02*
X65473400Y-114049000D01*
X65353400Y-116989000D02*
X65353400Y-114049000D01*
X60933400Y-116989000D02*
X66373400Y-116989000D01*
X60933400Y-114049000D02*
X60933400Y-116989000D01*
X59913400Y-115519000D02*
X60933400Y-115519000D01*
%TO.C,R1*%
X108724936Y-111466000D02*
X113079064Y-111466000D01*
X108724936Y-114886000D02*
X113079064Y-114886000D01*
%TO.C,C10*%
X225834755Y-133514648D02*
X225834755Y-135837152D01*
X222414755Y-133514648D02*
X222414755Y-135837152D01*
%TO.C,J2*%
X261602955Y-99102900D02*
G75*
G03*
X261602955Y-99102900I-2286000J0D01*
G01*
%TO.C,R11*%
X190656691Y-116318900D02*
X195010819Y-116318900D01*
X190656691Y-119738900D02*
X195010819Y-119738900D01*
%TO.C,D9*%
X205456000Y-102944000D02*
X204436000Y-102944000D01*
X204436000Y-104414000D02*
X204436000Y-101474000D01*
X204436000Y-101474000D02*
X198996000Y-101474000D01*
X203656000Y-104414000D02*
X203656000Y-101474000D01*
X203536000Y-104414000D02*
X203536000Y-101474000D01*
X203416000Y-104414000D02*
X203416000Y-101474000D01*
X198996000Y-104414000D02*
X204436000Y-104414000D01*
X198996000Y-101474000D02*
X198996000Y-104414000D01*
X197976000Y-102944000D02*
X198996000Y-102944000D01*
%TO.C,C1*%
X42617000Y-133812252D02*
X42617000Y-131489748D01*
X46037000Y-133812252D02*
X46037000Y-131489748D01*
%TO.C,R17*%
X247966757Y-120064837D02*
X247966757Y-124418965D01*
X244546757Y-120064837D02*
X244546757Y-124418965D01*
%TO.C,D3*%
X247728000Y-102939000D02*
X246708000Y-102939000D01*
X246708000Y-104409000D02*
X246708000Y-101469000D01*
X246708000Y-101469000D02*
X241268000Y-101469000D01*
X245928000Y-104409000D02*
X245928000Y-101469000D01*
X245808000Y-104409000D02*
X245808000Y-101469000D01*
X245688000Y-104409000D02*
X245688000Y-101469000D01*
X241268000Y-104409000D02*
X246708000Y-104409000D01*
X241268000Y-101469000D02*
X241268000Y-104409000D01*
X240248000Y-102939000D02*
X241268000Y-102939000D01*
%TO.C,R7*%
X162584691Y-116169900D02*
X166938819Y-116169900D01*
X162584691Y-119589900D02*
X166938819Y-119589900D01*
%TO.C,D10*%
X219468000Y-102979000D02*
X218448000Y-102979000D01*
X218448000Y-104449000D02*
X218448000Y-101509000D01*
X218448000Y-101509000D02*
X213008000Y-101509000D01*
X217668000Y-104449000D02*
X217668000Y-101509000D01*
X217548000Y-104449000D02*
X217548000Y-101509000D01*
X217428000Y-104449000D02*
X217428000Y-101509000D01*
X213008000Y-104449000D02*
X218448000Y-104449000D01*
X213008000Y-101509000D02*
X213008000Y-104449000D01*
X211988000Y-102979000D02*
X213008000Y-102979000D01*
%TO.C,R6*%
X162610691Y-110509900D02*
X166964819Y-110509900D01*
X162610691Y-113929900D02*
X166964819Y-113929900D01*
%TO.C,D11*%
X233747000Y-102919000D02*
X232727000Y-102919000D01*
X232727000Y-104389000D02*
X232727000Y-101449000D01*
X232727000Y-101449000D02*
X227287000Y-101449000D01*
X231947000Y-104389000D02*
X231947000Y-101449000D01*
X231827000Y-104389000D02*
X231827000Y-101449000D01*
X231707000Y-104389000D02*
X231707000Y-101449000D01*
X227287000Y-104389000D02*
X232727000Y-104389000D01*
X227287000Y-101449000D02*
X227287000Y-104389000D01*
X226267000Y-102919000D02*
X227287000Y-102919000D01*
%TO.C,R22*%
X232685000Y-125115000D02*
X212445000Y-125115000D01*
X232685000Y-123235000D02*
X232685000Y-125115000D01*
X232685000Y-120355000D02*
X232685000Y-118475000D01*
X232685000Y-118475000D02*
X212445000Y-118475000D01*
X212445000Y-125115000D02*
X212445000Y-123235000D01*
X212445000Y-118475000D02*
X212445000Y-120355000D01*
%TO.C,R2*%
X108677936Y-117071000D02*
X113032064Y-117071000D01*
X108677936Y-120491000D02*
X113032064Y-120491000D01*
%TO.C,R12*%
X201222691Y-110499900D02*
X205576819Y-110499900D01*
X201222691Y-113919900D02*
X205576819Y-113919900D01*
%TO.C,HV4*%
X105239000Y-145947000D02*
X105239000Y-144677000D01*
X110319000Y-145947000D02*
X110319000Y-144677000D01*
X106382000Y-146074000D02*
X109303000Y-146074000D01*
X109303000Y-146074000D02*
X109303000Y-128026000D01*
X109303000Y-128026000D02*
X106382000Y-128026000D01*
X106382000Y-128026000D02*
X106382000Y-146074000D01*
%TO.C,C3*%
X100295000Y-131212248D02*
X100295000Y-133534752D01*
X96875000Y-131212248D02*
X96875000Y-133534752D01*
%TO.C,R13*%
X201222691Y-116165900D02*
X205576819Y-116165900D01*
X201222691Y-119585900D02*
X205576819Y-119585900D01*
%TO.C,R8*%
X173095691Y-110477900D02*
X177449819Y-110477900D01*
X173095691Y-113897900D02*
X177449819Y-113897900D01*
%TO.C,R19*%
X152530001Y-122881001D02*
X132290001Y-122881001D01*
X152530001Y-121001001D02*
X152530001Y-122881001D01*
X152530001Y-118121001D02*
X152530001Y-116241001D01*
X152530001Y-116241001D02*
X132290001Y-116241001D01*
X132290001Y-122881001D02*
X132290001Y-121001001D01*
X132290001Y-116241001D02*
X132290001Y-118121001D01*
%TO.C,C9*%
X214483755Y-135463648D02*
X214483755Y-132632152D01*
X219703755Y-135463648D02*
X219703755Y-132632152D01*
%TO.C,D6*%
X111098400Y-102825000D02*
X110078400Y-102825000D01*
X110078400Y-104295000D02*
X110078400Y-101355000D01*
X110078400Y-101355000D02*
X104638400Y-101355000D01*
X109298400Y-104295000D02*
X109298400Y-101355000D01*
X109178400Y-104295000D02*
X109178400Y-101355000D01*
X109058400Y-104295000D02*
X109058400Y-101355000D01*
X104638400Y-104295000D02*
X110078400Y-104295000D01*
X104638400Y-101355000D02*
X104638400Y-104295000D01*
X103618400Y-102825000D02*
X104638400Y-102825000D01*
%TO.C,HV8*%
X172420755Y-146027900D02*
X172420755Y-144757900D01*
X177500755Y-146027900D02*
X177500755Y-144757900D01*
X173563755Y-146154900D02*
X176484755Y-146154900D01*
X176484755Y-146154900D02*
X176484755Y-128106900D01*
X176484755Y-128106900D02*
X173563755Y-128106900D01*
X173563755Y-128106900D02*
X173563755Y-146154900D01*
%TO.C,R15*%
X254055756Y-110457836D02*
X254055756Y-114811964D01*
X250635756Y-110457836D02*
X250635756Y-114811964D01*
%TO.C,D7*%
X127811000Y-102825000D02*
X126791000Y-102825000D01*
X126791000Y-104295000D02*
X126791000Y-101355000D01*
X126791000Y-101355000D02*
X121351000Y-101355000D01*
X126011000Y-104295000D02*
X126011000Y-101355000D01*
X125891000Y-104295000D02*
X125891000Y-101355000D01*
X125771000Y-104295000D02*
X125771000Y-101355000D01*
X121351000Y-104295000D02*
X126791000Y-104295000D01*
X121351000Y-101355000D02*
X121351000Y-104295000D01*
X120331000Y-102825000D02*
X121351000Y-102825000D01*
%TO.C,J1*%
X61539000Y-99585000D02*
G75*
G03*
X61539000Y-99585000I-2286000J0D01*
G01*
%TO.C,D5*%
X100818600Y-115519000D02*
X99798600Y-115519000D01*
X99798600Y-116989000D02*
X99798600Y-114049000D01*
X99798600Y-114049000D02*
X94358600Y-114049000D01*
X99018600Y-116989000D02*
X99018600Y-114049000D01*
X98898600Y-116989000D02*
X98898600Y-114049000D01*
X98778600Y-116989000D02*
X98778600Y-114049000D01*
X94358600Y-116989000D02*
X99798600Y-116989000D01*
X94358600Y-114049000D02*
X94358600Y-116989000D01*
X93338600Y-115519000D02*
X94358600Y-115519000D01*
%TO.C,C7*%
X201039755Y-135449648D02*
X201039755Y-132618152D01*
X206259755Y-135449648D02*
X206259755Y-132618152D01*
%TD*%
M02*
