%TF.GenerationSoftware,KiCad,Pcbnew,7.0.7*%
%TF.CreationDate,2024-04-16T09:14:21-07:00*%
%TF.ProjectId,hv-pcb-v1,68762d70-6362-42d7-9631-2e6b69636164,rev?*%
%TF.SameCoordinates,Original*%
%TF.FileFunction,Paste,Top*%
%TF.FilePolarity,Positive*%
%FSLAX46Y46*%
G04 Gerber Fmt 4.6, Leading zero omitted, Abs format (unit mm)*
G04 Created by KiCad (PCBNEW 7.0.7) date 2024-04-16 09:14:21*
%MOMM*%
%LPD*%
G01*
G04 APERTURE LIST*
G04 Aperture macros list*
%AMRoundRect*
0 Rectangle with rounded corners*
0 $1 Rounding radius*
0 $2 $3 $4 $5 $6 $7 $8 $9 X,Y pos of 4 corners*
0 Add a 4 corners polygon primitive as box body*
4,1,4,$2,$3,$4,$5,$6,$7,$8,$9,$2,$3,0*
0 Add four circle primitives for the rounded corners*
1,1,$1+$1,$2,$3*
1,1,$1+$1,$4,$5*
1,1,$1+$1,$6,$7*
1,1,$1+$1,$8,$9*
0 Add four rect primitives between the rounded corners*
20,1,$1+$1,$2,$3,$4,$5,0*
20,1,$1+$1,$4,$5,$6,$7,0*
20,1,$1+$1,$6,$7,$8,$9,0*
20,1,$1+$1,$8,$9,$2,$3,0*%
G04 Aperture macros list end*
%ADD10RoundRect,0.249999X-0.450001X-1.425001X0.450001X-1.425001X0.450001X1.425001X-0.450001X1.425001X0*%
%ADD11RoundRect,0.249999X2.450001X-0.737501X2.450001X0.737501X-2.450001X0.737501X-2.450001X-0.737501X0*%
%ADD12RoundRect,0.250000X-1.450000X0.537500X-1.450000X-0.537500X1.450000X-0.537500X1.450000X0.537500X0*%
%ADD13RoundRect,0.249999X-1.425001X0.450001X-1.425001X-0.450001X1.425001X-0.450001X1.425001X0.450001X0*%
%ADD14RoundRect,0.250000X1.450000X-0.537500X1.450000X0.537500X-1.450000X0.537500X-1.450000X-0.537500X0*%
%ADD15RoundRect,0.600000X0.162000X-0.900000X0.162000X0.900000X-0.162000X0.900000X-0.162000X-0.900000X0*%
G04 APERTURE END LIST*
D10*
%TO.C,R3*%
X58481000Y-120781000D03*
X64581000Y-120781000D03*
%TD*%
D11*
%TO.C,C5*%
X134438000Y-135193500D03*
X134438000Y-129918500D03*
%TD*%
D12*
%TO.C,C8*%
X184761755Y-130431900D03*
X184761755Y-134706900D03*
%TD*%
D13*
%TO.C,R14*%
X246121755Y-109646899D03*
X246121755Y-115746899D03*
%TD*%
D10*
%TO.C,R5*%
X118482000Y-118800000D03*
X124582000Y-118800000D03*
%TD*%
D14*
%TO.C,C4*%
X78188000Y-134788500D03*
X78188000Y-130513500D03*
%TD*%
D15*
%TO.C,HV3*%
X89370000Y-126107000D03*
%TD*%
%TO.C,HV7*%
X237348755Y-126436900D03*
%TD*%
%TO.C,HV6*%
X194209755Y-126166900D03*
%TD*%
%TO.C,HV1*%
X54869000Y-126145000D03*
%TD*%
D13*
%TO.C,R16*%
X252345755Y-119327900D03*
X252345755Y-125427900D03*
%TD*%
D15*
%TO.C,HV2*%
X67869000Y-126145000D03*
%TD*%
D10*
%TO.C,R4*%
X118485000Y-113169000D03*
X124585000Y-113169000D03*
%TD*%
%TO.C,R9*%
X172196755Y-117847900D03*
X178296755Y-117847900D03*
%TD*%
D11*
%TO.C,C2*%
X120411000Y-135267000D03*
X120411000Y-129992000D03*
%TD*%
D10*
%TO.C,R10*%
X189783755Y-112209900D03*
X195883755Y-112209900D03*
%TD*%
D12*
%TO.C,C6*%
X142266000Y-131021000D03*
X142266000Y-135296000D03*
%TD*%
D15*
%TO.C,HV5*%
X153573000Y-126194000D03*
%TD*%
D10*
%TO.C,R1*%
X107852000Y-113176000D03*
X113952000Y-113176000D03*
%TD*%
D12*
%TO.C,C10*%
X224124755Y-132538400D03*
X224124755Y-136813400D03*
%TD*%
D10*
%TO.C,R11*%
X189783755Y-118028900D03*
X195883755Y-118028900D03*
%TD*%
D14*
%TO.C,C1*%
X44327000Y-134788500D03*
X44327000Y-130513500D03*
%TD*%
D13*
%TO.C,R17*%
X246256757Y-119191901D03*
X246256757Y-125291901D03*
%TD*%
D10*
%TO.C,R7*%
X161711755Y-117879900D03*
X167811755Y-117879900D03*
%TD*%
%TO.C,R6*%
X161737755Y-112219900D03*
X167837755Y-112219900D03*
%TD*%
%TO.C,R2*%
X107805000Y-118781000D03*
X113905000Y-118781000D03*
%TD*%
%TO.C,R12*%
X200349755Y-112209900D03*
X206449755Y-112209900D03*
%TD*%
D15*
%TO.C,HV4*%
X107779000Y-126074000D03*
%TD*%
D12*
%TO.C,C3*%
X98585000Y-130236000D03*
X98585000Y-134511000D03*
%TD*%
D10*
%TO.C,R13*%
X200349755Y-117875900D03*
X206449755Y-117875900D03*
%TD*%
%TO.C,R8*%
X172222755Y-112187900D03*
X178322755Y-112187900D03*
%TD*%
D11*
%TO.C,C9*%
X217093755Y-136685400D03*
X217093755Y-131410400D03*
%TD*%
D15*
%TO.C,HV8*%
X174960755Y-126154900D03*
%TD*%
D13*
%TO.C,R15*%
X252345756Y-109584900D03*
X252345756Y-115684900D03*
%TD*%
D11*
%TO.C,C7*%
X203649755Y-136671400D03*
X203649755Y-131396400D03*
%TD*%
M02*
