M48
; DRILL file {KiCad 7.0.7} date 2024 April 16, Tuesday 09:14:30
; FORMAT={-:-/ absolute / inch / decimal}
; #@! TF.CreationDate,2024-04-16T09:14:30-07:00
; #@! TF.GenerationSoftware,Kicad,Pcbnew,7.0.7
; #@! TF.FileFunction,Plated,1,2,PTH
FMAT,2
INCH
; #@! TA.AperFunction,Plated,PTH,ViaDrill
T1C0.0157
; #@! TA.AperFunction,Plated,PTH,ComponentDrill
T2C0.0433
; #@! TA.AperFunction,Plated,PTH,ComponentDrill
T3C0.0472
; #@! TA.AperFunction,Plated,PTH,ComponentDrill
T4C0.1181
%
G90
G05
T1
X1.6965Y-5.3649
X1.7909Y-5.3649
X3.0309Y-5.3615
X3.1254Y-5.3615
X3.8349Y-5.3502
X3.9293Y-5.3502
X4.6502Y-5.4081
X4.7117Y-5.4081
X4.7731Y-5.4081
X4.8295Y-5.4081
X5.2025Y-5.3998
X5.2639Y-5.3998
X5.3254Y-5.3998
X5.3818Y-5.3998
X5.5527Y-5.379
X5.6471Y-5.379
X7.2279Y-5.3575
X7.3223Y-5.3575
X7.9279Y-5.4589
X7.9893Y-5.4589
X8.0507Y-5.4589
X8.1071Y-5.4589
X8.4545Y-5.4601
X8.5159Y-5.4601
X8.5774Y-5.4601
X8.6338Y-5.4601
X8.7759Y-5.4388
X8.8703Y-5.4388
X9.6477Y-4.9806
X9.7421Y-4.9806
X9.8863Y-4.9881
X9.9807Y-4.9881
T2
X2.306Y-4.548
X2.706Y-4.548
X2.964Y-4.548
X3.364Y-4.548
X3.622Y-4.548
X4.022Y-4.548
X4.0267Y-4.0482
X4.4267Y-4.0482
X4.6847Y-4.0482
X5.0847Y-4.0482
X6.537Y-4.0552
X6.937Y-4.0552
X7.1973Y-4.0535
X7.5973Y-4.0535
X7.7416Y-4.0529
X8.1416Y-4.0529
X8.2932Y-4.0543
X8.6932Y-4.0543
X8.8554Y-4.0519
X9.2554Y-4.0519
X9.4058Y-4.0527
X9.8058Y-4.0527
T3
X5.1657Y-4.7071
X5.1675Y-4.3922
X6.0476Y-4.7071
X6.0494Y-4.3922
X8.3215Y-4.4821
X8.3215Y-4.7951
X9.2033Y-4.4821
X9.2033Y-4.7951
T4
X1.6996Y-3.925
X2.3328Y-3.9207
X3.2674Y-3.9207
X10.1833Y-5.6454
X10.2093Y-3.9017
T0
M30
