%TF.GenerationSoftware,KiCad,Pcbnew,7.0.7*%
%TF.CreationDate,2024-04-16T09:14:21-07:00*%
%TF.ProjectId,hv-pcb-v1,68762d70-6362-42d7-9631-2e6b69636164,rev?*%
%TF.SameCoordinates,Original*%
%TF.FileFunction,Legend,Bot*%
%TF.FilePolarity,Positive*%
%FSLAX46Y46*%
G04 Gerber Fmt 4.6, Leading zero omitted, Abs format (unit mm)*
G04 Created by KiCad (PCBNEW 7.0.7) date 2024-04-16 09:14:21*
%MOMM*%
%LPD*%
G01*
G04 APERTURE LIST*
%ADD10C,0.150000*%
%ADD11C,0.120000*%
G04 APERTURE END LIST*
D10*
X171181030Y-125282819D02*
X171657220Y-125282819D01*
X171657220Y-125282819D02*
X171657220Y-124282819D01*
X170895315Y-124997104D02*
X170419125Y-124997104D01*
X170990553Y-125282819D02*
X170657220Y-124282819D01*
X170657220Y-124282819D02*
X170323887Y-125282819D01*
X169990553Y-125282819D02*
X169990553Y-124282819D01*
X169990553Y-124282819D02*
X169609601Y-124282819D01*
X169609601Y-124282819D02*
X169514363Y-124330438D01*
X169514363Y-124330438D02*
X169466744Y-124378057D01*
X169466744Y-124378057D02*
X169419125Y-124473295D01*
X169419125Y-124473295D02*
X169419125Y-124616152D01*
X169419125Y-124616152D02*
X169466744Y-124711390D01*
X169466744Y-124711390D02*
X169514363Y-124759009D01*
X169514363Y-124759009D02*
X169609601Y-124806628D01*
X169609601Y-124806628D02*
X169990553Y-124806628D01*
X168990553Y-125282819D02*
X168990553Y-124282819D01*
X168990553Y-124282819D02*
X168609601Y-124282819D01*
X168609601Y-124282819D02*
X168514363Y-124330438D01*
X168514363Y-124330438D02*
X168466744Y-124378057D01*
X168466744Y-124378057D02*
X168419125Y-124473295D01*
X168419125Y-124473295D02*
X168419125Y-124616152D01*
X168419125Y-124616152D02*
X168466744Y-124711390D01*
X168466744Y-124711390D02*
X168514363Y-124759009D01*
X168514363Y-124759009D02*
X168609601Y-124806628D01*
X168609601Y-124806628D02*
X168990553Y-124806628D01*
X167990553Y-125282819D02*
X167990553Y-124282819D01*
X167990553Y-124282819D02*
X167752458Y-124282819D01*
X167752458Y-124282819D02*
X167609601Y-124330438D01*
X167609601Y-124330438D02*
X167514363Y-124425676D01*
X167514363Y-124425676D02*
X167466744Y-124520914D01*
X167466744Y-124520914D02*
X167419125Y-124711390D01*
X167419125Y-124711390D02*
X167419125Y-124854247D01*
X167419125Y-124854247D02*
X167466744Y-125044723D01*
X167466744Y-125044723D02*
X167514363Y-125139961D01*
X167514363Y-125139961D02*
X167609601Y-125235200D01*
X167609601Y-125235200D02*
X167752458Y-125282819D01*
X167752458Y-125282819D02*
X167990553Y-125282819D01*
X166228648Y-125282819D02*
X166228648Y-124282819D01*
X166228648Y-124759009D02*
X165657220Y-124759009D01*
X165657220Y-125282819D02*
X165657220Y-124282819D01*
X165323886Y-124282819D02*
X164990553Y-125282819D01*
X164990553Y-125282819D02*
X164657220Y-124282819D01*
X163561981Y-125282819D02*
X163561981Y-124282819D01*
X163561981Y-124282819D02*
X163323886Y-124282819D01*
X163323886Y-124282819D02*
X163181029Y-124330438D01*
X163181029Y-124330438D02*
X163085791Y-124425676D01*
X163085791Y-124425676D02*
X163038172Y-124520914D01*
X163038172Y-124520914D02*
X162990553Y-124711390D01*
X162990553Y-124711390D02*
X162990553Y-124854247D01*
X162990553Y-124854247D02*
X163038172Y-125044723D01*
X163038172Y-125044723D02*
X163085791Y-125139961D01*
X163085791Y-125139961D02*
X163181029Y-125235200D01*
X163181029Y-125235200D02*
X163323886Y-125282819D01*
X163323886Y-125282819D02*
X163561981Y-125282819D01*
X162561981Y-125282819D02*
X162561981Y-124616152D01*
X162561981Y-124282819D02*
X162609600Y-124330438D01*
X162609600Y-124330438D02*
X162561981Y-124378057D01*
X162561981Y-124378057D02*
X162514362Y-124330438D01*
X162514362Y-124330438D02*
X162561981Y-124282819D01*
X162561981Y-124282819D02*
X162561981Y-124378057D01*
X162181029Y-124616152D02*
X161942934Y-125282819D01*
X161942934Y-125282819D02*
X161704839Y-124616152D01*
X161323886Y-125282819D02*
X161323886Y-124616152D01*
X161323886Y-124282819D02*
X161371505Y-124330438D01*
X161371505Y-124330438D02*
X161323886Y-124378057D01*
X161323886Y-124378057D02*
X161276267Y-124330438D01*
X161276267Y-124330438D02*
X161323886Y-124282819D01*
X161323886Y-124282819D02*
X161323886Y-124378057D01*
X160419125Y-125282819D02*
X160419125Y-124282819D01*
X160419125Y-125235200D02*
X160514363Y-125282819D01*
X160514363Y-125282819D02*
X160704839Y-125282819D01*
X160704839Y-125282819D02*
X160800077Y-125235200D01*
X160800077Y-125235200D02*
X160847696Y-125187580D01*
X160847696Y-125187580D02*
X160895315Y-125092342D01*
X160895315Y-125092342D02*
X160895315Y-124806628D01*
X160895315Y-124806628D02*
X160847696Y-124711390D01*
X160847696Y-124711390D02*
X160800077Y-124663771D01*
X160800077Y-124663771D02*
X160704839Y-124616152D01*
X160704839Y-124616152D02*
X160514363Y-124616152D01*
X160514363Y-124616152D02*
X160419125Y-124663771D01*
X159561982Y-125235200D02*
X159657220Y-125282819D01*
X159657220Y-125282819D02*
X159847696Y-125282819D01*
X159847696Y-125282819D02*
X159942934Y-125235200D01*
X159942934Y-125235200D02*
X159990553Y-125139961D01*
X159990553Y-125139961D02*
X159990553Y-124759009D01*
X159990553Y-124759009D02*
X159942934Y-124663771D01*
X159942934Y-124663771D02*
X159847696Y-124616152D01*
X159847696Y-124616152D02*
X159657220Y-124616152D01*
X159657220Y-124616152D02*
X159561982Y-124663771D01*
X159561982Y-124663771D02*
X159514363Y-124759009D01*
X159514363Y-124759009D02*
X159514363Y-124854247D01*
X159514363Y-124854247D02*
X159990553Y-124949485D01*
X159085791Y-125282819D02*
X159085791Y-124616152D01*
X159085791Y-124806628D02*
X159038172Y-124711390D01*
X159038172Y-124711390D02*
X158990553Y-124663771D01*
X158990553Y-124663771D02*
X158895315Y-124616152D01*
X158895315Y-124616152D02*
X158800077Y-124616152D01*
X157371505Y-124759009D02*
X157228648Y-124806628D01*
X157228648Y-124806628D02*
X157181029Y-124854247D01*
X157181029Y-124854247D02*
X157133410Y-124949485D01*
X157133410Y-124949485D02*
X157133410Y-125092342D01*
X157133410Y-125092342D02*
X157181029Y-125187580D01*
X157181029Y-125187580D02*
X157228648Y-125235200D01*
X157228648Y-125235200D02*
X157323886Y-125282819D01*
X157323886Y-125282819D02*
X157704838Y-125282819D01*
X157704838Y-125282819D02*
X157704838Y-124282819D01*
X157704838Y-124282819D02*
X157371505Y-124282819D01*
X157371505Y-124282819D02*
X157276267Y-124330438D01*
X157276267Y-124330438D02*
X157228648Y-124378057D01*
X157228648Y-124378057D02*
X157181029Y-124473295D01*
X157181029Y-124473295D02*
X157181029Y-124568533D01*
X157181029Y-124568533D02*
X157228648Y-124663771D01*
X157228648Y-124663771D02*
X157276267Y-124711390D01*
X157276267Y-124711390D02*
X157371505Y-124759009D01*
X157371505Y-124759009D02*
X157704838Y-124759009D01*
X156561981Y-125282819D02*
X156657219Y-125235200D01*
X156657219Y-125235200D02*
X156704838Y-125187580D01*
X156704838Y-125187580D02*
X156752457Y-125092342D01*
X156752457Y-125092342D02*
X156752457Y-124806628D01*
X156752457Y-124806628D02*
X156704838Y-124711390D01*
X156704838Y-124711390D02*
X156657219Y-124663771D01*
X156657219Y-124663771D02*
X156561981Y-124616152D01*
X156561981Y-124616152D02*
X156419124Y-124616152D01*
X156419124Y-124616152D02*
X156323886Y-124663771D01*
X156323886Y-124663771D02*
X156276267Y-124711390D01*
X156276267Y-124711390D02*
X156228648Y-124806628D01*
X156228648Y-124806628D02*
X156228648Y-125092342D01*
X156228648Y-125092342D02*
X156276267Y-125187580D01*
X156276267Y-125187580D02*
X156323886Y-125235200D01*
X156323886Y-125235200D02*
X156419124Y-125282819D01*
X156419124Y-125282819D02*
X156561981Y-125282819D01*
X155371505Y-125282819D02*
X155371505Y-124759009D01*
X155371505Y-124759009D02*
X155419124Y-124663771D01*
X155419124Y-124663771D02*
X155514362Y-124616152D01*
X155514362Y-124616152D02*
X155704838Y-124616152D01*
X155704838Y-124616152D02*
X155800076Y-124663771D01*
X155371505Y-125235200D02*
X155466743Y-125282819D01*
X155466743Y-125282819D02*
X155704838Y-125282819D01*
X155704838Y-125282819D02*
X155800076Y-125235200D01*
X155800076Y-125235200D02*
X155847695Y-125139961D01*
X155847695Y-125139961D02*
X155847695Y-125044723D01*
X155847695Y-125044723D02*
X155800076Y-124949485D01*
X155800076Y-124949485D02*
X155704838Y-124901866D01*
X155704838Y-124901866D02*
X155466743Y-124901866D01*
X155466743Y-124901866D02*
X155371505Y-124854247D01*
X154895314Y-125282819D02*
X154895314Y-124616152D01*
X154895314Y-124806628D02*
X154847695Y-124711390D01*
X154847695Y-124711390D02*
X154800076Y-124663771D01*
X154800076Y-124663771D02*
X154704838Y-124616152D01*
X154704838Y-124616152D02*
X154609600Y-124616152D01*
X153847695Y-125282819D02*
X153847695Y-124282819D01*
X153847695Y-125235200D02*
X153942933Y-125282819D01*
X153942933Y-125282819D02*
X154133409Y-125282819D01*
X154133409Y-125282819D02*
X154228647Y-125235200D01*
X154228647Y-125235200D02*
X154276266Y-125187580D01*
X154276266Y-125187580D02*
X154323885Y-125092342D01*
X154323885Y-125092342D02*
X154323885Y-124806628D01*
X154323885Y-124806628D02*
X154276266Y-124711390D01*
X154276266Y-124711390D02*
X154228647Y-124663771D01*
X154228647Y-124663771D02*
X154133409Y-124616152D01*
X154133409Y-124616152D02*
X153942933Y-124616152D01*
X153942933Y-124616152D02*
X153847695Y-124663771D01*
X171704839Y-125892819D02*
X171704839Y-126083295D01*
X171323887Y-125892819D02*
X171323887Y-126083295D01*
X170895315Y-126892819D02*
X170895315Y-125892819D01*
X170466744Y-126892819D02*
X170466744Y-126369009D01*
X170466744Y-126369009D02*
X170514363Y-126273771D01*
X170514363Y-126273771D02*
X170609601Y-126226152D01*
X170609601Y-126226152D02*
X170752458Y-126226152D01*
X170752458Y-126226152D02*
X170847696Y-126273771D01*
X170847696Y-126273771D02*
X170895315Y-126321390D01*
X170085791Y-126226152D02*
X169847696Y-126892819D01*
X169847696Y-126892819D02*
X169609601Y-126226152D01*
X169228648Y-126511866D02*
X168466744Y-126511866D01*
X167990553Y-126226152D02*
X167990553Y-127226152D01*
X167990553Y-126273771D02*
X167895315Y-126226152D01*
X167895315Y-126226152D02*
X167704839Y-126226152D01*
X167704839Y-126226152D02*
X167609601Y-126273771D01*
X167609601Y-126273771D02*
X167561982Y-126321390D01*
X167561982Y-126321390D02*
X167514363Y-126416628D01*
X167514363Y-126416628D02*
X167514363Y-126702342D01*
X167514363Y-126702342D02*
X167561982Y-126797580D01*
X167561982Y-126797580D02*
X167609601Y-126845200D01*
X167609601Y-126845200D02*
X167704839Y-126892819D01*
X167704839Y-126892819D02*
X167895315Y-126892819D01*
X167895315Y-126892819D02*
X167990553Y-126845200D01*
X166657220Y-126845200D02*
X166752458Y-126892819D01*
X166752458Y-126892819D02*
X166942934Y-126892819D01*
X166942934Y-126892819D02*
X167038172Y-126845200D01*
X167038172Y-126845200D02*
X167085791Y-126797580D01*
X167085791Y-126797580D02*
X167133410Y-126702342D01*
X167133410Y-126702342D02*
X167133410Y-126416628D01*
X167133410Y-126416628D02*
X167085791Y-126321390D01*
X167085791Y-126321390D02*
X167038172Y-126273771D01*
X167038172Y-126273771D02*
X166942934Y-126226152D01*
X166942934Y-126226152D02*
X166752458Y-126226152D01*
X166752458Y-126226152D02*
X166657220Y-126273771D01*
X166228648Y-126892819D02*
X166228648Y-125892819D01*
X166228648Y-126273771D02*
X166133410Y-126226152D01*
X166133410Y-126226152D02*
X165942934Y-126226152D01*
X165942934Y-126226152D02*
X165847696Y-126273771D01*
X165847696Y-126273771D02*
X165800077Y-126321390D01*
X165800077Y-126321390D02*
X165752458Y-126416628D01*
X165752458Y-126416628D02*
X165752458Y-126702342D01*
X165752458Y-126702342D02*
X165800077Y-126797580D01*
X165800077Y-126797580D02*
X165847696Y-126845200D01*
X165847696Y-126845200D02*
X165942934Y-126892819D01*
X165942934Y-126892819D02*
X166133410Y-126892819D01*
X166133410Y-126892819D02*
X166228648Y-126845200D01*
X165323886Y-126511866D02*
X164561982Y-126511866D01*
X164181029Y-126226152D02*
X163942934Y-126892819D01*
X163942934Y-126892819D02*
X163704839Y-126226152D01*
X162800077Y-126892819D02*
X163371505Y-126892819D01*
X163085791Y-126892819D02*
X163085791Y-125892819D01*
X163085791Y-125892819D02*
X163181029Y-126035676D01*
X163181029Y-126035676D02*
X163276267Y-126130914D01*
X163276267Y-126130914D02*
X163371505Y-126178533D01*
X162419124Y-125892819D02*
X162419124Y-126083295D01*
X162038172Y-125892819D02*
X162038172Y-126083295D01*
X161561981Y-126845200D02*
X161561981Y-126892819D01*
X161561981Y-126892819D02*
X161609600Y-126988057D01*
X161609600Y-126988057D02*
X161657219Y-127035676D01*
X160419124Y-126845200D02*
X160323886Y-126892819D01*
X160323886Y-126892819D02*
X160133410Y-126892819D01*
X160133410Y-126892819D02*
X160038172Y-126845200D01*
X160038172Y-126845200D02*
X159990553Y-126749961D01*
X159990553Y-126749961D02*
X159990553Y-126702342D01*
X159990553Y-126702342D02*
X160038172Y-126607104D01*
X160038172Y-126607104D02*
X160133410Y-126559485D01*
X160133410Y-126559485D02*
X160276267Y-126559485D01*
X160276267Y-126559485D02*
X160371505Y-126511866D01*
X160371505Y-126511866D02*
X160419124Y-126416628D01*
X160419124Y-126416628D02*
X160419124Y-126369009D01*
X160419124Y-126369009D02*
X160371505Y-126273771D01*
X160371505Y-126273771D02*
X160276267Y-126226152D01*
X160276267Y-126226152D02*
X160133410Y-126226152D01*
X160133410Y-126226152D02*
X160038172Y-126273771D01*
X159133410Y-126226152D02*
X159133410Y-126892819D01*
X159561981Y-126226152D02*
X159561981Y-126749961D01*
X159561981Y-126749961D02*
X159514362Y-126845200D01*
X159514362Y-126845200D02*
X159419124Y-126892819D01*
X159419124Y-126892819D02*
X159276267Y-126892819D01*
X159276267Y-126892819D02*
X159181029Y-126845200D01*
X159181029Y-126845200D02*
X159133410Y-126797580D01*
X158228648Y-126845200D02*
X158323886Y-126892819D01*
X158323886Y-126892819D02*
X158514362Y-126892819D01*
X158514362Y-126892819D02*
X158609600Y-126845200D01*
X158609600Y-126845200D02*
X158657219Y-126797580D01*
X158657219Y-126797580D02*
X158704838Y-126702342D01*
X158704838Y-126702342D02*
X158704838Y-126416628D01*
X158704838Y-126416628D02*
X158657219Y-126321390D01*
X158657219Y-126321390D02*
X158609600Y-126273771D01*
X158609600Y-126273771D02*
X158514362Y-126226152D01*
X158514362Y-126226152D02*
X158323886Y-126226152D01*
X158323886Y-126226152D02*
X158228648Y-126273771D01*
X157371505Y-126845200D02*
X157466743Y-126892819D01*
X157466743Y-126892819D02*
X157657219Y-126892819D01*
X157657219Y-126892819D02*
X157752457Y-126845200D01*
X157752457Y-126845200D02*
X157800076Y-126797580D01*
X157800076Y-126797580D02*
X157847695Y-126702342D01*
X157847695Y-126702342D02*
X157847695Y-126416628D01*
X157847695Y-126416628D02*
X157800076Y-126321390D01*
X157800076Y-126321390D02*
X157752457Y-126273771D01*
X157752457Y-126273771D02*
X157657219Y-126226152D01*
X157657219Y-126226152D02*
X157466743Y-126226152D01*
X157466743Y-126226152D02*
X157371505Y-126273771D01*
X156561981Y-126845200D02*
X156657219Y-126892819D01*
X156657219Y-126892819D02*
X156847695Y-126892819D01*
X156847695Y-126892819D02*
X156942933Y-126845200D01*
X156942933Y-126845200D02*
X156990552Y-126749961D01*
X156990552Y-126749961D02*
X156990552Y-126369009D01*
X156990552Y-126369009D02*
X156942933Y-126273771D01*
X156942933Y-126273771D02*
X156847695Y-126226152D01*
X156847695Y-126226152D02*
X156657219Y-126226152D01*
X156657219Y-126226152D02*
X156561981Y-126273771D01*
X156561981Y-126273771D02*
X156514362Y-126369009D01*
X156514362Y-126369009D02*
X156514362Y-126464247D01*
X156514362Y-126464247D02*
X156990552Y-126559485D01*
X156133409Y-126845200D02*
X156038171Y-126892819D01*
X156038171Y-126892819D02*
X155847695Y-126892819D01*
X155847695Y-126892819D02*
X155752457Y-126845200D01*
X155752457Y-126845200D02*
X155704838Y-126749961D01*
X155704838Y-126749961D02*
X155704838Y-126702342D01*
X155704838Y-126702342D02*
X155752457Y-126607104D01*
X155752457Y-126607104D02*
X155847695Y-126559485D01*
X155847695Y-126559485D02*
X155990552Y-126559485D01*
X155990552Y-126559485D02*
X156085790Y-126511866D01*
X156085790Y-126511866D02*
X156133409Y-126416628D01*
X156133409Y-126416628D02*
X156133409Y-126369009D01*
X156133409Y-126369009D02*
X156085790Y-126273771D01*
X156085790Y-126273771D02*
X155990552Y-126226152D01*
X155990552Y-126226152D02*
X155847695Y-126226152D01*
X155847695Y-126226152D02*
X155752457Y-126273771D01*
X155323885Y-126845200D02*
X155228647Y-126892819D01*
X155228647Y-126892819D02*
X155038171Y-126892819D01*
X155038171Y-126892819D02*
X154942933Y-126845200D01*
X154942933Y-126845200D02*
X154895314Y-126749961D01*
X154895314Y-126749961D02*
X154895314Y-126702342D01*
X154895314Y-126702342D02*
X154942933Y-126607104D01*
X154942933Y-126607104D02*
X155038171Y-126559485D01*
X155038171Y-126559485D02*
X155181028Y-126559485D01*
X155181028Y-126559485D02*
X155276266Y-126511866D01*
X155276266Y-126511866D02*
X155323885Y-126416628D01*
X155323885Y-126416628D02*
X155323885Y-126369009D01*
X155323885Y-126369009D02*
X155276266Y-126273771D01*
X155276266Y-126273771D02*
X155181028Y-126226152D01*
X155181028Y-126226152D02*
X155038171Y-126226152D01*
X155038171Y-126226152D02*
X154942933Y-126273771D01*
X154323885Y-126892819D02*
X154419123Y-126845200D01*
X154419123Y-126845200D02*
X154466742Y-126797580D01*
X154466742Y-126797580D02*
X154514361Y-126702342D01*
X154514361Y-126702342D02*
X154514361Y-126416628D01*
X154514361Y-126416628D02*
X154466742Y-126321390D01*
X154466742Y-126321390D02*
X154419123Y-126273771D01*
X154419123Y-126273771D02*
X154323885Y-126226152D01*
X154323885Y-126226152D02*
X154181028Y-126226152D01*
X154181028Y-126226152D02*
X154085790Y-126273771D01*
X154085790Y-126273771D02*
X154038171Y-126321390D01*
X154038171Y-126321390D02*
X153990552Y-126416628D01*
X153990552Y-126416628D02*
X153990552Y-126702342D01*
X153990552Y-126702342D02*
X154038171Y-126797580D01*
X154038171Y-126797580D02*
X154085790Y-126845200D01*
X154085790Y-126845200D02*
X154181028Y-126892819D01*
X154181028Y-126892819D02*
X154323885Y-126892819D01*
X153561980Y-126892819D02*
X153561980Y-126226152D01*
X153561980Y-126416628D02*
X153514361Y-126321390D01*
X153514361Y-126321390D02*
X153466742Y-126273771D01*
X153466742Y-126273771D02*
X153371504Y-126226152D01*
X153371504Y-126226152D02*
X153276266Y-126226152D01*
X152323884Y-126226152D02*
X151942932Y-126226152D01*
X152181027Y-125892819D02*
X152181027Y-126749961D01*
X152181027Y-126749961D02*
X152133408Y-126845200D01*
X152133408Y-126845200D02*
X152038170Y-126892819D01*
X152038170Y-126892819D02*
X151942932Y-126892819D01*
X151466741Y-126892819D02*
X151561979Y-126845200D01*
X151561979Y-126845200D02*
X151609598Y-126797580D01*
X151609598Y-126797580D02*
X151657217Y-126702342D01*
X151657217Y-126702342D02*
X151657217Y-126416628D01*
X151657217Y-126416628D02*
X151609598Y-126321390D01*
X151609598Y-126321390D02*
X151561979Y-126273771D01*
X151561979Y-126273771D02*
X151466741Y-126226152D01*
X151466741Y-126226152D02*
X151323884Y-126226152D01*
X151323884Y-126226152D02*
X151228646Y-126273771D01*
X151228646Y-126273771D02*
X151181027Y-126321390D01*
X151181027Y-126321390D02*
X151133408Y-126416628D01*
X151133408Y-126416628D02*
X151133408Y-126702342D01*
X151133408Y-126702342D02*
X151181027Y-126797580D01*
X151181027Y-126797580D02*
X151228646Y-126845200D01*
X151228646Y-126845200D02*
X151323884Y-126892819D01*
X151323884Y-126892819D02*
X151466741Y-126892819D01*
X150085788Y-126226152D02*
X149704836Y-126226152D01*
X149942931Y-125892819D02*
X149942931Y-126749961D01*
X149942931Y-126749961D02*
X149895312Y-126845200D01*
X149895312Y-126845200D02*
X149800074Y-126892819D01*
X149800074Y-126892819D02*
X149704836Y-126892819D01*
X149371502Y-126892819D02*
X149371502Y-125892819D01*
X148942931Y-126892819D02*
X148942931Y-126369009D01*
X148942931Y-126369009D02*
X148990550Y-126273771D01*
X148990550Y-126273771D02*
X149085788Y-126226152D01*
X149085788Y-126226152D02*
X149228645Y-126226152D01*
X149228645Y-126226152D02*
X149323883Y-126273771D01*
X149323883Y-126273771D02*
X149371502Y-126321390D01*
X148085788Y-126845200D02*
X148181026Y-126892819D01*
X148181026Y-126892819D02*
X148371502Y-126892819D01*
X148371502Y-126892819D02*
X148466740Y-126845200D01*
X148466740Y-126845200D02*
X148514359Y-126749961D01*
X148514359Y-126749961D02*
X148514359Y-126369009D01*
X148514359Y-126369009D02*
X148466740Y-126273771D01*
X148466740Y-126273771D02*
X148371502Y-126226152D01*
X148371502Y-126226152D02*
X148181026Y-126226152D01*
X148181026Y-126226152D02*
X148085788Y-126273771D01*
X148085788Y-126273771D02*
X148038169Y-126369009D01*
X148038169Y-126369009D02*
X148038169Y-126464247D01*
X148038169Y-126464247D02*
X148514359Y-126559485D01*
X146847692Y-126892819D02*
X146847692Y-125892819D01*
X146847692Y-126273771D02*
X146752454Y-126226152D01*
X146752454Y-126226152D02*
X146561978Y-126226152D01*
X146561978Y-126226152D02*
X146466740Y-126273771D01*
X146466740Y-126273771D02*
X146419121Y-126321390D01*
X146419121Y-126321390D02*
X146371502Y-126416628D01*
X146371502Y-126416628D02*
X146371502Y-126702342D01*
X146371502Y-126702342D02*
X146419121Y-126797580D01*
X146419121Y-126797580D02*
X146466740Y-126845200D01*
X146466740Y-126845200D02*
X146561978Y-126892819D01*
X146561978Y-126892819D02*
X146752454Y-126892819D01*
X146752454Y-126892819D02*
X146847692Y-126845200D01*
X145514359Y-126226152D02*
X145514359Y-126892819D01*
X145942930Y-126226152D02*
X145942930Y-126749961D01*
X145942930Y-126749961D02*
X145895311Y-126845200D01*
X145895311Y-126845200D02*
X145800073Y-126892819D01*
X145800073Y-126892819D02*
X145657216Y-126892819D01*
X145657216Y-126892819D02*
X145561978Y-126845200D01*
X145561978Y-126845200D02*
X145514359Y-126797580D01*
X145038168Y-126892819D02*
X145038168Y-126226152D01*
X145038168Y-125892819D02*
X145085787Y-125940438D01*
X145085787Y-125940438D02*
X145038168Y-125988057D01*
X145038168Y-125988057D02*
X144990549Y-125940438D01*
X144990549Y-125940438D02*
X145038168Y-125892819D01*
X145038168Y-125892819D02*
X145038168Y-125988057D01*
X144419121Y-126892819D02*
X144514359Y-126845200D01*
X144514359Y-126845200D02*
X144561978Y-126749961D01*
X144561978Y-126749961D02*
X144561978Y-125892819D01*
X144181025Y-126226152D02*
X143800073Y-126226152D01*
X144038168Y-125892819D02*
X144038168Y-126749961D01*
X144038168Y-126749961D02*
X143990549Y-126845200D01*
X143990549Y-126845200D02*
X143895311Y-126892819D01*
X143895311Y-126892819D02*
X143800073Y-126892819D01*
X143466739Y-126511866D02*
X142704835Y-126511866D01*
X142228644Y-126892819D02*
X142228644Y-126226152D01*
X142228644Y-125892819D02*
X142276263Y-125940438D01*
X142276263Y-125940438D02*
X142228644Y-125988057D01*
X142228644Y-125988057D02*
X142181025Y-125940438D01*
X142181025Y-125940438D02*
X142228644Y-125892819D01*
X142228644Y-125892819D02*
X142228644Y-125988057D01*
X141752454Y-126226152D02*
X141752454Y-126892819D01*
X141752454Y-126321390D02*
X141704835Y-126273771D01*
X141704835Y-126273771D02*
X141609597Y-126226152D01*
X141609597Y-126226152D02*
X141466740Y-126226152D01*
X141466740Y-126226152D02*
X141371502Y-126273771D01*
X141371502Y-126273771D02*
X141323883Y-126369009D01*
X141323883Y-126369009D02*
X141323883Y-126892819D01*
X171657220Y-128502819D02*
X171657220Y-127502819D01*
X171657220Y-127883771D02*
X171561982Y-127836152D01*
X171561982Y-127836152D02*
X171371506Y-127836152D01*
X171371506Y-127836152D02*
X171276268Y-127883771D01*
X171276268Y-127883771D02*
X171228649Y-127931390D01*
X171228649Y-127931390D02*
X171181030Y-128026628D01*
X171181030Y-128026628D02*
X171181030Y-128312342D01*
X171181030Y-128312342D02*
X171228649Y-128407580D01*
X171228649Y-128407580D02*
X171276268Y-128455200D01*
X171276268Y-128455200D02*
X171371506Y-128502819D01*
X171371506Y-128502819D02*
X171561982Y-128502819D01*
X171561982Y-128502819D02*
X171657220Y-128455200D01*
X170609601Y-128502819D02*
X170704839Y-128455200D01*
X170704839Y-128455200D02*
X170752458Y-128407580D01*
X170752458Y-128407580D02*
X170800077Y-128312342D01*
X170800077Y-128312342D02*
X170800077Y-128026628D01*
X170800077Y-128026628D02*
X170752458Y-127931390D01*
X170752458Y-127931390D02*
X170704839Y-127883771D01*
X170704839Y-127883771D02*
X170609601Y-127836152D01*
X170609601Y-127836152D02*
X170466744Y-127836152D01*
X170466744Y-127836152D02*
X170371506Y-127883771D01*
X170371506Y-127883771D02*
X170323887Y-127931390D01*
X170323887Y-127931390D02*
X170276268Y-128026628D01*
X170276268Y-128026628D02*
X170276268Y-128312342D01*
X170276268Y-128312342D02*
X170323887Y-128407580D01*
X170323887Y-128407580D02*
X170371506Y-128455200D01*
X170371506Y-128455200D02*
X170466744Y-128502819D01*
X170466744Y-128502819D02*
X170609601Y-128502819D01*
X169419125Y-128502819D02*
X169419125Y-127979009D01*
X169419125Y-127979009D02*
X169466744Y-127883771D01*
X169466744Y-127883771D02*
X169561982Y-127836152D01*
X169561982Y-127836152D02*
X169752458Y-127836152D01*
X169752458Y-127836152D02*
X169847696Y-127883771D01*
X169419125Y-128455200D02*
X169514363Y-128502819D01*
X169514363Y-128502819D02*
X169752458Y-128502819D01*
X169752458Y-128502819D02*
X169847696Y-128455200D01*
X169847696Y-128455200D02*
X169895315Y-128359961D01*
X169895315Y-128359961D02*
X169895315Y-128264723D01*
X169895315Y-128264723D02*
X169847696Y-128169485D01*
X169847696Y-128169485D02*
X169752458Y-128121866D01*
X169752458Y-128121866D02*
X169514363Y-128121866D01*
X169514363Y-128121866D02*
X169419125Y-128074247D01*
X168942934Y-128502819D02*
X168942934Y-127836152D01*
X168942934Y-128026628D02*
X168895315Y-127931390D01*
X168895315Y-127931390D02*
X168847696Y-127883771D01*
X168847696Y-127883771D02*
X168752458Y-127836152D01*
X168752458Y-127836152D02*
X168657220Y-127836152D01*
X167895315Y-128502819D02*
X167895315Y-127502819D01*
X167895315Y-128455200D02*
X167990553Y-128502819D01*
X167990553Y-128502819D02*
X168181029Y-128502819D01*
X168181029Y-128502819D02*
X168276267Y-128455200D01*
X168276267Y-128455200D02*
X168323886Y-128407580D01*
X168323886Y-128407580D02*
X168371505Y-128312342D01*
X168371505Y-128312342D02*
X168371505Y-128026628D01*
X168371505Y-128026628D02*
X168323886Y-127931390D01*
X168323886Y-127931390D02*
X168276267Y-127883771D01*
X168276267Y-127883771D02*
X168181029Y-127836152D01*
X168181029Y-127836152D02*
X167990553Y-127836152D01*
X167990553Y-127836152D02*
X167895315Y-127883771D01*
X166514362Y-128502819D02*
X166609600Y-128455200D01*
X166609600Y-128455200D02*
X166657219Y-128407580D01*
X166657219Y-128407580D02*
X166704838Y-128312342D01*
X166704838Y-128312342D02*
X166704838Y-128026628D01*
X166704838Y-128026628D02*
X166657219Y-127931390D01*
X166657219Y-127931390D02*
X166609600Y-127883771D01*
X166609600Y-127883771D02*
X166514362Y-127836152D01*
X166514362Y-127836152D02*
X166371505Y-127836152D01*
X166371505Y-127836152D02*
X166276267Y-127883771D01*
X166276267Y-127883771D02*
X166228648Y-127931390D01*
X166228648Y-127931390D02*
X166181029Y-128026628D01*
X166181029Y-128026628D02*
X166181029Y-128312342D01*
X166181029Y-128312342D02*
X166228648Y-128407580D01*
X166228648Y-128407580D02*
X166276267Y-128455200D01*
X166276267Y-128455200D02*
X166371505Y-128502819D01*
X166371505Y-128502819D02*
X166514362Y-128502819D01*
X165752457Y-127836152D02*
X165752457Y-128502819D01*
X165752457Y-127931390D02*
X165704838Y-127883771D01*
X165704838Y-127883771D02*
X165609600Y-127836152D01*
X165609600Y-127836152D02*
X165466743Y-127836152D01*
X165466743Y-127836152D02*
X165371505Y-127883771D01*
X165371505Y-127883771D02*
X165323886Y-127979009D01*
X165323886Y-127979009D02*
X165323886Y-128502819D01*
X164133409Y-128455200D02*
X164038171Y-128502819D01*
X164038171Y-128502819D02*
X163847695Y-128502819D01*
X163847695Y-128502819D02*
X163752457Y-128455200D01*
X163752457Y-128455200D02*
X163704838Y-128359961D01*
X163704838Y-128359961D02*
X163704838Y-128312342D01*
X163704838Y-128312342D02*
X163752457Y-128217104D01*
X163752457Y-128217104D02*
X163847695Y-128169485D01*
X163847695Y-128169485D02*
X163990552Y-128169485D01*
X163990552Y-128169485D02*
X164085790Y-128121866D01*
X164085790Y-128121866D02*
X164133409Y-128026628D01*
X164133409Y-128026628D02*
X164133409Y-127979009D01*
X164133409Y-127979009D02*
X164085790Y-127883771D01*
X164085790Y-127883771D02*
X163990552Y-127836152D01*
X163990552Y-127836152D02*
X163847695Y-127836152D01*
X163847695Y-127836152D02*
X163752457Y-127883771D01*
X163419123Y-127836152D02*
X163038171Y-127836152D01*
X163276266Y-127502819D02*
X163276266Y-128359961D01*
X163276266Y-128359961D02*
X163228647Y-128455200D01*
X163228647Y-128455200D02*
X163133409Y-128502819D01*
X163133409Y-128502819D02*
X163038171Y-128502819D01*
X162704837Y-128502819D02*
X162704837Y-127836152D01*
X162704837Y-128026628D02*
X162657218Y-127931390D01*
X162657218Y-127931390D02*
X162609599Y-127883771D01*
X162609599Y-127883771D02*
X162514361Y-127836152D01*
X162514361Y-127836152D02*
X162419123Y-127836152D01*
X162085789Y-128502819D02*
X162085789Y-127836152D01*
X162085789Y-127502819D02*
X162133408Y-127550438D01*
X162133408Y-127550438D02*
X162085789Y-127598057D01*
X162085789Y-127598057D02*
X162038170Y-127550438D01*
X162038170Y-127550438D02*
X162085789Y-127502819D01*
X162085789Y-127502819D02*
X162085789Y-127598057D01*
X161609599Y-127836152D02*
X161609599Y-128836152D01*
X161609599Y-127883771D02*
X161514361Y-127836152D01*
X161514361Y-127836152D02*
X161323885Y-127836152D01*
X161323885Y-127836152D02*
X161228647Y-127883771D01*
X161228647Y-127883771D02*
X161181028Y-127931390D01*
X161181028Y-127931390D02*
X161133409Y-128026628D01*
X161133409Y-128026628D02*
X161133409Y-128312342D01*
X161133409Y-128312342D02*
X161181028Y-128407580D01*
X161181028Y-128407580D02*
X161228647Y-128455200D01*
X161228647Y-128455200D02*
X161323885Y-128502819D01*
X161323885Y-128502819D02*
X161514361Y-128502819D01*
X161514361Y-128502819D02*
X161609599Y-128455200D01*
X160561980Y-128502819D02*
X160657218Y-128455200D01*
X160657218Y-128455200D02*
X160704837Y-128359961D01*
X160704837Y-128359961D02*
X160704837Y-127502819D01*
X160181027Y-128502819D02*
X160181027Y-127836152D01*
X160181027Y-127502819D02*
X160228646Y-127550438D01*
X160228646Y-127550438D02*
X160181027Y-127598057D01*
X160181027Y-127598057D02*
X160133408Y-127550438D01*
X160133408Y-127550438D02*
X160181027Y-127502819D01*
X160181027Y-127502819D02*
X160181027Y-127598057D01*
X159704837Y-127836152D02*
X159704837Y-128502819D01*
X159704837Y-127931390D02*
X159657218Y-127883771D01*
X159657218Y-127883771D02*
X159561980Y-127836152D01*
X159561980Y-127836152D02*
X159419123Y-127836152D01*
X159419123Y-127836152D02*
X159323885Y-127883771D01*
X159323885Y-127883771D02*
X159276266Y-127979009D01*
X159276266Y-127979009D02*
X159276266Y-128502819D01*
X158419123Y-128455200D02*
X158514361Y-128502819D01*
X158514361Y-128502819D02*
X158704837Y-128502819D01*
X158704837Y-128502819D02*
X158800075Y-128455200D01*
X158800075Y-128455200D02*
X158847694Y-128359961D01*
X158847694Y-128359961D02*
X158847694Y-127979009D01*
X158847694Y-127979009D02*
X158800075Y-127883771D01*
X158800075Y-127883771D02*
X158704837Y-127836152D01*
X158704837Y-127836152D02*
X158514361Y-127836152D01*
X158514361Y-127836152D02*
X158419123Y-127883771D01*
X158419123Y-127883771D02*
X158371504Y-127979009D01*
X158371504Y-127979009D02*
X158371504Y-128074247D01*
X158371504Y-128074247D02*
X158847694Y-128169485D01*
X157942932Y-128121866D02*
X157181028Y-128121866D01*
X156276266Y-128502819D02*
X156276266Y-127979009D01*
X156276266Y-127979009D02*
X156323885Y-127883771D01*
X156323885Y-127883771D02*
X156419123Y-127836152D01*
X156419123Y-127836152D02*
X156609599Y-127836152D01*
X156609599Y-127836152D02*
X156704837Y-127883771D01*
X156276266Y-128455200D02*
X156371504Y-128502819D01*
X156371504Y-128502819D02*
X156609599Y-128502819D01*
X156609599Y-128502819D02*
X156704837Y-128455200D01*
X156704837Y-128455200D02*
X156752456Y-128359961D01*
X156752456Y-128359961D02*
X156752456Y-128264723D01*
X156752456Y-128264723D02*
X156704837Y-128169485D01*
X156704837Y-128169485D02*
X156609599Y-128121866D01*
X156609599Y-128121866D02*
X156371504Y-128121866D01*
X156371504Y-128121866D02*
X156276266Y-128074247D01*
X155800075Y-127836152D02*
X155800075Y-128502819D01*
X155800075Y-127931390D02*
X155752456Y-127883771D01*
X155752456Y-127883771D02*
X155657218Y-127836152D01*
X155657218Y-127836152D02*
X155514361Y-127836152D01*
X155514361Y-127836152D02*
X155419123Y-127883771D01*
X155419123Y-127883771D02*
X155371504Y-127979009D01*
X155371504Y-127979009D02*
X155371504Y-128502819D01*
X154752456Y-128502819D02*
X154847694Y-128455200D01*
X154847694Y-128455200D02*
X154895313Y-128407580D01*
X154895313Y-128407580D02*
X154942932Y-128312342D01*
X154942932Y-128312342D02*
X154942932Y-128026628D01*
X154942932Y-128026628D02*
X154895313Y-127931390D01*
X154895313Y-127931390D02*
X154847694Y-127883771D01*
X154847694Y-127883771D02*
X154752456Y-127836152D01*
X154752456Y-127836152D02*
X154609599Y-127836152D01*
X154609599Y-127836152D02*
X154514361Y-127883771D01*
X154514361Y-127883771D02*
X154466742Y-127931390D01*
X154466742Y-127931390D02*
X154419123Y-128026628D01*
X154419123Y-128026628D02*
X154419123Y-128312342D01*
X154419123Y-128312342D02*
X154466742Y-128407580D01*
X154466742Y-128407580D02*
X154514361Y-128455200D01*
X154514361Y-128455200D02*
X154609599Y-128502819D01*
X154609599Y-128502819D02*
X154752456Y-128502819D01*
X153561980Y-128502819D02*
X153561980Y-127502819D01*
X153561980Y-128455200D02*
X153657218Y-128502819D01*
X153657218Y-128502819D02*
X153847694Y-128502819D01*
X153847694Y-128502819D02*
X153942932Y-128455200D01*
X153942932Y-128455200D02*
X153990551Y-128407580D01*
X153990551Y-128407580D02*
X154038170Y-128312342D01*
X154038170Y-128312342D02*
X154038170Y-128026628D01*
X154038170Y-128026628D02*
X153990551Y-127931390D01*
X153990551Y-127931390D02*
X153942932Y-127883771D01*
X153942932Y-127883771D02*
X153847694Y-127836152D01*
X153847694Y-127836152D02*
X153657218Y-127836152D01*
X153657218Y-127836152D02*
X153561980Y-127883771D01*
X152704837Y-128455200D02*
X152800075Y-128502819D01*
X152800075Y-128502819D02*
X152990551Y-128502819D01*
X152990551Y-128502819D02*
X153085789Y-128455200D01*
X153085789Y-128455200D02*
X153133408Y-128359961D01*
X153133408Y-128359961D02*
X153133408Y-127979009D01*
X153133408Y-127979009D02*
X153085789Y-127883771D01*
X153085789Y-127883771D02*
X152990551Y-127836152D01*
X152990551Y-127836152D02*
X152800075Y-127836152D01*
X152800075Y-127836152D02*
X152704837Y-127883771D01*
X152704837Y-127883771D02*
X152657218Y-127979009D01*
X152657218Y-127979009D02*
X152657218Y-128074247D01*
X152657218Y-128074247D02*
X153133408Y-128169485D01*
X151466741Y-128502819D02*
X151466741Y-127836152D01*
X151466741Y-128026628D02*
X151419122Y-127931390D01*
X151419122Y-127931390D02*
X151371503Y-127883771D01*
X151371503Y-127883771D02*
X151276265Y-127836152D01*
X151276265Y-127836152D02*
X151181027Y-127836152D01*
X150466741Y-128455200D02*
X150561979Y-128502819D01*
X150561979Y-128502819D02*
X150752455Y-128502819D01*
X150752455Y-128502819D02*
X150847693Y-128455200D01*
X150847693Y-128455200D02*
X150895312Y-128359961D01*
X150895312Y-128359961D02*
X150895312Y-127979009D01*
X150895312Y-127979009D02*
X150847693Y-127883771D01*
X150847693Y-127883771D02*
X150752455Y-127836152D01*
X150752455Y-127836152D02*
X150561979Y-127836152D01*
X150561979Y-127836152D02*
X150466741Y-127883771D01*
X150466741Y-127883771D02*
X150419122Y-127979009D01*
X150419122Y-127979009D02*
X150419122Y-128074247D01*
X150419122Y-128074247D02*
X150895312Y-128169485D01*
X149561979Y-128502819D02*
X149561979Y-127979009D01*
X149561979Y-127979009D02*
X149609598Y-127883771D01*
X149609598Y-127883771D02*
X149704836Y-127836152D01*
X149704836Y-127836152D02*
X149895312Y-127836152D01*
X149895312Y-127836152D02*
X149990550Y-127883771D01*
X149561979Y-128455200D02*
X149657217Y-128502819D01*
X149657217Y-128502819D02*
X149895312Y-128502819D01*
X149895312Y-128502819D02*
X149990550Y-128455200D01*
X149990550Y-128455200D02*
X150038169Y-128359961D01*
X150038169Y-128359961D02*
X150038169Y-128264723D01*
X150038169Y-128264723D02*
X149990550Y-128169485D01*
X149990550Y-128169485D02*
X149895312Y-128121866D01*
X149895312Y-128121866D02*
X149657217Y-128121866D01*
X149657217Y-128121866D02*
X149561979Y-128074247D01*
X148657217Y-128502819D02*
X148657217Y-127502819D01*
X148657217Y-128455200D02*
X148752455Y-128502819D01*
X148752455Y-128502819D02*
X148942931Y-128502819D01*
X148942931Y-128502819D02*
X149038169Y-128455200D01*
X149038169Y-128455200D02*
X149085788Y-128407580D01*
X149085788Y-128407580D02*
X149133407Y-128312342D01*
X149133407Y-128312342D02*
X149133407Y-128026628D01*
X149133407Y-128026628D02*
X149085788Y-127931390D01*
X149085788Y-127931390D02*
X149038169Y-127883771D01*
X149038169Y-127883771D02*
X148942931Y-127836152D01*
X148942931Y-127836152D02*
X148752455Y-127836152D01*
X148752455Y-127836152D02*
X148657217Y-127883771D01*
X148038169Y-128502819D02*
X148133407Y-128455200D01*
X148133407Y-128455200D02*
X148181026Y-128407580D01*
X148181026Y-128407580D02*
X148228645Y-128312342D01*
X148228645Y-128312342D02*
X148228645Y-128026628D01*
X148228645Y-128026628D02*
X148181026Y-127931390D01*
X148181026Y-127931390D02*
X148133407Y-127883771D01*
X148133407Y-127883771D02*
X148038169Y-127836152D01*
X148038169Y-127836152D02*
X147895312Y-127836152D01*
X147895312Y-127836152D02*
X147800074Y-127883771D01*
X147800074Y-127883771D02*
X147752455Y-127931390D01*
X147752455Y-127931390D02*
X147704836Y-128026628D01*
X147704836Y-128026628D02*
X147704836Y-128312342D01*
X147704836Y-128312342D02*
X147752455Y-128407580D01*
X147752455Y-128407580D02*
X147800074Y-128455200D01*
X147800074Y-128455200D02*
X147895312Y-128502819D01*
X147895312Y-128502819D02*
X148038169Y-128502819D01*
X146847693Y-127836152D02*
X146847693Y-128502819D01*
X147276264Y-127836152D02*
X147276264Y-128359961D01*
X147276264Y-128359961D02*
X147228645Y-128455200D01*
X147228645Y-128455200D02*
X147133407Y-128502819D01*
X147133407Y-128502819D02*
X146990550Y-128502819D01*
X146990550Y-128502819D02*
X146895312Y-128455200D01*
X146895312Y-128455200D02*
X146847693Y-128407580D01*
X146514359Y-127836152D02*
X146133407Y-127836152D01*
X146371502Y-127502819D02*
X146371502Y-128359961D01*
X146371502Y-128359961D02*
X146323883Y-128455200D01*
X146323883Y-128455200D02*
X146228645Y-128502819D01*
X146228645Y-128502819D02*
X146133407Y-128502819D01*
X145038168Y-128502819D02*
X145038168Y-127502819D01*
X145038168Y-127883771D02*
X144942930Y-127836152D01*
X144942930Y-127836152D02*
X144752454Y-127836152D01*
X144752454Y-127836152D02*
X144657216Y-127883771D01*
X144657216Y-127883771D02*
X144609597Y-127931390D01*
X144609597Y-127931390D02*
X144561978Y-128026628D01*
X144561978Y-128026628D02*
X144561978Y-128312342D01*
X144561978Y-128312342D02*
X144609597Y-128407580D01*
X144609597Y-128407580D02*
X144657216Y-128455200D01*
X144657216Y-128455200D02*
X144752454Y-128502819D01*
X144752454Y-128502819D02*
X144942930Y-128502819D01*
X144942930Y-128502819D02*
X145038168Y-128455200D01*
X143990549Y-128502819D02*
X144085787Y-128455200D01*
X144085787Y-128455200D02*
X144133406Y-128407580D01*
X144133406Y-128407580D02*
X144181025Y-128312342D01*
X144181025Y-128312342D02*
X144181025Y-128026628D01*
X144181025Y-128026628D02*
X144133406Y-127931390D01*
X144133406Y-127931390D02*
X144085787Y-127883771D01*
X144085787Y-127883771D02*
X143990549Y-127836152D01*
X143990549Y-127836152D02*
X143847692Y-127836152D01*
X143847692Y-127836152D02*
X143752454Y-127883771D01*
X143752454Y-127883771D02*
X143704835Y-127931390D01*
X143704835Y-127931390D02*
X143657216Y-128026628D01*
X143657216Y-128026628D02*
X143657216Y-128312342D01*
X143657216Y-128312342D02*
X143704835Y-128407580D01*
X143704835Y-128407580D02*
X143752454Y-128455200D01*
X143752454Y-128455200D02*
X143847692Y-128502819D01*
X143847692Y-128502819D02*
X143990549Y-128502819D01*
X142800073Y-128502819D02*
X142800073Y-127979009D01*
X142800073Y-127979009D02*
X142847692Y-127883771D01*
X142847692Y-127883771D02*
X142942930Y-127836152D01*
X142942930Y-127836152D02*
X143133406Y-127836152D01*
X143133406Y-127836152D02*
X143228644Y-127883771D01*
X142800073Y-128455200D02*
X142895311Y-128502819D01*
X142895311Y-128502819D02*
X143133406Y-128502819D01*
X143133406Y-128502819D02*
X143228644Y-128455200D01*
X143228644Y-128455200D02*
X143276263Y-128359961D01*
X143276263Y-128359961D02*
X143276263Y-128264723D01*
X143276263Y-128264723D02*
X143228644Y-128169485D01*
X143228644Y-128169485D02*
X143133406Y-128121866D01*
X143133406Y-128121866D02*
X142895311Y-128121866D01*
X142895311Y-128121866D02*
X142800073Y-128074247D01*
X142323882Y-128502819D02*
X142323882Y-127836152D01*
X142323882Y-128026628D02*
X142276263Y-127931390D01*
X142276263Y-127931390D02*
X142228644Y-127883771D01*
X142228644Y-127883771D02*
X142133406Y-127836152D01*
X142133406Y-127836152D02*
X142038168Y-127836152D01*
X141276263Y-128502819D02*
X141276263Y-127502819D01*
X141276263Y-128455200D02*
X141371501Y-128502819D01*
X141371501Y-128502819D02*
X141561977Y-128502819D01*
X141561977Y-128502819D02*
X141657215Y-128455200D01*
X141657215Y-128455200D02*
X141704834Y-128407580D01*
X141704834Y-128407580D02*
X141752453Y-128312342D01*
X141752453Y-128312342D02*
X141752453Y-128026628D01*
X141752453Y-128026628D02*
X141704834Y-127931390D01*
X141704834Y-127931390D02*
X141657215Y-127883771D01*
X141657215Y-127883771D02*
X141561977Y-127836152D01*
X141561977Y-127836152D02*
X141371501Y-127836152D01*
X141371501Y-127836152D02*
X141276263Y-127883771D01*
X171657220Y-129589009D02*
X171323887Y-129589009D01*
X171181030Y-130112819D02*
X171657220Y-130112819D01*
X171657220Y-130112819D02*
X171657220Y-129112819D01*
X171657220Y-129112819D02*
X171181030Y-129112819D01*
X170752458Y-130017580D02*
X170704839Y-130065200D01*
X170704839Y-130065200D02*
X170752458Y-130112819D01*
X170752458Y-130112819D02*
X170800077Y-130065200D01*
X170800077Y-130065200D02*
X170752458Y-130017580D01*
X170752458Y-130017580D02*
X170752458Y-130112819D01*
X169561982Y-129827104D02*
X169085792Y-129827104D01*
X169657220Y-130112819D02*
X169323887Y-129112819D01*
X169323887Y-129112819D02*
X168990554Y-130112819D01*
X168657220Y-129446152D02*
X168657220Y-130112819D01*
X168657220Y-129541390D02*
X168609601Y-129493771D01*
X168609601Y-129493771D02*
X168514363Y-129446152D01*
X168514363Y-129446152D02*
X168371506Y-129446152D01*
X168371506Y-129446152D02*
X168276268Y-129493771D01*
X168276268Y-129493771D02*
X168228649Y-129589009D01*
X168228649Y-129589009D02*
X168228649Y-130112819D01*
X167323887Y-129446152D02*
X167323887Y-130255676D01*
X167323887Y-130255676D02*
X167371506Y-130350914D01*
X167371506Y-130350914D02*
X167419125Y-130398533D01*
X167419125Y-130398533D02*
X167514363Y-130446152D01*
X167514363Y-130446152D02*
X167657220Y-130446152D01*
X167657220Y-130446152D02*
X167752458Y-130398533D01*
X167323887Y-130065200D02*
X167419125Y-130112819D01*
X167419125Y-130112819D02*
X167609601Y-130112819D01*
X167609601Y-130112819D02*
X167704839Y-130065200D01*
X167704839Y-130065200D02*
X167752458Y-130017580D01*
X167752458Y-130017580D02*
X167800077Y-129922342D01*
X167800077Y-129922342D02*
X167800077Y-129636628D01*
X167800077Y-129636628D02*
X167752458Y-129541390D01*
X167752458Y-129541390D02*
X167704839Y-129493771D01*
X167704839Y-129493771D02*
X167609601Y-129446152D01*
X167609601Y-129446152D02*
X167419125Y-129446152D01*
X167419125Y-129446152D02*
X167323887Y-129493771D01*
X166466744Y-130065200D02*
X166561982Y-130112819D01*
X166561982Y-130112819D02*
X166752458Y-130112819D01*
X166752458Y-130112819D02*
X166847696Y-130065200D01*
X166847696Y-130065200D02*
X166895315Y-129969961D01*
X166895315Y-129969961D02*
X166895315Y-129589009D01*
X166895315Y-129589009D02*
X166847696Y-129493771D01*
X166847696Y-129493771D02*
X166752458Y-129446152D01*
X166752458Y-129446152D02*
X166561982Y-129446152D01*
X166561982Y-129446152D02*
X166466744Y-129493771D01*
X166466744Y-129493771D02*
X166419125Y-129589009D01*
X166419125Y-129589009D02*
X166419125Y-129684247D01*
X166419125Y-129684247D02*
X166895315Y-129779485D01*
X165847696Y-130112819D02*
X165942934Y-130065200D01*
X165942934Y-130065200D02*
X165990553Y-129969961D01*
X165990553Y-129969961D02*
X165990553Y-129112819D01*
X165466743Y-130112819D02*
X165466743Y-129446152D01*
X165466743Y-129112819D02*
X165514362Y-129160438D01*
X165514362Y-129160438D02*
X165466743Y-129208057D01*
X165466743Y-129208057D02*
X165419124Y-129160438D01*
X165419124Y-129160438D02*
X165466743Y-129112819D01*
X165466743Y-129112819D02*
X165466743Y-129208057D01*
X164561982Y-130065200D02*
X164657220Y-130112819D01*
X164657220Y-130112819D02*
X164847696Y-130112819D01*
X164847696Y-130112819D02*
X164942934Y-130065200D01*
X164942934Y-130065200D02*
X164990553Y-130017580D01*
X164990553Y-130017580D02*
X165038172Y-129922342D01*
X165038172Y-129922342D02*
X165038172Y-129636628D01*
X165038172Y-129636628D02*
X164990553Y-129541390D01*
X164990553Y-129541390D02*
X164942934Y-129493771D01*
X164942934Y-129493771D02*
X164847696Y-129446152D01*
X164847696Y-129446152D02*
X164657220Y-129446152D01*
X164657220Y-129446152D02*
X164561982Y-129493771D01*
X163990553Y-130112819D02*
X164085791Y-130065200D01*
X164085791Y-130065200D02*
X164133410Y-130017580D01*
X164133410Y-130017580D02*
X164181029Y-129922342D01*
X164181029Y-129922342D02*
X164181029Y-129636628D01*
X164181029Y-129636628D02*
X164133410Y-129541390D01*
X164133410Y-129541390D02*
X164085791Y-129493771D01*
X164085791Y-129493771D02*
X163990553Y-129446152D01*
X163990553Y-129446152D02*
X163847696Y-129446152D01*
X163847696Y-129446152D02*
X163752458Y-129493771D01*
X163752458Y-129493771D02*
X163704839Y-129541390D01*
X163704839Y-129541390D02*
X163657220Y-129636628D01*
X163657220Y-129636628D02*
X163657220Y-129922342D01*
X163657220Y-129922342D02*
X163704839Y-130017580D01*
X163704839Y-130017580D02*
X163752458Y-130065200D01*
X163752458Y-130065200D02*
X163847696Y-130112819D01*
X163847696Y-130112819D02*
X163990553Y-130112819D01*
X163181029Y-130065200D02*
X163181029Y-130112819D01*
X163181029Y-130112819D02*
X163228648Y-130208057D01*
X163228648Y-130208057D02*
X163276267Y-130255676D01*
X161609601Y-130065200D02*
X161704839Y-130112819D01*
X161704839Y-130112819D02*
X161895315Y-130112819D01*
X161895315Y-130112819D02*
X161990553Y-130065200D01*
X161990553Y-130065200D02*
X162038172Y-129969961D01*
X162038172Y-129969961D02*
X162038172Y-129589009D01*
X162038172Y-129589009D02*
X161990553Y-129493771D01*
X161990553Y-129493771D02*
X161895315Y-129446152D01*
X161895315Y-129446152D02*
X161704839Y-129446152D01*
X161704839Y-129446152D02*
X161609601Y-129493771D01*
X161609601Y-129493771D02*
X161561982Y-129589009D01*
X161561982Y-129589009D02*
X161561982Y-129684247D01*
X161561982Y-129684247D02*
X162038172Y-129779485D01*
X161228648Y-129446152D02*
X160990553Y-130112819D01*
X160990553Y-130112819D02*
X160752458Y-129446152D01*
X159942934Y-130112819D02*
X159942934Y-129589009D01*
X159942934Y-129589009D02*
X159990553Y-129493771D01*
X159990553Y-129493771D02*
X160085791Y-129446152D01*
X160085791Y-129446152D02*
X160276267Y-129446152D01*
X160276267Y-129446152D02*
X160371505Y-129493771D01*
X159942934Y-130065200D02*
X160038172Y-130112819D01*
X160038172Y-130112819D02*
X160276267Y-130112819D01*
X160276267Y-130112819D02*
X160371505Y-130065200D01*
X160371505Y-130065200D02*
X160419124Y-129969961D01*
X160419124Y-129969961D02*
X160419124Y-129874723D01*
X160419124Y-129874723D02*
X160371505Y-129779485D01*
X160371505Y-129779485D02*
X160276267Y-129731866D01*
X160276267Y-129731866D02*
X160038172Y-129731866D01*
X160038172Y-129731866D02*
X159942934Y-129684247D01*
X159466743Y-129446152D02*
X159466743Y-130112819D01*
X159466743Y-129541390D02*
X159419124Y-129493771D01*
X159419124Y-129493771D02*
X159323886Y-129446152D01*
X159323886Y-129446152D02*
X159181029Y-129446152D01*
X159181029Y-129446152D02*
X159085791Y-129493771D01*
X159085791Y-129493771D02*
X159038172Y-129589009D01*
X159038172Y-129589009D02*
X159038172Y-130112819D01*
X158561981Y-130017580D02*
X158514362Y-130065200D01*
X158514362Y-130065200D02*
X158561981Y-130112819D01*
X158561981Y-130112819D02*
X158609600Y-130065200D01*
X158609600Y-130065200D02*
X158561981Y-130017580D01*
X158561981Y-130017580D02*
X158561981Y-130112819D01*
X157657220Y-130112819D02*
X157657220Y-129589009D01*
X157657220Y-129589009D02*
X157704839Y-129493771D01*
X157704839Y-129493771D02*
X157800077Y-129446152D01*
X157800077Y-129446152D02*
X157990553Y-129446152D01*
X157990553Y-129446152D02*
X158085791Y-129493771D01*
X157657220Y-130065200D02*
X157752458Y-130112819D01*
X157752458Y-130112819D02*
X157990553Y-130112819D01*
X157990553Y-130112819D02*
X158085791Y-130065200D01*
X158085791Y-130065200D02*
X158133410Y-129969961D01*
X158133410Y-129969961D02*
X158133410Y-129874723D01*
X158133410Y-129874723D02*
X158085791Y-129779485D01*
X158085791Y-129779485D02*
X157990553Y-129731866D01*
X157990553Y-129731866D02*
X157752458Y-129731866D01*
X157752458Y-129731866D02*
X157657220Y-129684247D01*
X157181029Y-129446152D02*
X157181029Y-130112819D01*
X157181029Y-129541390D02*
X157133410Y-129493771D01*
X157133410Y-129493771D02*
X157038172Y-129446152D01*
X157038172Y-129446152D02*
X156895315Y-129446152D01*
X156895315Y-129446152D02*
X156800077Y-129493771D01*
X156800077Y-129493771D02*
X156752458Y-129589009D01*
X156752458Y-129589009D02*
X156752458Y-130112819D01*
X155847696Y-129446152D02*
X155847696Y-130255676D01*
X155847696Y-130255676D02*
X155895315Y-130350914D01*
X155895315Y-130350914D02*
X155942934Y-130398533D01*
X155942934Y-130398533D02*
X156038172Y-130446152D01*
X156038172Y-130446152D02*
X156181029Y-130446152D01*
X156181029Y-130446152D02*
X156276267Y-130398533D01*
X155847696Y-130065200D02*
X155942934Y-130112819D01*
X155942934Y-130112819D02*
X156133410Y-130112819D01*
X156133410Y-130112819D02*
X156228648Y-130065200D01*
X156228648Y-130065200D02*
X156276267Y-130017580D01*
X156276267Y-130017580D02*
X156323886Y-129922342D01*
X156323886Y-129922342D02*
X156323886Y-129636628D01*
X156323886Y-129636628D02*
X156276267Y-129541390D01*
X156276267Y-129541390D02*
X156228648Y-129493771D01*
X156228648Y-129493771D02*
X156133410Y-129446152D01*
X156133410Y-129446152D02*
X155942934Y-129446152D01*
X155942934Y-129446152D02*
X155847696Y-129493771D01*
X154990553Y-130065200D02*
X155085791Y-130112819D01*
X155085791Y-130112819D02*
X155276267Y-130112819D01*
X155276267Y-130112819D02*
X155371505Y-130065200D01*
X155371505Y-130065200D02*
X155419124Y-129969961D01*
X155419124Y-129969961D02*
X155419124Y-129589009D01*
X155419124Y-129589009D02*
X155371505Y-129493771D01*
X155371505Y-129493771D02*
X155276267Y-129446152D01*
X155276267Y-129446152D02*
X155085791Y-129446152D01*
X155085791Y-129446152D02*
X154990553Y-129493771D01*
X154990553Y-129493771D02*
X154942934Y-129589009D01*
X154942934Y-129589009D02*
X154942934Y-129684247D01*
X154942934Y-129684247D02*
X155419124Y-129779485D01*
X154371505Y-130112819D02*
X154466743Y-130065200D01*
X154466743Y-130065200D02*
X154514362Y-129969961D01*
X154514362Y-129969961D02*
X154514362Y-129112819D01*
X153990552Y-130112819D02*
X153990552Y-129446152D01*
X153990552Y-129112819D02*
X154038171Y-129160438D01*
X154038171Y-129160438D02*
X153990552Y-129208057D01*
X153990552Y-129208057D02*
X153942933Y-129160438D01*
X153942933Y-129160438D02*
X153990552Y-129112819D01*
X153990552Y-129112819D02*
X153990552Y-129208057D01*
X153085791Y-130065200D02*
X153181029Y-130112819D01*
X153181029Y-130112819D02*
X153371505Y-130112819D01*
X153371505Y-130112819D02*
X153466743Y-130065200D01*
X153466743Y-130065200D02*
X153514362Y-130017580D01*
X153514362Y-130017580D02*
X153561981Y-129922342D01*
X153561981Y-129922342D02*
X153561981Y-129636628D01*
X153561981Y-129636628D02*
X153514362Y-129541390D01*
X153514362Y-129541390D02*
X153466743Y-129493771D01*
X153466743Y-129493771D02*
X153371505Y-129446152D01*
X153371505Y-129446152D02*
X153181029Y-129446152D01*
X153181029Y-129446152D02*
X153085791Y-129493771D01*
X152514362Y-130112819D02*
X152609600Y-130065200D01*
X152609600Y-130065200D02*
X152657219Y-130017580D01*
X152657219Y-130017580D02*
X152704838Y-129922342D01*
X152704838Y-129922342D02*
X152704838Y-129636628D01*
X152704838Y-129636628D02*
X152657219Y-129541390D01*
X152657219Y-129541390D02*
X152609600Y-129493771D01*
X152609600Y-129493771D02*
X152514362Y-129446152D01*
X152514362Y-129446152D02*
X152371505Y-129446152D01*
X152371505Y-129446152D02*
X152276267Y-129493771D01*
X152276267Y-129493771D02*
X152228648Y-129541390D01*
X152228648Y-129541390D02*
X152181029Y-129636628D01*
X152181029Y-129636628D02*
X152181029Y-129922342D01*
X152181029Y-129922342D02*
X152228648Y-130017580D01*
X152228648Y-130017580D02*
X152276267Y-130065200D01*
X152276267Y-130065200D02*
X152371505Y-130112819D01*
X152371505Y-130112819D02*
X152514362Y-130112819D01*
X151133410Y-129636628D02*
X151181029Y-129589009D01*
X151181029Y-129589009D02*
X151276267Y-129541390D01*
X151276267Y-129541390D02*
X151371505Y-129541390D01*
X151371505Y-129541390D02*
X151466743Y-129589009D01*
X151466743Y-129589009D02*
X151514362Y-129636628D01*
X151514362Y-129636628D02*
X151561981Y-129731866D01*
X151561981Y-129731866D02*
X151561981Y-129827104D01*
X151561981Y-129827104D02*
X151514362Y-129922342D01*
X151514362Y-129922342D02*
X151466743Y-129969961D01*
X151466743Y-129969961D02*
X151371505Y-130017580D01*
X151371505Y-130017580D02*
X151276267Y-130017580D01*
X151276267Y-130017580D02*
X151181029Y-129969961D01*
X151181029Y-129969961D02*
X151133410Y-129922342D01*
X151133410Y-129541390D02*
X151133410Y-129922342D01*
X151133410Y-129922342D02*
X151085791Y-129969961D01*
X151085791Y-129969961D02*
X151038172Y-129969961D01*
X151038172Y-129969961D02*
X150942933Y-129922342D01*
X150942933Y-129922342D02*
X150895314Y-129827104D01*
X150895314Y-129827104D02*
X150895314Y-129589009D01*
X150895314Y-129589009D02*
X150990553Y-129446152D01*
X150990553Y-129446152D02*
X151133410Y-129350914D01*
X151133410Y-129350914D02*
X151323886Y-129303295D01*
X151323886Y-129303295D02*
X151514362Y-129350914D01*
X151514362Y-129350914D02*
X151657219Y-129446152D01*
X151657219Y-129446152D02*
X151752457Y-129589009D01*
X151752457Y-129589009D02*
X151800076Y-129779485D01*
X151800076Y-129779485D02*
X151752457Y-129969961D01*
X151752457Y-129969961D02*
X151657219Y-130112819D01*
X151657219Y-130112819D02*
X151514362Y-130208057D01*
X151514362Y-130208057D02*
X151323886Y-130255676D01*
X151323886Y-130255676D02*
X151133410Y-130208057D01*
X151133410Y-130208057D02*
X150990553Y-130112819D01*
X150038172Y-129446152D02*
X150038172Y-130255676D01*
X150038172Y-130255676D02*
X150085791Y-130350914D01*
X150085791Y-130350914D02*
X150133410Y-130398533D01*
X150133410Y-130398533D02*
X150228648Y-130446152D01*
X150228648Y-130446152D02*
X150371505Y-130446152D01*
X150371505Y-130446152D02*
X150466743Y-130398533D01*
X150038172Y-130065200D02*
X150133410Y-130112819D01*
X150133410Y-130112819D02*
X150323886Y-130112819D01*
X150323886Y-130112819D02*
X150419124Y-130065200D01*
X150419124Y-130065200D02*
X150466743Y-130017580D01*
X150466743Y-130017580D02*
X150514362Y-129922342D01*
X150514362Y-129922342D02*
X150514362Y-129636628D01*
X150514362Y-129636628D02*
X150466743Y-129541390D01*
X150466743Y-129541390D02*
X150419124Y-129493771D01*
X150419124Y-129493771D02*
X150323886Y-129446152D01*
X150323886Y-129446152D02*
X150133410Y-129446152D01*
X150133410Y-129446152D02*
X150038172Y-129493771D01*
X149561981Y-130112819D02*
X149561981Y-129446152D01*
X149561981Y-129541390D02*
X149514362Y-129493771D01*
X149514362Y-129493771D02*
X149419124Y-129446152D01*
X149419124Y-129446152D02*
X149276267Y-129446152D01*
X149276267Y-129446152D02*
X149181029Y-129493771D01*
X149181029Y-129493771D02*
X149133410Y-129589009D01*
X149133410Y-129589009D02*
X149133410Y-130112819D01*
X149133410Y-129589009D02*
X149085791Y-129493771D01*
X149085791Y-129493771D02*
X148990553Y-129446152D01*
X148990553Y-129446152D02*
X148847696Y-129446152D01*
X148847696Y-129446152D02*
X148752457Y-129493771D01*
X148752457Y-129493771D02*
X148704838Y-129589009D01*
X148704838Y-129589009D02*
X148704838Y-130112819D01*
X147800077Y-130112819D02*
X147800077Y-129589009D01*
X147800077Y-129589009D02*
X147847696Y-129493771D01*
X147847696Y-129493771D02*
X147942934Y-129446152D01*
X147942934Y-129446152D02*
X148133410Y-129446152D01*
X148133410Y-129446152D02*
X148228648Y-129493771D01*
X147800077Y-130065200D02*
X147895315Y-130112819D01*
X147895315Y-130112819D02*
X148133410Y-130112819D01*
X148133410Y-130112819D02*
X148228648Y-130065200D01*
X148228648Y-130065200D02*
X148276267Y-129969961D01*
X148276267Y-129969961D02*
X148276267Y-129874723D01*
X148276267Y-129874723D02*
X148228648Y-129779485D01*
X148228648Y-129779485D02*
X148133410Y-129731866D01*
X148133410Y-129731866D02*
X147895315Y-129731866D01*
X147895315Y-129731866D02*
X147800077Y-129684247D01*
X147323886Y-130112819D02*
X147323886Y-129446152D01*
X147323886Y-129112819D02*
X147371505Y-129160438D01*
X147371505Y-129160438D02*
X147323886Y-129208057D01*
X147323886Y-129208057D02*
X147276267Y-129160438D01*
X147276267Y-129160438D02*
X147323886Y-129112819D01*
X147323886Y-129112819D02*
X147323886Y-129208057D01*
X146704839Y-130112819D02*
X146800077Y-130065200D01*
X146800077Y-130065200D02*
X146847696Y-129969961D01*
X146847696Y-129969961D02*
X146847696Y-129112819D01*
X146323886Y-130017580D02*
X146276267Y-130065200D01*
X146276267Y-130065200D02*
X146323886Y-130112819D01*
X146323886Y-130112819D02*
X146371505Y-130065200D01*
X146371505Y-130065200D02*
X146323886Y-130017580D01*
X146323886Y-130017580D02*
X146323886Y-130112819D01*
X145419125Y-130065200D02*
X145514363Y-130112819D01*
X145514363Y-130112819D02*
X145704839Y-130112819D01*
X145704839Y-130112819D02*
X145800077Y-130065200D01*
X145800077Y-130065200D02*
X145847696Y-130017580D01*
X145847696Y-130017580D02*
X145895315Y-129922342D01*
X145895315Y-129922342D02*
X145895315Y-129636628D01*
X145895315Y-129636628D02*
X145847696Y-129541390D01*
X145847696Y-129541390D02*
X145800077Y-129493771D01*
X145800077Y-129493771D02*
X145704839Y-129446152D01*
X145704839Y-129446152D02*
X145514363Y-129446152D01*
X145514363Y-129446152D02*
X145419125Y-129493771D01*
X144847696Y-130112819D02*
X144942934Y-130065200D01*
X144942934Y-130065200D02*
X144990553Y-130017580D01*
X144990553Y-130017580D02*
X145038172Y-129922342D01*
X145038172Y-129922342D02*
X145038172Y-129636628D01*
X145038172Y-129636628D02*
X144990553Y-129541390D01*
X144990553Y-129541390D02*
X144942934Y-129493771D01*
X144942934Y-129493771D02*
X144847696Y-129446152D01*
X144847696Y-129446152D02*
X144704839Y-129446152D01*
X144704839Y-129446152D02*
X144609601Y-129493771D01*
X144609601Y-129493771D02*
X144561982Y-129541390D01*
X144561982Y-129541390D02*
X144514363Y-129636628D01*
X144514363Y-129636628D02*
X144514363Y-129922342D01*
X144514363Y-129922342D02*
X144561982Y-130017580D01*
X144561982Y-130017580D02*
X144609601Y-130065200D01*
X144609601Y-130065200D02*
X144704839Y-130112819D01*
X144704839Y-130112819D02*
X144847696Y-130112819D01*
X144085791Y-130112819D02*
X144085791Y-129446152D01*
X144085791Y-129541390D02*
X144038172Y-129493771D01*
X144038172Y-129493771D02*
X143942934Y-129446152D01*
X143942934Y-129446152D02*
X143800077Y-129446152D01*
X143800077Y-129446152D02*
X143704839Y-129493771D01*
X143704839Y-129493771D02*
X143657220Y-129589009D01*
X143657220Y-129589009D02*
X143657220Y-130112819D01*
X143657220Y-129589009D02*
X143609601Y-129493771D01*
X143609601Y-129493771D02*
X143514363Y-129446152D01*
X143514363Y-129446152D02*
X143371506Y-129446152D01*
X143371506Y-129446152D02*
X143276267Y-129493771D01*
X143276267Y-129493771D02*
X143228648Y-129589009D01*
X143228648Y-129589009D02*
X143228648Y-130112819D01*
X171704839Y-130722819D02*
X171704839Y-130913295D01*
X171323887Y-130722819D02*
X171323887Y-130913295D01*
X170942934Y-131437104D02*
X170466744Y-131437104D01*
X171038172Y-131722819D02*
X170704839Y-130722819D01*
X170704839Y-130722819D02*
X170371506Y-131722819D01*
X169276267Y-131056152D02*
X169276267Y-132056152D01*
X169276267Y-131103771D02*
X169181029Y-131056152D01*
X169181029Y-131056152D02*
X168990553Y-131056152D01*
X168990553Y-131056152D02*
X168895315Y-131103771D01*
X168895315Y-131103771D02*
X168847696Y-131151390D01*
X168847696Y-131151390D02*
X168800077Y-131246628D01*
X168800077Y-131246628D02*
X168800077Y-131532342D01*
X168800077Y-131532342D02*
X168847696Y-131627580D01*
X168847696Y-131627580D02*
X168895315Y-131675200D01*
X168895315Y-131675200D02*
X168990553Y-131722819D01*
X168990553Y-131722819D02*
X169181029Y-131722819D01*
X169181029Y-131722819D02*
X169276267Y-131675200D01*
X168371505Y-131722819D02*
X168371505Y-131056152D01*
X168371505Y-131246628D02*
X168323886Y-131151390D01*
X168323886Y-131151390D02*
X168276267Y-131103771D01*
X168276267Y-131103771D02*
X168181029Y-131056152D01*
X168181029Y-131056152D02*
X168085791Y-131056152D01*
X167609600Y-131722819D02*
X167704838Y-131675200D01*
X167704838Y-131675200D02*
X167752457Y-131627580D01*
X167752457Y-131627580D02*
X167800076Y-131532342D01*
X167800076Y-131532342D02*
X167800076Y-131246628D01*
X167800076Y-131246628D02*
X167752457Y-131151390D01*
X167752457Y-131151390D02*
X167704838Y-131103771D01*
X167704838Y-131103771D02*
X167609600Y-131056152D01*
X167609600Y-131056152D02*
X167466743Y-131056152D01*
X167466743Y-131056152D02*
X167371505Y-131103771D01*
X167371505Y-131103771D02*
X167323886Y-131151390D01*
X167323886Y-131151390D02*
X167276267Y-131246628D01*
X167276267Y-131246628D02*
X167276267Y-131532342D01*
X167276267Y-131532342D02*
X167323886Y-131627580D01*
X167323886Y-131627580D02*
X167371505Y-131675200D01*
X167371505Y-131675200D02*
X167466743Y-131722819D01*
X167466743Y-131722819D02*
X167609600Y-131722819D01*
X166419124Y-131675200D02*
X166514362Y-131722819D01*
X166514362Y-131722819D02*
X166704838Y-131722819D01*
X166704838Y-131722819D02*
X166800076Y-131675200D01*
X166800076Y-131675200D02*
X166847695Y-131627580D01*
X166847695Y-131627580D02*
X166895314Y-131532342D01*
X166895314Y-131532342D02*
X166895314Y-131246628D01*
X166895314Y-131246628D02*
X166847695Y-131151390D01*
X166847695Y-131151390D02*
X166800076Y-131103771D01*
X166800076Y-131103771D02*
X166704838Y-131056152D01*
X166704838Y-131056152D02*
X166514362Y-131056152D01*
X166514362Y-131056152D02*
X166419124Y-131103771D01*
X165609600Y-131675200D02*
X165704838Y-131722819D01*
X165704838Y-131722819D02*
X165895314Y-131722819D01*
X165895314Y-131722819D02*
X165990552Y-131675200D01*
X165990552Y-131675200D02*
X166038171Y-131579961D01*
X166038171Y-131579961D02*
X166038171Y-131199009D01*
X166038171Y-131199009D02*
X165990552Y-131103771D01*
X165990552Y-131103771D02*
X165895314Y-131056152D01*
X165895314Y-131056152D02*
X165704838Y-131056152D01*
X165704838Y-131056152D02*
X165609600Y-131103771D01*
X165609600Y-131103771D02*
X165561981Y-131199009D01*
X165561981Y-131199009D02*
X165561981Y-131294247D01*
X165561981Y-131294247D02*
X166038171Y-131389485D01*
X165181028Y-131675200D02*
X165085790Y-131722819D01*
X165085790Y-131722819D02*
X164895314Y-131722819D01*
X164895314Y-131722819D02*
X164800076Y-131675200D01*
X164800076Y-131675200D02*
X164752457Y-131579961D01*
X164752457Y-131579961D02*
X164752457Y-131532342D01*
X164752457Y-131532342D02*
X164800076Y-131437104D01*
X164800076Y-131437104D02*
X164895314Y-131389485D01*
X164895314Y-131389485D02*
X165038171Y-131389485D01*
X165038171Y-131389485D02*
X165133409Y-131341866D01*
X165133409Y-131341866D02*
X165181028Y-131246628D01*
X165181028Y-131246628D02*
X165181028Y-131199009D01*
X165181028Y-131199009D02*
X165133409Y-131103771D01*
X165133409Y-131103771D02*
X165038171Y-131056152D01*
X165038171Y-131056152D02*
X164895314Y-131056152D01*
X164895314Y-131056152D02*
X164800076Y-131103771D01*
X164371504Y-131675200D02*
X164276266Y-131722819D01*
X164276266Y-131722819D02*
X164085790Y-131722819D01*
X164085790Y-131722819D02*
X163990552Y-131675200D01*
X163990552Y-131675200D02*
X163942933Y-131579961D01*
X163942933Y-131579961D02*
X163942933Y-131532342D01*
X163942933Y-131532342D02*
X163990552Y-131437104D01*
X163990552Y-131437104D02*
X164085790Y-131389485D01*
X164085790Y-131389485D02*
X164228647Y-131389485D01*
X164228647Y-131389485D02*
X164323885Y-131341866D01*
X164323885Y-131341866D02*
X164371504Y-131246628D01*
X164371504Y-131246628D02*
X164371504Y-131199009D01*
X164371504Y-131199009D02*
X164323885Y-131103771D01*
X164323885Y-131103771D02*
X164228647Y-131056152D01*
X164228647Y-131056152D02*
X164085790Y-131056152D01*
X164085790Y-131056152D02*
X163990552Y-131103771D01*
X162323885Y-131675200D02*
X162419123Y-131722819D01*
X162419123Y-131722819D02*
X162609599Y-131722819D01*
X162609599Y-131722819D02*
X162704837Y-131675200D01*
X162704837Y-131675200D02*
X162752456Y-131627580D01*
X162752456Y-131627580D02*
X162800075Y-131532342D01*
X162800075Y-131532342D02*
X162800075Y-131246628D01*
X162800075Y-131246628D02*
X162752456Y-131151390D01*
X162752456Y-131151390D02*
X162704837Y-131103771D01*
X162704837Y-131103771D02*
X162609599Y-131056152D01*
X162609599Y-131056152D02*
X162419123Y-131056152D01*
X162419123Y-131056152D02*
X162323885Y-131103771D01*
X161466742Y-131722819D02*
X161466742Y-131199009D01*
X161466742Y-131199009D02*
X161514361Y-131103771D01*
X161514361Y-131103771D02*
X161609599Y-131056152D01*
X161609599Y-131056152D02*
X161800075Y-131056152D01*
X161800075Y-131056152D02*
X161895313Y-131103771D01*
X161466742Y-131675200D02*
X161561980Y-131722819D01*
X161561980Y-131722819D02*
X161800075Y-131722819D01*
X161800075Y-131722819D02*
X161895313Y-131675200D01*
X161895313Y-131675200D02*
X161942932Y-131579961D01*
X161942932Y-131579961D02*
X161942932Y-131484723D01*
X161942932Y-131484723D02*
X161895313Y-131389485D01*
X161895313Y-131389485D02*
X161800075Y-131341866D01*
X161800075Y-131341866D02*
X161561980Y-131341866D01*
X161561980Y-131341866D02*
X161466742Y-131294247D01*
X160990551Y-131056152D02*
X160990551Y-131722819D01*
X160990551Y-131151390D02*
X160942932Y-131103771D01*
X160942932Y-131103771D02*
X160847694Y-131056152D01*
X160847694Y-131056152D02*
X160704837Y-131056152D01*
X160704837Y-131056152D02*
X160609599Y-131103771D01*
X160609599Y-131103771D02*
X160561980Y-131199009D01*
X160561980Y-131199009D02*
X160561980Y-131722819D01*
X160085789Y-131056152D02*
X160085789Y-131722819D01*
X160085789Y-131151390D02*
X160038170Y-131103771D01*
X160038170Y-131103771D02*
X159942932Y-131056152D01*
X159942932Y-131056152D02*
X159800075Y-131056152D01*
X159800075Y-131056152D02*
X159704837Y-131103771D01*
X159704837Y-131103771D02*
X159657218Y-131199009D01*
X159657218Y-131199009D02*
X159657218Y-131722819D01*
X159038170Y-131722819D02*
X159133408Y-131675200D01*
X159133408Y-131675200D02*
X159181027Y-131627580D01*
X159181027Y-131627580D02*
X159228646Y-131532342D01*
X159228646Y-131532342D02*
X159228646Y-131246628D01*
X159228646Y-131246628D02*
X159181027Y-131151390D01*
X159181027Y-131151390D02*
X159133408Y-131103771D01*
X159133408Y-131103771D02*
X159038170Y-131056152D01*
X159038170Y-131056152D02*
X158895313Y-131056152D01*
X158895313Y-131056152D02*
X158800075Y-131103771D01*
X158800075Y-131103771D02*
X158752456Y-131151390D01*
X158752456Y-131151390D02*
X158704837Y-131246628D01*
X158704837Y-131246628D02*
X158704837Y-131532342D01*
X158704837Y-131532342D02*
X158752456Y-131627580D01*
X158752456Y-131627580D02*
X158800075Y-131675200D01*
X158800075Y-131675200D02*
X158895313Y-131722819D01*
X158895313Y-131722819D02*
X159038170Y-131722819D01*
X158419122Y-131056152D02*
X158038170Y-131056152D01*
X158276265Y-130722819D02*
X158276265Y-131579961D01*
X158276265Y-131579961D02*
X158228646Y-131675200D01*
X158228646Y-131675200D02*
X158133408Y-131722819D01*
X158133408Y-131722819D02*
X158038170Y-131722819D01*
X156942931Y-131722819D02*
X156942931Y-130722819D01*
X156942931Y-131103771D02*
X156847693Y-131056152D01*
X156847693Y-131056152D02*
X156657217Y-131056152D01*
X156657217Y-131056152D02*
X156561979Y-131103771D01*
X156561979Y-131103771D02*
X156514360Y-131151390D01*
X156514360Y-131151390D02*
X156466741Y-131246628D01*
X156466741Y-131246628D02*
X156466741Y-131532342D01*
X156466741Y-131532342D02*
X156514360Y-131627580D01*
X156514360Y-131627580D02*
X156561979Y-131675200D01*
X156561979Y-131675200D02*
X156657217Y-131722819D01*
X156657217Y-131722819D02*
X156847693Y-131722819D01*
X156847693Y-131722819D02*
X156942931Y-131675200D01*
X155657217Y-131675200D02*
X155752455Y-131722819D01*
X155752455Y-131722819D02*
X155942931Y-131722819D01*
X155942931Y-131722819D02*
X156038169Y-131675200D01*
X156038169Y-131675200D02*
X156085788Y-131579961D01*
X156085788Y-131579961D02*
X156085788Y-131199009D01*
X156085788Y-131199009D02*
X156038169Y-131103771D01*
X156038169Y-131103771D02*
X155942931Y-131056152D01*
X155942931Y-131056152D02*
X155752455Y-131056152D01*
X155752455Y-131056152D02*
X155657217Y-131103771D01*
X155657217Y-131103771D02*
X155609598Y-131199009D01*
X155609598Y-131199009D02*
X155609598Y-131294247D01*
X155609598Y-131294247D02*
X156085788Y-131389485D01*
X153990550Y-131056152D02*
X153990550Y-131722819D01*
X154419121Y-131056152D02*
X154419121Y-131579961D01*
X154419121Y-131579961D02*
X154371502Y-131675200D01*
X154371502Y-131675200D02*
X154276264Y-131722819D01*
X154276264Y-131722819D02*
X154133407Y-131722819D01*
X154133407Y-131722819D02*
X154038169Y-131675200D01*
X154038169Y-131675200D02*
X153990550Y-131627580D01*
X153514359Y-131056152D02*
X153514359Y-131722819D01*
X153514359Y-131151390D02*
X153466740Y-131103771D01*
X153466740Y-131103771D02*
X153371502Y-131056152D01*
X153371502Y-131056152D02*
X153228645Y-131056152D01*
X153228645Y-131056152D02*
X153133407Y-131103771D01*
X153133407Y-131103771D02*
X153085788Y-131199009D01*
X153085788Y-131199009D02*
X153085788Y-131722819D01*
X152181026Y-131722819D02*
X152181026Y-130722819D01*
X152181026Y-131675200D02*
X152276264Y-131722819D01*
X152276264Y-131722819D02*
X152466740Y-131722819D01*
X152466740Y-131722819D02*
X152561978Y-131675200D01*
X152561978Y-131675200D02*
X152609597Y-131627580D01*
X152609597Y-131627580D02*
X152657216Y-131532342D01*
X152657216Y-131532342D02*
X152657216Y-131246628D01*
X152657216Y-131246628D02*
X152609597Y-131151390D01*
X152609597Y-131151390D02*
X152561978Y-131103771D01*
X152561978Y-131103771D02*
X152466740Y-131056152D01*
X152466740Y-131056152D02*
X152276264Y-131056152D01*
X152276264Y-131056152D02*
X152181026Y-131103771D01*
X151323883Y-131675200D02*
X151419121Y-131722819D01*
X151419121Y-131722819D02*
X151609597Y-131722819D01*
X151609597Y-131722819D02*
X151704835Y-131675200D01*
X151704835Y-131675200D02*
X151752454Y-131579961D01*
X151752454Y-131579961D02*
X151752454Y-131199009D01*
X151752454Y-131199009D02*
X151704835Y-131103771D01*
X151704835Y-131103771D02*
X151609597Y-131056152D01*
X151609597Y-131056152D02*
X151419121Y-131056152D01*
X151419121Y-131056152D02*
X151323883Y-131103771D01*
X151323883Y-131103771D02*
X151276264Y-131199009D01*
X151276264Y-131199009D02*
X151276264Y-131294247D01*
X151276264Y-131294247D02*
X151752454Y-131389485D01*
X150847692Y-131722819D02*
X150847692Y-131056152D01*
X150847692Y-131246628D02*
X150800073Y-131151390D01*
X150800073Y-131151390D02*
X150752454Y-131103771D01*
X150752454Y-131103771D02*
X150657216Y-131056152D01*
X150657216Y-131056152D02*
X150561978Y-131056152D01*
X150276263Y-131675200D02*
X150181025Y-131722819D01*
X150181025Y-131722819D02*
X149990549Y-131722819D01*
X149990549Y-131722819D02*
X149895311Y-131675200D01*
X149895311Y-131675200D02*
X149847692Y-131579961D01*
X149847692Y-131579961D02*
X149847692Y-131532342D01*
X149847692Y-131532342D02*
X149895311Y-131437104D01*
X149895311Y-131437104D02*
X149990549Y-131389485D01*
X149990549Y-131389485D02*
X150133406Y-131389485D01*
X150133406Y-131389485D02*
X150228644Y-131341866D01*
X150228644Y-131341866D02*
X150276263Y-131246628D01*
X150276263Y-131246628D02*
X150276263Y-131199009D01*
X150276263Y-131199009D02*
X150228644Y-131103771D01*
X150228644Y-131103771D02*
X150133406Y-131056152D01*
X150133406Y-131056152D02*
X149990549Y-131056152D01*
X149990549Y-131056152D02*
X149895311Y-131103771D01*
X149561977Y-131056152D02*
X149181025Y-131056152D01*
X149419120Y-130722819D02*
X149419120Y-131579961D01*
X149419120Y-131579961D02*
X149371501Y-131675200D01*
X149371501Y-131675200D02*
X149276263Y-131722819D01*
X149276263Y-131722819D02*
X149181025Y-131722819D01*
X148704834Y-131722819D02*
X148800072Y-131675200D01*
X148800072Y-131675200D02*
X148847691Y-131627580D01*
X148847691Y-131627580D02*
X148895310Y-131532342D01*
X148895310Y-131532342D02*
X148895310Y-131246628D01*
X148895310Y-131246628D02*
X148847691Y-131151390D01*
X148847691Y-131151390D02*
X148800072Y-131103771D01*
X148800072Y-131103771D02*
X148704834Y-131056152D01*
X148704834Y-131056152D02*
X148561977Y-131056152D01*
X148561977Y-131056152D02*
X148466739Y-131103771D01*
X148466739Y-131103771D02*
X148419120Y-131151390D01*
X148419120Y-131151390D02*
X148371501Y-131246628D01*
X148371501Y-131246628D02*
X148371501Y-131532342D01*
X148371501Y-131532342D02*
X148419120Y-131627580D01*
X148419120Y-131627580D02*
X148466739Y-131675200D01*
X148466739Y-131675200D02*
X148561977Y-131722819D01*
X148561977Y-131722819D02*
X148704834Y-131722819D01*
X147800072Y-131722819D02*
X147895310Y-131675200D01*
X147895310Y-131675200D02*
X147942929Y-131627580D01*
X147942929Y-131627580D02*
X147990548Y-131532342D01*
X147990548Y-131532342D02*
X147990548Y-131246628D01*
X147990548Y-131246628D02*
X147942929Y-131151390D01*
X147942929Y-131151390D02*
X147895310Y-131103771D01*
X147895310Y-131103771D02*
X147800072Y-131056152D01*
X147800072Y-131056152D02*
X147657215Y-131056152D01*
X147657215Y-131056152D02*
X147561977Y-131103771D01*
X147561977Y-131103771D02*
X147514358Y-131151390D01*
X147514358Y-131151390D02*
X147466739Y-131246628D01*
X147466739Y-131246628D02*
X147466739Y-131532342D01*
X147466739Y-131532342D02*
X147514358Y-131627580D01*
X147514358Y-131627580D02*
X147561977Y-131675200D01*
X147561977Y-131675200D02*
X147657215Y-131722819D01*
X147657215Y-131722819D02*
X147800072Y-131722819D01*
X146609596Y-131722819D02*
X146609596Y-130722819D01*
X146609596Y-131675200D02*
X146704834Y-131722819D01*
X146704834Y-131722819D02*
X146895310Y-131722819D01*
X146895310Y-131722819D02*
X146990548Y-131675200D01*
X146990548Y-131675200D02*
X147038167Y-131627580D01*
X147038167Y-131627580D02*
X147085786Y-131532342D01*
X147085786Y-131532342D02*
X147085786Y-131246628D01*
X147085786Y-131246628D02*
X147038167Y-131151390D01*
X147038167Y-131151390D02*
X146990548Y-131103771D01*
X146990548Y-131103771D02*
X146895310Y-131056152D01*
X146895310Y-131056152D02*
X146704834Y-131056152D01*
X146704834Y-131056152D02*
X146609596Y-131103771D01*
X145371500Y-131722819D02*
X145371500Y-130722819D01*
X145371500Y-131103771D02*
X145276262Y-131056152D01*
X145276262Y-131056152D02*
X145085786Y-131056152D01*
X145085786Y-131056152D02*
X144990548Y-131103771D01*
X144990548Y-131103771D02*
X144942929Y-131151390D01*
X144942929Y-131151390D02*
X144895310Y-131246628D01*
X144895310Y-131246628D02*
X144895310Y-131532342D01*
X144895310Y-131532342D02*
X144942929Y-131627580D01*
X144942929Y-131627580D02*
X144990548Y-131675200D01*
X144990548Y-131675200D02*
X145085786Y-131722819D01*
X145085786Y-131722819D02*
X145276262Y-131722819D01*
X145276262Y-131722819D02*
X145371500Y-131675200D01*
X144561976Y-131056152D02*
X144323881Y-131722819D01*
X144085786Y-131056152D02*
X144323881Y-131722819D01*
X144323881Y-131722819D02*
X144419119Y-131960914D01*
X144419119Y-131960914D02*
X144466738Y-132008533D01*
X144466738Y-132008533D02*
X144561976Y-132056152D01*
X142990547Y-131675200D02*
X142895309Y-131722819D01*
X142895309Y-131722819D02*
X142704833Y-131722819D01*
X142704833Y-131722819D02*
X142609595Y-131675200D01*
X142609595Y-131675200D02*
X142561976Y-131579961D01*
X142561976Y-131579961D02*
X142561976Y-131532342D01*
X142561976Y-131532342D02*
X142609595Y-131437104D01*
X142609595Y-131437104D02*
X142704833Y-131389485D01*
X142704833Y-131389485D02*
X142847690Y-131389485D01*
X142847690Y-131389485D02*
X142942928Y-131341866D01*
X142942928Y-131341866D02*
X142990547Y-131246628D01*
X142990547Y-131246628D02*
X142990547Y-131199009D01*
X142990547Y-131199009D02*
X142942928Y-131103771D01*
X142942928Y-131103771D02*
X142847690Y-131056152D01*
X142847690Y-131056152D02*
X142704833Y-131056152D01*
X142704833Y-131056152D02*
X142609595Y-131103771D01*
X142276261Y-131056152D02*
X141895309Y-131056152D01*
X142133404Y-130722819D02*
X142133404Y-131579961D01*
X142133404Y-131579961D02*
X142085785Y-131675200D01*
X142085785Y-131675200D02*
X141990547Y-131722819D01*
X141990547Y-131722819D02*
X141895309Y-131722819D01*
X141419118Y-131722819D02*
X141514356Y-131675200D01*
X141514356Y-131675200D02*
X141561975Y-131627580D01*
X141561975Y-131627580D02*
X141609594Y-131532342D01*
X141609594Y-131532342D02*
X141609594Y-131246628D01*
X141609594Y-131246628D02*
X141561975Y-131151390D01*
X141561975Y-131151390D02*
X141514356Y-131103771D01*
X141514356Y-131103771D02*
X141419118Y-131056152D01*
X141419118Y-131056152D02*
X141276261Y-131056152D01*
X141276261Y-131056152D02*
X141181023Y-131103771D01*
X141181023Y-131103771D02*
X141133404Y-131151390D01*
X141133404Y-131151390D02*
X141085785Y-131246628D01*
X141085785Y-131246628D02*
X141085785Y-131532342D01*
X141085785Y-131532342D02*
X141133404Y-131627580D01*
X141133404Y-131627580D02*
X141181023Y-131675200D01*
X141181023Y-131675200D02*
X141276261Y-131722819D01*
X141276261Y-131722819D02*
X141419118Y-131722819D01*
X140657213Y-131056152D02*
X140657213Y-132056152D01*
X140657213Y-131103771D02*
X140561975Y-131056152D01*
X140561975Y-131056152D02*
X140371499Y-131056152D01*
X140371499Y-131056152D02*
X140276261Y-131103771D01*
X140276261Y-131103771D02*
X140228642Y-131151390D01*
X140228642Y-131151390D02*
X140181023Y-131246628D01*
X140181023Y-131246628D02*
X140181023Y-131532342D01*
X140181023Y-131532342D02*
X140228642Y-131627580D01*
X140228642Y-131627580D02*
X140276261Y-131675200D01*
X140276261Y-131675200D02*
X140371499Y-131722819D01*
X140371499Y-131722819D02*
X140561975Y-131722819D01*
X140561975Y-131722819D02*
X140657213Y-131675200D01*
X139752451Y-131056152D02*
X139752451Y-132056152D01*
X139752451Y-131103771D02*
X139657213Y-131056152D01*
X139657213Y-131056152D02*
X139466737Y-131056152D01*
X139466737Y-131056152D02*
X139371499Y-131103771D01*
X139371499Y-131103771D02*
X139323880Y-131151390D01*
X139323880Y-131151390D02*
X139276261Y-131246628D01*
X139276261Y-131246628D02*
X139276261Y-131532342D01*
X139276261Y-131532342D02*
X139323880Y-131627580D01*
X139323880Y-131627580D02*
X139371499Y-131675200D01*
X139371499Y-131675200D02*
X139466737Y-131722819D01*
X139466737Y-131722819D02*
X139657213Y-131722819D01*
X139657213Y-131722819D02*
X139752451Y-131675200D01*
X138847689Y-131722819D02*
X138847689Y-131056152D01*
X138847689Y-130722819D02*
X138895308Y-130770438D01*
X138895308Y-130770438D02*
X138847689Y-130818057D01*
X138847689Y-130818057D02*
X138800070Y-130770438D01*
X138800070Y-130770438D02*
X138847689Y-130722819D01*
X138847689Y-130722819D02*
X138847689Y-130818057D01*
X138371499Y-131056152D02*
X138371499Y-131722819D01*
X138371499Y-131151390D02*
X138323880Y-131103771D01*
X138323880Y-131103771D02*
X138228642Y-131056152D01*
X138228642Y-131056152D02*
X138085785Y-131056152D01*
X138085785Y-131056152D02*
X137990547Y-131103771D01*
X137990547Y-131103771D02*
X137942928Y-131199009D01*
X137942928Y-131199009D02*
X137942928Y-131722819D01*
X137038166Y-131056152D02*
X137038166Y-131865676D01*
X137038166Y-131865676D02*
X137085785Y-131960914D01*
X137085785Y-131960914D02*
X137133404Y-132008533D01*
X137133404Y-132008533D02*
X137228642Y-132056152D01*
X137228642Y-132056152D02*
X137371499Y-132056152D01*
X137371499Y-132056152D02*
X137466737Y-132008533D01*
X137038166Y-131675200D02*
X137133404Y-131722819D01*
X137133404Y-131722819D02*
X137323880Y-131722819D01*
X137323880Y-131722819D02*
X137419118Y-131675200D01*
X137419118Y-131675200D02*
X137466737Y-131627580D01*
X137466737Y-131627580D02*
X137514356Y-131532342D01*
X137514356Y-131532342D02*
X137514356Y-131246628D01*
X137514356Y-131246628D02*
X137466737Y-131151390D01*
X137466737Y-131151390D02*
X137419118Y-131103771D01*
X137419118Y-131103771D02*
X137323880Y-131056152D01*
X137323880Y-131056152D02*
X137133404Y-131056152D01*
X137133404Y-131056152D02*
X137038166Y-131103771D01*
X135800070Y-131722819D02*
X135800070Y-131056152D01*
X135800070Y-130722819D02*
X135847689Y-130770438D01*
X135847689Y-130770438D02*
X135800070Y-130818057D01*
X135800070Y-130818057D02*
X135752451Y-130770438D01*
X135752451Y-130770438D02*
X135800070Y-130722819D01*
X135800070Y-130722819D02*
X135800070Y-130818057D01*
X135466737Y-131056152D02*
X135085785Y-131056152D01*
X135323880Y-130722819D02*
X135323880Y-131579961D01*
X135323880Y-131579961D02*
X135276261Y-131675200D01*
X135276261Y-131675200D02*
X135181023Y-131722819D01*
X135181023Y-131722819D02*
X135085785Y-131722819D01*
X134752451Y-131627580D02*
X134704832Y-131675200D01*
X134704832Y-131675200D02*
X134752451Y-131722819D01*
X134752451Y-131722819D02*
X134800070Y-131675200D01*
X134800070Y-131675200D02*
X134752451Y-131627580D01*
X134752451Y-131627580D02*
X134752451Y-131722819D01*
X133514356Y-130722819D02*
X133514356Y-131532342D01*
X133514356Y-131532342D02*
X133466737Y-131627580D01*
X133466737Y-131627580D02*
X133419118Y-131675200D01*
X133419118Y-131675200D02*
X133323880Y-131722819D01*
X133323880Y-131722819D02*
X133133404Y-131722819D01*
X133133404Y-131722819D02*
X133038166Y-131675200D01*
X133038166Y-131675200D02*
X132990547Y-131627580D01*
X132990547Y-131627580D02*
X132942928Y-131532342D01*
X132942928Y-131532342D02*
X132942928Y-130722819D01*
X132466737Y-131056152D02*
X132466737Y-131722819D01*
X132466737Y-131151390D02*
X132419118Y-131103771D01*
X132419118Y-131103771D02*
X132323880Y-131056152D01*
X132323880Y-131056152D02*
X132181023Y-131056152D01*
X132181023Y-131056152D02*
X132085785Y-131103771D01*
X132085785Y-131103771D02*
X132038166Y-131199009D01*
X132038166Y-131199009D02*
X132038166Y-131722819D01*
X131133404Y-131722819D02*
X131133404Y-130722819D01*
X131133404Y-131675200D02*
X131228642Y-131722819D01*
X131228642Y-131722819D02*
X131419118Y-131722819D01*
X131419118Y-131722819D02*
X131514356Y-131675200D01*
X131514356Y-131675200D02*
X131561975Y-131627580D01*
X131561975Y-131627580D02*
X131609594Y-131532342D01*
X131609594Y-131532342D02*
X131609594Y-131246628D01*
X131609594Y-131246628D02*
X131561975Y-131151390D01*
X131561975Y-131151390D02*
X131514356Y-131103771D01*
X131514356Y-131103771D02*
X131419118Y-131056152D01*
X131419118Y-131056152D02*
X131228642Y-131056152D01*
X131228642Y-131056152D02*
X131133404Y-131103771D01*
X130276261Y-131675200D02*
X130371499Y-131722819D01*
X130371499Y-131722819D02*
X130561975Y-131722819D01*
X130561975Y-131722819D02*
X130657213Y-131675200D01*
X130657213Y-131675200D02*
X130704832Y-131579961D01*
X130704832Y-131579961D02*
X130704832Y-131199009D01*
X130704832Y-131199009D02*
X130657213Y-131103771D01*
X130657213Y-131103771D02*
X130561975Y-131056152D01*
X130561975Y-131056152D02*
X130371499Y-131056152D01*
X130371499Y-131056152D02*
X130276261Y-131103771D01*
X130276261Y-131103771D02*
X130228642Y-131199009D01*
X130228642Y-131199009D02*
X130228642Y-131294247D01*
X130228642Y-131294247D02*
X130704832Y-131389485D01*
X129800070Y-131722819D02*
X129800070Y-131056152D01*
X129800070Y-131246628D02*
X129752451Y-131151390D01*
X129752451Y-131151390D02*
X129704832Y-131103771D01*
X129704832Y-131103771D02*
X129609594Y-131056152D01*
X129609594Y-131056152D02*
X129514356Y-131056152D01*
X129228641Y-131675200D02*
X129133403Y-131722819D01*
X129133403Y-131722819D02*
X128942927Y-131722819D01*
X128942927Y-131722819D02*
X128847689Y-131675200D01*
X128847689Y-131675200D02*
X128800070Y-131579961D01*
X128800070Y-131579961D02*
X128800070Y-131532342D01*
X128800070Y-131532342D02*
X128847689Y-131437104D01*
X128847689Y-131437104D02*
X128942927Y-131389485D01*
X128942927Y-131389485D02*
X129085784Y-131389485D01*
X129085784Y-131389485D02*
X129181022Y-131341866D01*
X129181022Y-131341866D02*
X129228641Y-131246628D01*
X129228641Y-131246628D02*
X129228641Y-131199009D01*
X129228641Y-131199009D02*
X129181022Y-131103771D01*
X129181022Y-131103771D02*
X129085784Y-131056152D01*
X129085784Y-131056152D02*
X128942927Y-131056152D01*
X128942927Y-131056152D02*
X128847689Y-131103771D01*
X128514355Y-131056152D02*
X128133403Y-131056152D01*
X128371498Y-130722819D02*
X128371498Y-131579961D01*
X128371498Y-131579961D02*
X128323879Y-131675200D01*
X128323879Y-131675200D02*
X128228641Y-131722819D01*
X128228641Y-131722819D02*
X128133403Y-131722819D01*
X127371498Y-131722819D02*
X127371498Y-131199009D01*
X127371498Y-131199009D02*
X127419117Y-131103771D01*
X127419117Y-131103771D02*
X127514355Y-131056152D01*
X127514355Y-131056152D02*
X127704831Y-131056152D01*
X127704831Y-131056152D02*
X127800069Y-131103771D01*
X127371498Y-131675200D02*
X127466736Y-131722819D01*
X127466736Y-131722819D02*
X127704831Y-131722819D01*
X127704831Y-131722819D02*
X127800069Y-131675200D01*
X127800069Y-131675200D02*
X127847688Y-131579961D01*
X127847688Y-131579961D02*
X127847688Y-131484723D01*
X127847688Y-131484723D02*
X127800069Y-131389485D01*
X127800069Y-131389485D02*
X127704831Y-131341866D01*
X127704831Y-131341866D02*
X127466736Y-131341866D01*
X127466736Y-131341866D02*
X127371498Y-131294247D01*
X126895307Y-131056152D02*
X126895307Y-131722819D01*
X126895307Y-131151390D02*
X126847688Y-131103771D01*
X126847688Y-131103771D02*
X126752450Y-131056152D01*
X126752450Y-131056152D02*
X126609593Y-131056152D01*
X126609593Y-131056152D02*
X126514355Y-131103771D01*
X126514355Y-131103771D02*
X126466736Y-131199009D01*
X126466736Y-131199009D02*
X126466736Y-131722819D01*
X125561974Y-131722819D02*
X125561974Y-130722819D01*
X125561974Y-131675200D02*
X125657212Y-131722819D01*
X125657212Y-131722819D02*
X125847688Y-131722819D01*
X125847688Y-131722819D02*
X125942926Y-131675200D01*
X125942926Y-131675200D02*
X125990545Y-131627580D01*
X125990545Y-131627580D02*
X126038164Y-131532342D01*
X126038164Y-131532342D02*
X126038164Y-131246628D01*
X126038164Y-131246628D02*
X125990545Y-131151390D01*
X125990545Y-131151390D02*
X125942926Y-131103771D01*
X125942926Y-131103771D02*
X125847688Y-131056152D01*
X125847688Y-131056152D02*
X125657212Y-131056152D01*
X125657212Y-131056152D02*
X125561974Y-131103771D01*
X125085783Y-131722819D02*
X125085783Y-131056152D01*
X125085783Y-130722819D02*
X125133402Y-130770438D01*
X125133402Y-130770438D02*
X125085783Y-130818057D01*
X125085783Y-130818057D02*
X125038164Y-130770438D01*
X125038164Y-130770438D02*
X125085783Y-130722819D01*
X125085783Y-130722819D02*
X125085783Y-130818057D01*
X124609593Y-131056152D02*
X124609593Y-131722819D01*
X124609593Y-131151390D02*
X124561974Y-131103771D01*
X124561974Y-131103771D02*
X124466736Y-131056152D01*
X124466736Y-131056152D02*
X124323879Y-131056152D01*
X124323879Y-131056152D02*
X124228641Y-131103771D01*
X124228641Y-131103771D02*
X124181022Y-131199009D01*
X124181022Y-131199009D02*
X124181022Y-131722819D01*
X123276260Y-131056152D02*
X123276260Y-131865676D01*
X123276260Y-131865676D02*
X123323879Y-131960914D01*
X123323879Y-131960914D02*
X123371498Y-132008533D01*
X123371498Y-132008533D02*
X123466736Y-132056152D01*
X123466736Y-132056152D02*
X123609593Y-132056152D01*
X123609593Y-132056152D02*
X123704831Y-132008533D01*
X123276260Y-131675200D02*
X123371498Y-131722819D01*
X123371498Y-131722819D02*
X123561974Y-131722819D01*
X123561974Y-131722819D02*
X123657212Y-131675200D01*
X123657212Y-131675200D02*
X123704831Y-131627580D01*
X123704831Y-131627580D02*
X123752450Y-131532342D01*
X123752450Y-131532342D02*
X123752450Y-131246628D01*
X123752450Y-131246628D02*
X123704831Y-131151390D01*
X123704831Y-131151390D02*
X123657212Y-131103771D01*
X123657212Y-131103771D02*
X123561974Y-131056152D01*
X123561974Y-131056152D02*
X123371498Y-131056152D01*
X123371498Y-131056152D02*
X123276260Y-131103771D01*
X122038164Y-131722819D02*
X122038164Y-131056152D01*
X122038164Y-131151390D02*
X121990545Y-131103771D01*
X121990545Y-131103771D02*
X121895307Y-131056152D01*
X121895307Y-131056152D02*
X121752450Y-131056152D01*
X121752450Y-131056152D02*
X121657212Y-131103771D01*
X121657212Y-131103771D02*
X121609593Y-131199009D01*
X121609593Y-131199009D02*
X121609593Y-131722819D01*
X121609593Y-131199009D02*
X121561974Y-131103771D01*
X121561974Y-131103771D02*
X121466736Y-131056152D01*
X121466736Y-131056152D02*
X121323879Y-131056152D01*
X121323879Y-131056152D02*
X121228640Y-131103771D01*
X121228640Y-131103771D02*
X121181021Y-131199009D01*
X121181021Y-131199009D02*
X121181021Y-131722819D01*
X120276260Y-131056152D02*
X120276260Y-131722819D01*
X120704831Y-131056152D02*
X120704831Y-131579961D01*
X120704831Y-131579961D02*
X120657212Y-131675200D01*
X120657212Y-131675200D02*
X120561974Y-131722819D01*
X120561974Y-131722819D02*
X120419117Y-131722819D01*
X120419117Y-131722819D02*
X120323879Y-131675200D01*
X120323879Y-131675200D02*
X120276260Y-131627580D01*
X119847688Y-131675200D02*
X119752450Y-131722819D01*
X119752450Y-131722819D02*
X119561974Y-131722819D01*
X119561974Y-131722819D02*
X119466736Y-131675200D01*
X119466736Y-131675200D02*
X119419117Y-131579961D01*
X119419117Y-131579961D02*
X119419117Y-131532342D01*
X119419117Y-131532342D02*
X119466736Y-131437104D01*
X119466736Y-131437104D02*
X119561974Y-131389485D01*
X119561974Y-131389485D02*
X119704831Y-131389485D01*
X119704831Y-131389485D02*
X119800069Y-131341866D01*
X119800069Y-131341866D02*
X119847688Y-131246628D01*
X119847688Y-131246628D02*
X119847688Y-131199009D01*
X119847688Y-131199009D02*
X119800069Y-131103771D01*
X119800069Y-131103771D02*
X119704831Y-131056152D01*
X119704831Y-131056152D02*
X119561974Y-131056152D01*
X119561974Y-131056152D02*
X119466736Y-131103771D01*
X119133402Y-131056152D02*
X118752450Y-131056152D01*
X118990545Y-130722819D02*
X118990545Y-131579961D01*
X118990545Y-131579961D02*
X118942926Y-131675200D01*
X118942926Y-131675200D02*
X118847688Y-131722819D01*
X118847688Y-131722819D02*
X118752450Y-131722819D01*
X117657211Y-131722819D02*
X117657211Y-131056152D01*
X117657211Y-131151390D02*
X117609592Y-131103771D01*
X117609592Y-131103771D02*
X117514354Y-131056152D01*
X117514354Y-131056152D02*
X117371497Y-131056152D01*
X117371497Y-131056152D02*
X117276259Y-131103771D01*
X117276259Y-131103771D02*
X117228640Y-131199009D01*
X117228640Y-131199009D02*
X117228640Y-131722819D01*
X117228640Y-131199009D02*
X117181021Y-131103771D01*
X117181021Y-131103771D02*
X117085783Y-131056152D01*
X117085783Y-131056152D02*
X116942926Y-131056152D01*
X116942926Y-131056152D02*
X116847687Y-131103771D01*
X116847687Y-131103771D02*
X116800068Y-131199009D01*
X116800068Y-131199009D02*
X116800068Y-131722819D01*
X116181021Y-131722819D02*
X116276259Y-131675200D01*
X116276259Y-131675200D02*
X116323878Y-131627580D01*
X116323878Y-131627580D02*
X116371497Y-131532342D01*
X116371497Y-131532342D02*
X116371497Y-131246628D01*
X116371497Y-131246628D02*
X116323878Y-131151390D01*
X116323878Y-131151390D02*
X116276259Y-131103771D01*
X116276259Y-131103771D02*
X116181021Y-131056152D01*
X116181021Y-131056152D02*
X116038164Y-131056152D01*
X116038164Y-131056152D02*
X115942926Y-131103771D01*
X115942926Y-131103771D02*
X115895307Y-131151390D01*
X115895307Y-131151390D02*
X115847688Y-131246628D01*
X115847688Y-131246628D02*
X115847688Y-131532342D01*
X115847688Y-131532342D02*
X115895307Y-131627580D01*
X115895307Y-131627580D02*
X115942926Y-131675200D01*
X115942926Y-131675200D02*
X116038164Y-131722819D01*
X116038164Y-131722819D02*
X116181021Y-131722819D01*
X115514354Y-131056152D02*
X115276259Y-131722819D01*
X115276259Y-131722819D02*
X115038164Y-131056152D01*
X114276259Y-131675200D02*
X114371497Y-131722819D01*
X114371497Y-131722819D02*
X114561973Y-131722819D01*
X114561973Y-131722819D02*
X114657211Y-131675200D01*
X114657211Y-131675200D02*
X114704830Y-131579961D01*
X114704830Y-131579961D02*
X114704830Y-131199009D01*
X114704830Y-131199009D02*
X114657211Y-131103771D01*
X114657211Y-131103771D02*
X114561973Y-131056152D01*
X114561973Y-131056152D02*
X114371497Y-131056152D01*
X114371497Y-131056152D02*
X114276259Y-131103771D01*
X114276259Y-131103771D02*
X114228640Y-131199009D01*
X114228640Y-131199009D02*
X114228640Y-131294247D01*
X114228640Y-131294247D02*
X114704830Y-131389485D01*
X113133401Y-131056152D02*
X112942925Y-131722819D01*
X112942925Y-131722819D02*
X112752449Y-131246628D01*
X112752449Y-131246628D02*
X112561973Y-131722819D01*
X112561973Y-131722819D02*
X112371497Y-131056152D01*
X111990544Y-131722819D02*
X111990544Y-131056152D01*
X111990544Y-130722819D02*
X112038163Y-130770438D01*
X112038163Y-130770438D02*
X111990544Y-130818057D01*
X111990544Y-130818057D02*
X111942925Y-130770438D01*
X111942925Y-130770438D02*
X111990544Y-130722819D01*
X111990544Y-130722819D02*
X111990544Y-130818057D01*
X111657211Y-131056152D02*
X111276259Y-131056152D01*
X111514354Y-130722819D02*
X111514354Y-131579961D01*
X111514354Y-131579961D02*
X111466735Y-131675200D01*
X111466735Y-131675200D02*
X111371497Y-131722819D01*
X111371497Y-131722819D02*
X111276259Y-131722819D01*
X110942925Y-131722819D02*
X110942925Y-130722819D01*
X110514354Y-131722819D02*
X110514354Y-131199009D01*
X110514354Y-131199009D02*
X110561973Y-131103771D01*
X110561973Y-131103771D02*
X110657211Y-131056152D01*
X110657211Y-131056152D02*
X110800068Y-131056152D01*
X110800068Y-131056152D02*
X110895306Y-131103771D01*
X110895306Y-131103771D02*
X110942925Y-131151390D01*
X109419115Y-131056152D02*
X109038163Y-131056152D01*
X109276258Y-130722819D02*
X109276258Y-131579961D01*
X109276258Y-131579961D02*
X109228639Y-131675200D01*
X109228639Y-131675200D02*
X109133401Y-131722819D01*
X109133401Y-131722819D02*
X109038163Y-131722819D01*
X108704829Y-131722819D02*
X108704829Y-130722819D01*
X108276258Y-131722819D02*
X108276258Y-131199009D01*
X108276258Y-131199009D02*
X108323877Y-131103771D01*
X108323877Y-131103771D02*
X108419115Y-131056152D01*
X108419115Y-131056152D02*
X108561972Y-131056152D01*
X108561972Y-131056152D02*
X108657210Y-131103771D01*
X108657210Y-131103771D02*
X108704829Y-131151390D01*
X107419115Y-131675200D02*
X107514353Y-131722819D01*
X107514353Y-131722819D02*
X107704829Y-131722819D01*
X107704829Y-131722819D02*
X107800067Y-131675200D01*
X107800067Y-131675200D02*
X107847686Y-131579961D01*
X107847686Y-131579961D02*
X107847686Y-131199009D01*
X107847686Y-131199009D02*
X107800067Y-131103771D01*
X107800067Y-131103771D02*
X107704829Y-131056152D01*
X107704829Y-131056152D02*
X107514353Y-131056152D01*
X107514353Y-131056152D02*
X107419115Y-131103771D01*
X107419115Y-131103771D02*
X107371496Y-131199009D01*
X107371496Y-131199009D02*
X107371496Y-131294247D01*
X107371496Y-131294247D02*
X107847686Y-131389485D01*
X106323876Y-131056152D02*
X105942924Y-131056152D01*
X106181019Y-131722819D02*
X106181019Y-130865676D01*
X106181019Y-130865676D02*
X106133400Y-130770438D01*
X106133400Y-130770438D02*
X106038162Y-130722819D01*
X106038162Y-130722819D02*
X105942924Y-130722819D01*
X105466733Y-131722819D02*
X105561971Y-131675200D01*
X105561971Y-131675200D02*
X105609590Y-131579961D01*
X105609590Y-131579961D02*
X105609590Y-130722819D01*
X104942923Y-131722819D02*
X105038161Y-131675200D01*
X105038161Y-131675200D02*
X105085780Y-131627580D01*
X105085780Y-131627580D02*
X105133399Y-131532342D01*
X105133399Y-131532342D02*
X105133399Y-131246628D01*
X105133399Y-131246628D02*
X105085780Y-131151390D01*
X105085780Y-131151390D02*
X105038161Y-131103771D01*
X105038161Y-131103771D02*
X104942923Y-131056152D01*
X104942923Y-131056152D02*
X104800066Y-131056152D01*
X104800066Y-131056152D02*
X104704828Y-131103771D01*
X104704828Y-131103771D02*
X104657209Y-131151390D01*
X104657209Y-131151390D02*
X104609590Y-131246628D01*
X104609590Y-131246628D02*
X104609590Y-131532342D01*
X104609590Y-131532342D02*
X104657209Y-131627580D01*
X104657209Y-131627580D02*
X104704828Y-131675200D01*
X104704828Y-131675200D02*
X104800066Y-131722819D01*
X104800066Y-131722819D02*
X104942923Y-131722819D01*
X104276256Y-131056152D02*
X104085780Y-131722819D01*
X104085780Y-131722819D02*
X103895304Y-131246628D01*
X103895304Y-131246628D02*
X103704828Y-131722819D01*
X103704828Y-131722819D02*
X103514352Y-131056152D01*
X102228637Y-131722819D02*
X102323875Y-131675200D01*
X102323875Y-131675200D02*
X102371494Y-131627580D01*
X102371494Y-131627580D02*
X102419113Y-131532342D01*
X102419113Y-131532342D02*
X102419113Y-131246628D01*
X102419113Y-131246628D02*
X102371494Y-131151390D01*
X102371494Y-131151390D02*
X102323875Y-131103771D01*
X102323875Y-131103771D02*
X102228637Y-131056152D01*
X102228637Y-131056152D02*
X102085780Y-131056152D01*
X102085780Y-131056152D02*
X101990542Y-131103771D01*
X101990542Y-131103771D02*
X101942923Y-131151390D01*
X101942923Y-131151390D02*
X101895304Y-131246628D01*
X101895304Y-131246628D02*
X101895304Y-131532342D01*
X101895304Y-131532342D02*
X101942923Y-131627580D01*
X101942923Y-131627580D02*
X101990542Y-131675200D01*
X101990542Y-131675200D02*
X102085780Y-131722819D01*
X102085780Y-131722819D02*
X102228637Y-131722819D01*
X101609589Y-131056152D02*
X101228637Y-131056152D01*
X101466732Y-131722819D02*
X101466732Y-130865676D01*
X101466732Y-130865676D02*
X101419113Y-130770438D01*
X101419113Y-130770438D02*
X101323875Y-130722819D01*
X101323875Y-130722819D02*
X101228637Y-130722819D01*
X100276255Y-131056152D02*
X99895303Y-131056152D01*
X100133398Y-130722819D02*
X100133398Y-131579961D01*
X100133398Y-131579961D02*
X100085779Y-131675200D01*
X100085779Y-131675200D02*
X99990541Y-131722819D01*
X99990541Y-131722819D02*
X99895303Y-131722819D01*
X99561969Y-131722819D02*
X99561969Y-130722819D01*
X99133398Y-131722819D02*
X99133398Y-131199009D01*
X99133398Y-131199009D02*
X99181017Y-131103771D01*
X99181017Y-131103771D02*
X99276255Y-131056152D01*
X99276255Y-131056152D02*
X99419112Y-131056152D01*
X99419112Y-131056152D02*
X99514350Y-131103771D01*
X99514350Y-131103771D02*
X99561969Y-131151390D01*
X98276255Y-131675200D02*
X98371493Y-131722819D01*
X98371493Y-131722819D02*
X98561969Y-131722819D01*
X98561969Y-131722819D02*
X98657207Y-131675200D01*
X98657207Y-131675200D02*
X98704826Y-131579961D01*
X98704826Y-131579961D02*
X98704826Y-131199009D01*
X98704826Y-131199009D02*
X98657207Y-131103771D01*
X98657207Y-131103771D02*
X98561969Y-131056152D01*
X98561969Y-131056152D02*
X98371493Y-131056152D01*
X98371493Y-131056152D02*
X98276255Y-131103771D01*
X98276255Y-131103771D02*
X98228636Y-131199009D01*
X98228636Y-131199009D02*
X98228636Y-131294247D01*
X98228636Y-131294247D02*
X98704826Y-131389485D01*
X97038159Y-131056152D02*
X97038159Y-132056152D01*
X97038159Y-131103771D02*
X96942921Y-131056152D01*
X96942921Y-131056152D02*
X96752445Y-131056152D01*
X96752445Y-131056152D02*
X96657207Y-131103771D01*
X96657207Y-131103771D02*
X96609588Y-131151390D01*
X96609588Y-131151390D02*
X96561969Y-131246628D01*
X96561969Y-131246628D02*
X96561969Y-131532342D01*
X96561969Y-131532342D02*
X96609588Y-131627580D01*
X96609588Y-131627580D02*
X96657207Y-131675200D01*
X96657207Y-131675200D02*
X96752445Y-131722819D01*
X96752445Y-131722819D02*
X96942921Y-131722819D01*
X96942921Y-131722819D02*
X97038159Y-131675200D01*
X96133397Y-131722819D02*
X96133397Y-131056152D01*
X96133397Y-131246628D02*
X96085778Y-131151390D01*
X96085778Y-131151390D02*
X96038159Y-131103771D01*
X96038159Y-131103771D02*
X95942921Y-131056152D01*
X95942921Y-131056152D02*
X95847683Y-131056152D01*
X95371492Y-131722819D02*
X95466730Y-131675200D01*
X95466730Y-131675200D02*
X95514349Y-131627580D01*
X95514349Y-131627580D02*
X95561968Y-131532342D01*
X95561968Y-131532342D02*
X95561968Y-131246628D01*
X95561968Y-131246628D02*
X95514349Y-131151390D01*
X95514349Y-131151390D02*
X95466730Y-131103771D01*
X95466730Y-131103771D02*
X95371492Y-131056152D01*
X95371492Y-131056152D02*
X95228635Y-131056152D01*
X95228635Y-131056152D02*
X95133397Y-131103771D01*
X95133397Y-131103771D02*
X95085778Y-131151390D01*
X95085778Y-131151390D02*
X95038159Y-131246628D01*
X95038159Y-131246628D02*
X95038159Y-131532342D01*
X95038159Y-131532342D02*
X95085778Y-131627580D01*
X95085778Y-131627580D02*
X95133397Y-131675200D01*
X95133397Y-131675200D02*
X95228635Y-131722819D01*
X95228635Y-131722819D02*
X95371492Y-131722819D01*
X94181016Y-131675200D02*
X94276254Y-131722819D01*
X94276254Y-131722819D02*
X94466730Y-131722819D01*
X94466730Y-131722819D02*
X94561968Y-131675200D01*
X94561968Y-131675200D02*
X94609587Y-131627580D01*
X94609587Y-131627580D02*
X94657206Y-131532342D01*
X94657206Y-131532342D02*
X94657206Y-131246628D01*
X94657206Y-131246628D02*
X94609587Y-131151390D01*
X94609587Y-131151390D02*
X94561968Y-131103771D01*
X94561968Y-131103771D02*
X94466730Y-131056152D01*
X94466730Y-131056152D02*
X94276254Y-131056152D01*
X94276254Y-131056152D02*
X94181016Y-131103771D01*
X93371492Y-131675200D02*
X93466730Y-131722819D01*
X93466730Y-131722819D02*
X93657206Y-131722819D01*
X93657206Y-131722819D02*
X93752444Y-131675200D01*
X93752444Y-131675200D02*
X93800063Y-131579961D01*
X93800063Y-131579961D02*
X93800063Y-131199009D01*
X93800063Y-131199009D02*
X93752444Y-131103771D01*
X93752444Y-131103771D02*
X93657206Y-131056152D01*
X93657206Y-131056152D02*
X93466730Y-131056152D01*
X93466730Y-131056152D02*
X93371492Y-131103771D01*
X93371492Y-131103771D02*
X93323873Y-131199009D01*
X93323873Y-131199009D02*
X93323873Y-131294247D01*
X93323873Y-131294247D02*
X93800063Y-131389485D01*
X92942920Y-131675200D02*
X92847682Y-131722819D01*
X92847682Y-131722819D02*
X92657206Y-131722819D01*
X92657206Y-131722819D02*
X92561968Y-131675200D01*
X92561968Y-131675200D02*
X92514349Y-131579961D01*
X92514349Y-131579961D02*
X92514349Y-131532342D01*
X92514349Y-131532342D02*
X92561968Y-131437104D01*
X92561968Y-131437104D02*
X92657206Y-131389485D01*
X92657206Y-131389485D02*
X92800063Y-131389485D01*
X92800063Y-131389485D02*
X92895301Y-131341866D01*
X92895301Y-131341866D02*
X92942920Y-131246628D01*
X92942920Y-131246628D02*
X92942920Y-131199009D01*
X92942920Y-131199009D02*
X92895301Y-131103771D01*
X92895301Y-131103771D02*
X92800063Y-131056152D01*
X92800063Y-131056152D02*
X92657206Y-131056152D01*
X92657206Y-131056152D02*
X92561968Y-131103771D01*
X92133396Y-131675200D02*
X92038158Y-131722819D01*
X92038158Y-131722819D02*
X91847682Y-131722819D01*
X91847682Y-131722819D02*
X91752444Y-131675200D01*
X91752444Y-131675200D02*
X91704825Y-131579961D01*
X91704825Y-131579961D02*
X91704825Y-131532342D01*
X91704825Y-131532342D02*
X91752444Y-131437104D01*
X91752444Y-131437104D02*
X91847682Y-131389485D01*
X91847682Y-131389485D02*
X91990539Y-131389485D01*
X91990539Y-131389485D02*
X92085777Y-131341866D01*
X92085777Y-131341866D02*
X92133396Y-131246628D01*
X92133396Y-131246628D02*
X92133396Y-131199009D01*
X92133396Y-131199009D02*
X92085777Y-131103771D01*
X92085777Y-131103771D02*
X91990539Y-131056152D01*
X91990539Y-131056152D02*
X91847682Y-131056152D01*
X91847682Y-131056152D02*
X91752444Y-131103771D01*
X91228634Y-131675200D02*
X91228634Y-131722819D01*
X91228634Y-131722819D02*
X91276253Y-131818057D01*
X91276253Y-131818057D02*
X91323872Y-131865676D01*
X171657220Y-133332819D02*
X171657220Y-132666152D01*
X171657220Y-132761390D02*
X171609601Y-132713771D01*
X171609601Y-132713771D02*
X171514363Y-132666152D01*
X171514363Y-132666152D02*
X171371506Y-132666152D01*
X171371506Y-132666152D02*
X171276268Y-132713771D01*
X171276268Y-132713771D02*
X171228649Y-132809009D01*
X171228649Y-132809009D02*
X171228649Y-133332819D01*
X171228649Y-132809009D02*
X171181030Y-132713771D01*
X171181030Y-132713771D02*
X171085792Y-132666152D01*
X171085792Y-132666152D02*
X170942935Y-132666152D01*
X170942935Y-132666152D02*
X170847696Y-132713771D01*
X170847696Y-132713771D02*
X170800077Y-132809009D01*
X170800077Y-132809009D02*
X170800077Y-133332819D01*
X169895316Y-132666152D02*
X169895316Y-133332819D01*
X170323887Y-132666152D02*
X170323887Y-133189961D01*
X170323887Y-133189961D02*
X170276268Y-133285200D01*
X170276268Y-133285200D02*
X170181030Y-133332819D01*
X170181030Y-133332819D02*
X170038173Y-133332819D01*
X170038173Y-133332819D02*
X169942935Y-133285200D01*
X169942935Y-133285200D02*
X169895316Y-133237580D01*
X169466744Y-133285200D02*
X169371506Y-133332819D01*
X169371506Y-133332819D02*
X169181030Y-133332819D01*
X169181030Y-133332819D02*
X169085792Y-133285200D01*
X169085792Y-133285200D02*
X169038173Y-133189961D01*
X169038173Y-133189961D02*
X169038173Y-133142342D01*
X169038173Y-133142342D02*
X169085792Y-133047104D01*
X169085792Y-133047104D02*
X169181030Y-132999485D01*
X169181030Y-132999485D02*
X169323887Y-132999485D01*
X169323887Y-132999485D02*
X169419125Y-132951866D01*
X169419125Y-132951866D02*
X169466744Y-132856628D01*
X169466744Y-132856628D02*
X169466744Y-132809009D01*
X169466744Y-132809009D02*
X169419125Y-132713771D01*
X169419125Y-132713771D02*
X169323887Y-132666152D01*
X169323887Y-132666152D02*
X169181030Y-132666152D01*
X169181030Y-132666152D02*
X169085792Y-132713771D01*
X168752458Y-132666152D02*
X168371506Y-132666152D01*
X168609601Y-132332819D02*
X168609601Y-133189961D01*
X168609601Y-133189961D02*
X168561982Y-133285200D01*
X168561982Y-133285200D02*
X168466744Y-133332819D01*
X168466744Y-133332819D02*
X168371506Y-133332819D01*
X167276267Y-132666152D02*
X167276267Y-133523295D01*
X167276267Y-133523295D02*
X167323886Y-133618533D01*
X167323886Y-133618533D02*
X167419124Y-133666152D01*
X167419124Y-133666152D02*
X167466743Y-133666152D01*
X167276267Y-132332819D02*
X167323886Y-132380438D01*
X167323886Y-132380438D02*
X167276267Y-132428057D01*
X167276267Y-132428057D02*
X167228648Y-132380438D01*
X167228648Y-132380438D02*
X167276267Y-132332819D01*
X167276267Y-132332819D02*
X167276267Y-132428057D01*
X166657220Y-133332819D02*
X166752458Y-133285200D01*
X166752458Y-133285200D02*
X166800077Y-133237580D01*
X166800077Y-133237580D02*
X166847696Y-133142342D01*
X166847696Y-133142342D02*
X166847696Y-132856628D01*
X166847696Y-132856628D02*
X166800077Y-132761390D01*
X166800077Y-132761390D02*
X166752458Y-132713771D01*
X166752458Y-132713771D02*
X166657220Y-132666152D01*
X166657220Y-132666152D02*
X166514363Y-132666152D01*
X166514363Y-132666152D02*
X166419125Y-132713771D01*
X166419125Y-132713771D02*
X166371506Y-132761390D01*
X166371506Y-132761390D02*
X166323887Y-132856628D01*
X166323887Y-132856628D02*
X166323887Y-133142342D01*
X166323887Y-133142342D02*
X166371506Y-133237580D01*
X166371506Y-133237580D02*
X166419125Y-133285200D01*
X166419125Y-133285200D02*
X166514363Y-133332819D01*
X166514363Y-133332819D02*
X166657220Y-133332819D01*
X165895315Y-133332819D02*
X165895315Y-132666152D01*
X165895315Y-132332819D02*
X165942934Y-132380438D01*
X165942934Y-132380438D02*
X165895315Y-132428057D01*
X165895315Y-132428057D02*
X165847696Y-132380438D01*
X165847696Y-132380438D02*
X165895315Y-132332819D01*
X165895315Y-132332819D02*
X165895315Y-132428057D01*
X165419125Y-132666152D02*
X165419125Y-133332819D01*
X165419125Y-132761390D02*
X165371506Y-132713771D01*
X165371506Y-132713771D02*
X165276268Y-132666152D01*
X165276268Y-132666152D02*
X165133411Y-132666152D01*
X165133411Y-132666152D02*
X165038173Y-132713771D01*
X165038173Y-132713771D02*
X164990554Y-132809009D01*
X164990554Y-132809009D02*
X164990554Y-133332819D01*
X163752458Y-133332819D02*
X163752458Y-132666152D01*
X163752458Y-132332819D02*
X163800077Y-132380438D01*
X163800077Y-132380438D02*
X163752458Y-132428057D01*
X163752458Y-132428057D02*
X163704839Y-132380438D01*
X163704839Y-132380438D02*
X163752458Y-132332819D01*
X163752458Y-132332819D02*
X163752458Y-132428057D01*
X163419125Y-132666152D02*
X163038173Y-132666152D01*
X163276268Y-132332819D02*
X163276268Y-133189961D01*
X163276268Y-133189961D02*
X163228649Y-133285200D01*
X163228649Y-133285200D02*
X163133411Y-133332819D01*
X163133411Y-133332819D02*
X163038173Y-133332819D01*
X161514363Y-133332819D02*
X161514363Y-132809009D01*
X161514363Y-132809009D02*
X161561982Y-132713771D01*
X161561982Y-132713771D02*
X161657220Y-132666152D01*
X161657220Y-132666152D02*
X161847696Y-132666152D01*
X161847696Y-132666152D02*
X161942934Y-132713771D01*
X161514363Y-133285200D02*
X161609601Y-133332819D01*
X161609601Y-133332819D02*
X161847696Y-133332819D01*
X161847696Y-133332819D02*
X161942934Y-133285200D01*
X161942934Y-133285200D02*
X161990553Y-133189961D01*
X161990553Y-133189961D02*
X161990553Y-133094723D01*
X161990553Y-133094723D02*
X161942934Y-132999485D01*
X161942934Y-132999485D02*
X161847696Y-132951866D01*
X161847696Y-132951866D02*
X161609601Y-132951866D01*
X161609601Y-132951866D02*
X161514363Y-132904247D01*
X161038172Y-132666152D02*
X161038172Y-133332819D01*
X161038172Y-132761390D02*
X160990553Y-132713771D01*
X160990553Y-132713771D02*
X160895315Y-132666152D01*
X160895315Y-132666152D02*
X160752458Y-132666152D01*
X160752458Y-132666152D02*
X160657220Y-132713771D01*
X160657220Y-132713771D02*
X160609601Y-132809009D01*
X160609601Y-132809009D02*
X160609601Y-133332819D01*
X159704839Y-133332819D02*
X159704839Y-132332819D01*
X159704839Y-133285200D02*
X159800077Y-133332819D01*
X159800077Y-133332819D02*
X159990553Y-133332819D01*
X159990553Y-133332819D02*
X160085791Y-133285200D01*
X160085791Y-133285200D02*
X160133410Y-133237580D01*
X160133410Y-133237580D02*
X160181029Y-133142342D01*
X160181029Y-133142342D02*
X160181029Y-132856628D01*
X160181029Y-132856628D02*
X160133410Y-132761390D01*
X160133410Y-132761390D02*
X160085791Y-132713771D01*
X160085791Y-132713771D02*
X159990553Y-132666152D01*
X159990553Y-132666152D02*
X159800077Y-132666152D01*
X159800077Y-132666152D02*
X159704839Y-132713771D01*
X158609600Y-132666152D02*
X158228648Y-132666152D01*
X158466743Y-133332819D02*
X158466743Y-132475676D01*
X158466743Y-132475676D02*
X158419124Y-132380438D01*
X158419124Y-132380438D02*
X158323886Y-132332819D01*
X158323886Y-132332819D02*
X158228648Y-132332819D01*
X157752457Y-133332819D02*
X157847695Y-133285200D01*
X157847695Y-133285200D02*
X157895314Y-133189961D01*
X157895314Y-133189961D02*
X157895314Y-132332819D01*
X157228647Y-133332819D02*
X157323885Y-133285200D01*
X157323885Y-133285200D02*
X157371504Y-133237580D01*
X157371504Y-133237580D02*
X157419123Y-133142342D01*
X157419123Y-133142342D02*
X157419123Y-132856628D01*
X157419123Y-132856628D02*
X157371504Y-132761390D01*
X157371504Y-132761390D02*
X157323885Y-132713771D01*
X157323885Y-132713771D02*
X157228647Y-132666152D01*
X157228647Y-132666152D02*
X157085790Y-132666152D01*
X157085790Y-132666152D02*
X156990552Y-132713771D01*
X156990552Y-132713771D02*
X156942933Y-132761390D01*
X156942933Y-132761390D02*
X156895314Y-132856628D01*
X156895314Y-132856628D02*
X156895314Y-133142342D01*
X156895314Y-133142342D02*
X156942933Y-133237580D01*
X156942933Y-133237580D02*
X156990552Y-133285200D01*
X156990552Y-133285200D02*
X157085790Y-133332819D01*
X157085790Y-133332819D02*
X157228647Y-133332819D01*
X156561980Y-132666152D02*
X156371504Y-133332819D01*
X156371504Y-133332819D02*
X156181028Y-132856628D01*
X156181028Y-132856628D02*
X155990552Y-133332819D01*
X155990552Y-133332819D02*
X155800076Y-132666152D01*
X154752456Y-132666152D02*
X154561980Y-133332819D01*
X154561980Y-133332819D02*
X154371504Y-132856628D01*
X154371504Y-132856628D02*
X154181028Y-133332819D01*
X154181028Y-133332819D02*
X153990552Y-132666152D01*
X153609599Y-133332819D02*
X153609599Y-132666152D01*
X153609599Y-132332819D02*
X153657218Y-132380438D01*
X153657218Y-132380438D02*
X153609599Y-132428057D01*
X153609599Y-132428057D02*
X153561980Y-132380438D01*
X153561980Y-132380438D02*
X153609599Y-132332819D01*
X153609599Y-132332819D02*
X153609599Y-132428057D01*
X153276266Y-132666152D02*
X152895314Y-132666152D01*
X153133409Y-132332819D02*
X153133409Y-133189961D01*
X153133409Y-133189961D02*
X153085790Y-133285200D01*
X153085790Y-133285200D02*
X152990552Y-133332819D01*
X152990552Y-133332819D02*
X152895314Y-133332819D01*
X152561980Y-133332819D02*
X152561980Y-132332819D01*
X152133409Y-133332819D02*
X152133409Y-132809009D01*
X152133409Y-132809009D02*
X152181028Y-132713771D01*
X152181028Y-132713771D02*
X152276266Y-132666152D01*
X152276266Y-132666152D02*
X152419123Y-132666152D01*
X152419123Y-132666152D02*
X152514361Y-132713771D01*
X152514361Y-132713771D02*
X152561980Y-132761390D01*
X150895313Y-133332819D02*
X150895313Y-132666152D01*
X150895313Y-132332819D02*
X150942932Y-132380438D01*
X150942932Y-132380438D02*
X150895313Y-132428057D01*
X150895313Y-132428057D02*
X150847694Y-132380438D01*
X150847694Y-132380438D02*
X150895313Y-132332819D01*
X150895313Y-132332819D02*
X150895313Y-132428057D01*
X150561980Y-132666152D02*
X150181028Y-132666152D01*
X150419123Y-132332819D02*
X150419123Y-133189961D01*
X150419123Y-133189961D02*
X150371504Y-133285200D01*
X150371504Y-133285200D02*
X150276266Y-133332819D01*
X150276266Y-133332819D02*
X150181028Y-133332819D01*
X149847694Y-133237580D02*
X149800075Y-133285200D01*
X149800075Y-133285200D02*
X149847694Y-133332819D01*
X149847694Y-133332819D02*
X149895313Y-133285200D01*
X149895313Y-133285200D02*
X149847694Y-133237580D01*
X149847694Y-133237580D02*
X149847694Y-133332819D01*
X149419123Y-132332819D02*
X149419123Y-132523295D01*
X149038171Y-132332819D02*
X149038171Y-132523295D01*
X147847694Y-132951866D02*
X147085790Y-132951866D01*
X146276266Y-132809009D02*
X146609599Y-132809009D01*
X146609599Y-133332819D02*
X146609599Y-132332819D01*
X146609599Y-132332819D02*
X146133409Y-132332819D01*
X145752456Y-133332819D02*
X145752456Y-132666152D01*
X145752456Y-132856628D02*
X145704837Y-132761390D01*
X145704837Y-132761390D02*
X145657218Y-132713771D01*
X145657218Y-132713771D02*
X145561980Y-132666152D01*
X145561980Y-132666152D02*
X145466742Y-132666152D01*
X144704837Y-133332819D02*
X144704837Y-132809009D01*
X144704837Y-132809009D02*
X144752456Y-132713771D01*
X144752456Y-132713771D02*
X144847694Y-132666152D01*
X144847694Y-132666152D02*
X145038170Y-132666152D01*
X145038170Y-132666152D02*
X145133408Y-132713771D01*
X144704837Y-133285200D02*
X144800075Y-133332819D01*
X144800075Y-133332819D02*
X145038170Y-133332819D01*
X145038170Y-133332819D02*
X145133408Y-133285200D01*
X145133408Y-133285200D02*
X145181027Y-133189961D01*
X145181027Y-133189961D02*
X145181027Y-133094723D01*
X145181027Y-133094723D02*
X145133408Y-132999485D01*
X145133408Y-132999485D02*
X145038170Y-132951866D01*
X145038170Y-132951866D02*
X144800075Y-132951866D01*
X144800075Y-132951866D02*
X144704837Y-132904247D01*
X144228646Y-132666152D02*
X144228646Y-133332819D01*
X144228646Y-132761390D02*
X144181027Y-132713771D01*
X144181027Y-132713771D02*
X144085789Y-132666152D01*
X144085789Y-132666152D02*
X143942932Y-132666152D01*
X143942932Y-132666152D02*
X143847694Y-132713771D01*
X143847694Y-132713771D02*
X143800075Y-132809009D01*
X143800075Y-132809009D02*
X143800075Y-133332819D01*
X143323884Y-133332819D02*
X143323884Y-132332819D01*
X143228646Y-132951866D02*
X142942932Y-133332819D01*
X142942932Y-132666152D02*
X143323884Y-133047104D01*
X141752455Y-133332819D02*
X141752455Y-132332819D01*
X141752455Y-132809009D02*
X141181027Y-132809009D01*
X141181027Y-133332819D02*
X141181027Y-132332819D01*
X140323884Y-133285200D02*
X140419122Y-133332819D01*
X140419122Y-133332819D02*
X140609598Y-133332819D01*
X140609598Y-133332819D02*
X140704836Y-133285200D01*
X140704836Y-133285200D02*
X140752455Y-133189961D01*
X140752455Y-133189961D02*
X140752455Y-132809009D01*
X140752455Y-132809009D02*
X140704836Y-132713771D01*
X140704836Y-132713771D02*
X140609598Y-132666152D01*
X140609598Y-132666152D02*
X140419122Y-132666152D01*
X140419122Y-132666152D02*
X140323884Y-132713771D01*
X140323884Y-132713771D02*
X140276265Y-132809009D01*
X140276265Y-132809009D02*
X140276265Y-132904247D01*
X140276265Y-132904247D02*
X140752455Y-132999485D01*
X139847693Y-133332819D02*
X139847693Y-132666152D01*
X139847693Y-132856628D02*
X139800074Y-132761390D01*
X139800074Y-132761390D02*
X139752455Y-132713771D01*
X139752455Y-132713771D02*
X139657217Y-132666152D01*
X139657217Y-132666152D02*
X139561979Y-132666152D01*
X139228645Y-133332819D02*
X139228645Y-132332819D01*
X139228645Y-132713771D02*
X139133407Y-132666152D01*
X139133407Y-132666152D02*
X138942931Y-132666152D01*
X138942931Y-132666152D02*
X138847693Y-132713771D01*
X138847693Y-132713771D02*
X138800074Y-132761390D01*
X138800074Y-132761390D02*
X138752455Y-132856628D01*
X138752455Y-132856628D02*
X138752455Y-133142342D01*
X138752455Y-133142342D02*
X138800074Y-133237580D01*
X138800074Y-133237580D02*
X138847693Y-133285200D01*
X138847693Y-133285200D02*
X138942931Y-133332819D01*
X138942931Y-133332819D02*
X139133407Y-133332819D01*
X139133407Y-133332819D02*
X139228645Y-133285200D01*
X137942931Y-133285200D02*
X138038169Y-133332819D01*
X138038169Y-133332819D02*
X138228645Y-133332819D01*
X138228645Y-133332819D02*
X138323883Y-133285200D01*
X138323883Y-133285200D02*
X138371502Y-133189961D01*
X138371502Y-133189961D02*
X138371502Y-132809009D01*
X138371502Y-132809009D02*
X138323883Y-132713771D01*
X138323883Y-132713771D02*
X138228645Y-132666152D01*
X138228645Y-132666152D02*
X138038169Y-132666152D01*
X138038169Y-132666152D02*
X137942931Y-132713771D01*
X137942931Y-132713771D02*
X137895312Y-132809009D01*
X137895312Y-132809009D02*
X137895312Y-132904247D01*
X137895312Y-132904247D02*
X138371502Y-132999485D01*
X137466740Y-133332819D02*
X137466740Y-132666152D01*
X137466740Y-132856628D02*
X137419121Y-132761390D01*
X137419121Y-132761390D02*
X137371502Y-132713771D01*
X137371502Y-132713771D02*
X137276264Y-132666152D01*
X137276264Y-132666152D02*
X137181026Y-132666152D01*
X136990549Y-132666152D02*
X136609597Y-132666152D01*
X136847692Y-132332819D02*
X136847692Y-133189961D01*
X136847692Y-133189961D02*
X136800073Y-133285200D01*
X136800073Y-133285200D02*
X136704835Y-133332819D01*
X136704835Y-133332819D02*
X136609597Y-133332819D01*
X136228644Y-133285200D02*
X136228644Y-133332819D01*
X136228644Y-133332819D02*
X136276263Y-133428057D01*
X136276263Y-133428057D02*
X136323882Y-133475676D01*
X135038168Y-133332819D02*
X135038168Y-132332819D01*
X135038168Y-132332819D02*
X134800073Y-132332819D01*
X134800073Y-132332819D02*
X134657216Y-132380438D01*
X134657216Y-132380438D02*
X134561978Y-132475676D01*
X134561978Y-132475676D02*
X134514359Y-132570914D01*
X134514359Y-132570914D02*
X134466740Y-132761390D01*
X134466740Y-132761390D02*
X134466740Y-132904247D01*
X134466740Y-132904247D02*
X134514359Y-133094723D01*
X134514359Y-133094723D02*
X134561978Y-133189961D01*
X134561978Y-133189961D02*
X134657216Y-133285200D01*
X134657216Y-133285200D02*
X134800073Y-133332819D01*
X134800073Y-133332819D02*
X135038168Y-133332819D01*
X133609597Y-132666152D02*
X133609597Y-133332819D01*
X134038168Y-132666152D02*
X134038168Y-133189961D01*
X134038168Y-133189961D02*
X133990549Y-133285200D01*
X133990549Y-133285200D02*
X133895311Y-133332819D01*
X133895311Y-133332819D02*
X133752454Y-133332819D01*
X133752454Y-133332819D02*
X133657216Y-133285200D01*
X133657216Y-133285200D02*
X133609597Y-133237580D01*
X133133406Y-132666152D02*
X133133406Y-133332819D01*
X133133406Y-132761390D02*
X133085787Y-132713771D01*
X133085787Y-132713771D02*
X132990549Y-132666152D01*
X132990549Y-132666152D02*
X132847692Y-132666152D01*
X132847692Y-132666152D02*
X132752454Y-132713771D01*
X132752454Y-132713771D02*
X132704835Y-132809009D01*
X132704835Y-132809009D02*
X132704835Y-133332819D01*
X131847692Y-133285200D02*
X131942930Y-133332819D01*
X131942930Y-133332819D02*
X132133406Y-133332819D01*
X132133406Y-133332819D02*
X132228644Y-133285200D01*
X132228644Y-133285200D02*
X132276263Y-133189961D01*
X132276263Y-133189961D02*
X132276263Y-132809009D01*
X132276263Y-132809009D02*
X132228644Y-132713771D01*
X132228644Y-132713771D02*
X132133406Y-132666152D01*
X132133406Y-132666152D02*
X131942930Y-132666152D01*
X131942930Y-132666152D02*
X131847692Y-132713771D01*
X131847692Y-132713771D02*
X131800073Y-132809009D01*
X131800073Y-132809009D02*
X131800073Y-132904247D01*
X131800073Y-132904247D02*
X132276263Y-132999485D01*
X250224111Y-146488720D02*
X250557444Y-146012529D01*
X250795539Y-146488720D02*
X250795539Y-145488720D01*
X250795539Y-145488720D02*
X250414587Y-145488720D01*
X250414587Y-145488720D02*
X250319349Y-145536339D01*
X250319349Y-145536339D02*
X250271730Y-145583958D01*
X250271730Y-145583958D02*
X250224111Y-145679196D01*
X250224111Y-145679196D02*
X250224111Y-145822053D01*
X250224111Y-145822053D02*
X250271730Y-145917291D01*
X250271730Y-145917291D02*
X250319349Y-145964910D01*
X250319349Y-145964910D02*
X250414587Y-146012529D01*
X250414587Y-146012529D02*
X250795539Y-146012529D01*
X249843158Y-145583958D02*
X249795539Y-145536339D01*
X249795539Y-145536339D02*
X249700301Y-145488720D01*
X249700301Y-145488720D02*
X249462206Y-145488720D01*
X249462206Y-145488720D02*
X249366968Y-145536339D01*
X249366968Y-145536339D02*
X249319349Y-145583958D01*
X249319349Y-145583958D02*
X249271730Y-145679196D01*
X249271730Y-145679196D02*
X249271730Y-145774434D01*
X249271730Y-145774434D02*
X249319349Y-145917291D01*
X249319349Y-145917291D02*
X249890777Y-146488720D01*
X249890777Y-146488720D02*
X249271730Y-146488720D01*
X248652682Y-145488720D02*
X248557444Y-145488720D01*
X248557444Y-145488720D02*
X248462206Y-145536339D01*
X248462206Y-145536339D02*
X248414587Y-145583958D01*
X248414587Y-145583958D02*
X248366968Y-145679196D01*
X248366968Y-145679196D02*
X248319349Y-145869672D01*
X248319349Y-145869672D02*
X248319349Y-146107767D01*
X248319349Y-146107767D02*
X248366968Y-146298243D01*
X248366968Y-146298243D02*
X248414587Y-146393481D01*
X248414587Y-146393481D02*
X248462206Y-146441101D01*
X248462206Y-146441101D02*
X248557444Y-146488720D01*
X248557444Y-146488720D02*
X248652682Y-146488720D01*
X248652682Y-146488720D02*
X248747920Y-146441101D01*
X248747920Y-146441101D02*
X248795539Y-146393481D01*
X248795539Y-146393481D02*
X248843158Y-146298243D01*
X248843158Y-146298243D02*
X248890777Y-146107767D01*
X248890777Y-146107767D02*
X248890777Y-145869672D01*
X248890777Y-145869672D02*
X248843158Y-145679196D01*
X248843158Y-145679196D02*
X248795539Y-145583958D01*
X248795539Y-145583958D02*
X248747920Y-145536339D01*
X248747920Y-145536339D02*
X248652682Y-145488720D01*
X45671819Y-99362169D02*
X46386104Y-99362169D01*
X46386104Y-99362169D02*
X46528961Y-99314550D01*
X46528961Y-99314550D02*
X46624200Y-99219312D01*
X46624200Y-99219312D02*
X46671819Y-99076455D01*
X46671819Y-99076455D02*
X46671819Y-98981217D01*
X45671819Y-100266931D02*
X45671819Y-100076455D01*
X45671819Y-100076455D02*
X45719438Y-99981217D01*
X45719438Y-99981217D02*
X45767057Y-99933598D01*
X45767057Y-99933598D02*
X45909914Y-99838360D01*
X45909914Y-99838360D02*
X46100390Y-99790741D01*
X46100390Y-99790741D02*
X46481342Y-99790741D01*
X46481342Y-99790741D02*
X46576580Y-99838360D01*
X46576580Y-99838360D02*
X46624200Y-99885979D01*
X46624200Y-99885979D02*
X46671819Y-99981217D01*
X46671819Y-99981217D02*
X46671819Y-100171693D01*
X46671819Y-100171693D02*
X46624200Y-100266931D01*
X46624200Y-100266931D02*
X46576580Y-100314550D01*
X46576580Y-100314550D02*
X46481342Y-100362169D01*
X46481342Y-100362169D02*
X46243247Y-100362169D01*
X46243247Y-100362169D02*
X46148009Y-100314550D01*
X46148009Y-100314550D02*
X46100390Y-100266931D01*
X46100390Y-100266931D02*
X46052771Y-100171693D01*
X46052771Y-100171693D02*
X46052771Y-99981217D01*
X46052771Y-99981217D02*
X46100390Y-99885979D01*
X46100390Y-99885979D02*
X46148009Y-99838360D01*
X46148009Y-99838360D02*
X46243247Y-99790741D01*
X250092612Y-140961480D02*
X250140231Y-141009100D01*
X250140231Y-141009100D02*
X250283088Y-141056719D01*
X250283088Y-141056719D02*
X250378326Y-141056719D01*
X250378326Y-141056719D02*
X250521183Y-141009100D01*
X250521183Y-141009100D02*
X250616421Y-140913861D01*
X250616421Y-140913861D02*
X250664040Y-140818623D01*
X250664040Y-140818623D02*
X250711659Y-140628147D01*
X250711659Y-140628147D02*
X250711659Y-140485290D01*
X250711659Y-140485290D02*
X250664040Y-140294814D01*
X250664040Y-140294814D02*
X250616421Y-140199576D01*
X250616421Y-140199576D02*
X250521183Y-140104338D01*
X250521183Y-140104338D02*
X250378326Y-140056719D01*
X250378326Y-140056719D02*
X250283088Y-140056719D01*
X250283088Y-140056719D02*
X250140231Y-140104338D01*
X250140231Y-140104338D02*
X250092612Y-140151957D01*
X249140231Y-141056719D02*
X249711659Y-141056719D01*
X249425945Y-141056719D02*
X249425945Y-140056719D01*
X249425945Y-140056719D02*
X249521183Y-140199576D01*
X249521183Y-140199576D02*
X249616421Y-140294814D01*
X249616421Y-140294814D02*
X249711659Y-140342433D01*
X248759278Y-140151957D02*
X248711659Y-140104338D01*
X248711659Y-140104338D02*
X248616421Y-140056719D01*
X248616421Y-140056719D02*
X248378326Y-140056719D01*
X248378326Y-140056719D02*
X248283088Y-140104338D01*
X248283088Y-140104338D02*
X248235469Y-140151957D01*
X248235469Y-140151957D02*
X248187850Y-140247195D01*
X248187850Y-140247195D02*
X248187850Y-140342433D01*
X248187850Y-140342433D02*
X248235469Y-140485290D01*
X248235469Y-140485290D02*
X248806897Y-141056719D01*
X248806897Y-141056719D02*
X248187850Y-141056719D01*
X52058857Y-97501819D02*
X52392190Y-97025628D01*
X52630285Y-97501819D02*
X52630285Y-96501819D01*
X52630285Y-96501819D02*
X52249333Y-96501819D01*
X52249333Y-96501819D02*
X52154095Y-96549438D01*
X52154095Y-96549438D02*
X52106476Y-96597057D01*
X52106476Y-96597057D02*
X52058857Y-96692295D01*
X52058857Y-96692295D02*
X52058857Y-96835152D01*
X52058857Y-96835152D02*
X52106476Y-96930390D01*
X52106476Y-96930390D02*
X52154095Y-96978009D01*
X52154095Y-96978009D02*
X52249333Y-97025628D01*
X52249333Y-97025628D02*
X52630285Y-97025628D01*
X51677904Y-96597057D02*
X51630285Y-96549438D01*
X51630285Y-96549438D02*
X51535047Y-96501819D01*
X51535047Y-96501819D02*
X51296952Y-96501819D01*
X51296952Y-96501819D02*
X51201714Y-96549438D01*
X51201714Y-96549438D02*
X51154095Y-96597057D01*
X51154095Y-96597057D02*
X51106476Y-96692295D01*
X51106476Y-96692295D02*
X51106476Y-96787533D01*
X51106476Y-96787533D02*
X51154095Y-96930390D01*
X51154095Y-96930390D02*
X51725523Y-97501819D01*
X51725523Y-97501819D02*
X51106476Y-97501819D01*
X50154095Y-97501819D02*
X50725523Y-97501819D01*
X50439809Y-97501819D02*
X50439809Y-96501819D01*
X50439809Y-96501819D02*
X50535047Y-96644676D01*
X50535047Y-96644676D02*
X50630285Y-96739914D01*
X50630285Y-96739914D02*
X50725523Y-96787533D01*
X46613857Y-102478580D02*
X46661476Y-102526200D01*
X46661476Y-102526200D02*
X46804333Y-102573819D01*
X46804333Y-102573819D02*
X46899571Y-102573819D01*
X46899571Y-102573819D02*
X47042428Y-102526200D01*
X47042428Y-102526200D02*
X47137666Y-102430961D01*
X47137666Y-102430961D02*
X47185285Y-102335723D01*
X47185285Y-102335723D02*
X47232904Y-102145247D01*
X47232904Y-102145247D02*
X47232904Y-102002390D01*
X47232904Y-102002390D02*
X47185285Y-101811914D01*
X47185285Y-101811914D02*
X47137666Y-101716676D01*
X47137666Y-101716676D02*
X47042428Y-101621438D01*
X47042428Y-101621438D02*
X46899571Y-101573819D01*
X46899571Y-101573819D02*
X46804333Y-101573819D01*
X46804333Y-101573819D02*
X46661476Y-101621438D01*
X46661476Y-101621438D02*
X46613857Y-101669057D01*
X45661476Y-102573819D02*
X46232904Y-102573819D01*
X45947190Y-102573819D02*
X45947190Y-101573819D01*
X45947190Y-101573819D02*
X46042428Y-101716676D01*
X46042428Y-101716676D02*
X46137666Y-101811914D01*
X46137666Y-101811914D02*
X46232904Y-101859533D01*
X44709095Y-102573819D02*
X45280523Y-102573819D01*
X44994809Y-102573819D02*
X44994809Y-101573819D01*
X44994809Y-101573819D02*
X45090047Y-101716676D01*
X45090047Y-101716676D02*
X45185285Y-101811914D01*
X45185285Y-101811914D02*
X45280523Y-101859533D01*
D11*
%TO.C,R20*%
X247404190Y-141703901D02*
X251758318Y-141703901D01*
X247404190Y-145123901D02*
X251758318Y-145123901D01*
%TO.C,J6*%
X45455000Y-99695503D02*
G75*
G03*
X45455000Y-99695503I-2286000J0D01*
G01*
%TO.C,C12*%
X248288503Y-136241900D02*
X250611007Y-136241900D01*
X248288503Y-139661900D02*
X250611007Y-139661900D01*
%TO.C,J7*%
X260942755Y-143392900D02*
G75*
G03*
X260942755Y-143392900I-2286000J0D01*
G01*
%TO.C,R21*%
X53593064Y-101377000D02*
X49238936Y-101377000D01*
X53593064Y-97957000D02*
X49238936Y-97957000D01*
%TO.C,C11*%
X47132252Y-106479000D02*
X44809748Y-106479000D01*
X47132252Y-103059000D02*
X44809748Y-103059000D01*
%TD*%
M02*
